<svg xmlns="http://www.w3.org/2000/svg" width="110.173" height="118.045" viewBox="0 0 110.173 118.045"><g transform="translate(-3.997 -2)"><path d="M35.5,39.143a8.527,8.527,0,0,1-2.5-1v3.345a20.3,20.3,0,0,1,2.5-2.341Z" transform="translate(28.058 34.963)"/><path d="M32.229,32.155V28.81a8.527,8.527,0,0,1-2.5,1,18.9,18.9,0,0,1,2.5,2.341Z" transform="translate(24.895 25.937)"/><path d="M33,32.155a18.9,18.9,0,0,1,2.5-2.341,8.527,8.527,0,0,1-2.5-1Z" transform="translate(28.058 25.937)"/><path d="M32.229,38.14a8.527,8.527,0,0,1-2.5,1,20.3,20.3,0,0,1,2.5,2.341Z" transform="translate(24.895 34.963)"/><path d="M40.8,20.425c0-3.777-3.6-7.5-5.9-9.345-1.967,1.594-5.9,5.292-5.9,9.345,0,5.332,2.7,9.837,5.9,9.837S40.8,25.757,40.8,20.425Z" transform="translate(24.188 8.784)"/><path d="M33.567,21.96c-3.325-2.322-8.6-1.22-11.037-.531.177,2.538.944,7.87,4.269,10.191a13.215,13.215,0,0,0,7.063,2.558,5.147,5.147,0,0,0,4.368-1.751,5.066,5.066,0,0,0,.138-4.682,13.17,13.17,0,0,0-4.8-5.784Z" transform="translate(17.929 17.952)"/><path d="M38.47,21.96a13.17,13.17,0,0,0-4.8,5.784,5.066,5.066,0,0,0,.138,4.682,5.147,5.147,0,0,0,4.368,1.751,13.215,13.215,0,0,0,7.063-2.558c3.109-2.164,4.073-7.24,4.289-10.191-2.44-.689-7.732-1.79-11.057.531Z" transform="translate(28.215 17.952)"/><path d="M26.8,40.969a13.347,13.347,0,0,0,7.063,2.538,5.145,5.145,0,0,0,4.368-1.731,5.115,5.115,0,0,0,.138-4.7,13.17,13.17,0,0,0-4.8-5.784c-3.325-2.322-8.6-1.22-11.037-.512.177,2.518.944,7.85,4.269,10.191Z" transform="translate(17.929 26.979)"/><path d="M33.806,41.776a5.145,5.145,0,0,0,4.368,1.731,13.347,13.347,0,0,0,7.063-2.538c3.325-2.341,4.092-7.673,4.269-10.191-2.44-.708-7.712-1.81-11.037.512a13.17,13.17,0,0,0-4.8,5.784,5.115,5.115,0,0,0,.138,4.7Z" transform="translate(28.216 26.979)"/><path d="M26.8,50.289a13.022,13.022,0,0,0,7.063,2.538A5.09,5.09,0,0,0,38.23,51.1a5.115,5.115,0,0,0,.138-4.7,13.278,13.278,0,0,0-4.8-5.784c-3.109-2.164-8.2-1.338-11.037-.531.177,2.538.944,7.889,4.269,10.211Z" transform="translate(17.929 36.015)"/><path d="M38.239,52.834A13.022,13.022,0,0,0,45.3,50.3c3.109-2.184,4.073-7.24,4.289-10.191-2.44-.689-7.732-1.81-11.057.512a13.278,13.278,0,0,0-4.8,5.784,4.275,4.275,0,0,0,4.505,6.433Z" transform="translate(28.15 36.008)"/><path d="M7.938,61.023A51.2,51.2,0,0,1,57.5,9.911,5.9,5.9,0,0,0,63.025,13.8a1.936,1.936,0,0,0,.476-.059L79.241,9.811a1.967,1.967,0,0,0,0-3.817L63.5,2.059A1.936,1.936,0,0,0,63.025,2a5.89,5.89,0,0,0-5.552,3.976,55.074,55.074,0,0,0-33.009,97.891l2.475-3.057a50.98,50.98,0,0,1-19-39.787Z" transform="translate(0 0)"/><path d="M22.849,56.089c-1.285-.706-2.558-1.481-3.785-2.3a1.968,1.968,0,0,0-2.192,3.27c1.324.885,2.7,1.721,4.084,2.483a1.946,1.946,0,0,0,.944.242,1.967,1.967,0,0,0,.948-3.691Z" transform="translate(11.611 49.775)"/><path d="M77.328,10.244l-2.483,3.061a51.153,51.153,0,0,1-30.613,90.861,5.9,5.9,0,0,0-5.526-3.9,1.936,1.936,0,0,0-.476.059L22.49,104.259a1.967,1.967,0,0,0,0,3.817l15.739,3.935a1.936,1.936,0,0,0,.476.059,5.89,5.89,0,0,0,5.552-3.976,55.088,55.088,0,0,0,33.07-97.85Z" transform="translate(16.45 7.975)"/><path d="M45.021,11.023c1.285.706,2.558,1.481,3.785,2.3A1.968,1.968,0,1,0,51,10.057c-1.324-.885-2.7-1.721-4.084-2.483a1.967,1.967,0,1,0-1.893,3.449Z" transform="translate(38.699 5.158)"/><path d="M31,47h3.935V60.772H31Z" transform="translate(26.123 43.534)"/></g></svg>