<svg xmlns="http://www.w3.org/2000/svg" width="30.791" height="31" viewBox="0 0 30.791 31"><g transform="translate(-1.68)"><g transform="translate(1.68 0.209)"><g transform="translate(0)"><path d="M8.33,28.192l-.472-.447c2.353-2.308,4.748-5.143,4.748-8.989s-2.4-6.681-4.748-8.99l.472-.447c2.028-1.916,3.779-3.571,3.779-5.462v-.5h-.993v.5a2.492,2.492,0,0,1-.23.993H3.4a2.492,2.492,0,0,1-.23-.993v-.5H2.177v.5c0,1.891,1.751,3.546,3.779,5.462l.472.447C4.076,12.074,1.68,14.91,1.68,18.756s2.4,6.681,4.748,8.99l-.472.447c-2.028,1.916-3.779,3.571-3.779,5.462v.5H3.17v-.5a2.492,2.492,0,0,1,.23-.993h7.486a2.5,2.5,0,0,1,.23.993v.5h.993v-.5C12.109,31.764,10.358,30.109,8.33,28.192ZM3.994,5.843h6.3a11.661,11.661,0,0,1-.848.993h-4.6A11.571,11.571,0,0,1,3.994,5.843ZM5.832,7.83H8.454c-.261.251-.53.506-.806.767l-.5.478-.5-.478C6.362,8.336,6.093,8.081,5.832,7.83Zm1.311,2.626c.6.588,1.195,1.2,1.744,1.844H5.4C5.948,11.654,6.542,11.043,7.143,10.455Zm-3.7,4.824H8.136v-.993H3.967q.32-.54.693-1.049v.056H9.626v-.056q.373.509.693,1.049H9.13v.993h1.714a9.039,9.039,0,0,1,.376.993H3.067A8.94,8.94,0,0,1,3.443,15.279Zm-.632,1.987h8.665a8.252,8.252,0,0,1,.115.993H2.7A8.056,8.056,0,0,1,2.811,17.266Zm.256,3.973H4.66v-.993H2.81a8.252,8.252,0,0,1-.115-.993H11.59a8.055,8.055,0,0,1-.115.993H5.653v.993h5.566a8.94,8.94,0,0,1-.376.993h-7.4A9.039,9.039,0,0,1,3.067,21.239ZM4.66,24.274q-.373-.51-.693-1.049h6.353q-.319.54-.693,1.049v-.056H4.66Zm.739.938H8.887c-.549.646-1.143,1.256-1.744,1.844C6.542,26.468,5.948,25.858,5.4,25.212Zm1.239,3.7.5-.478.5.478c.276.261.546.516.806.767H5.832C6.093,29.43,6.362,29.176,6.638,28.914ZM3.994,31.668a11.661,11.661,0,0,1,.848-.993h4.6a11.661,11.661,0,0,1,.848.993Z" transform="translate(-1.68 -3.36)"/></g></g><g transform="translate(12.606)"><path d="M195.062,27.027h-.8a14.379,14.379,0,0,0-2.818-17.509l1.348-1.348-.994-.994,1.781-1.78.5.5,2.182-2.2L192.578,0,190.4,2.214l.493.493-1.783,1.777-.99-.99-6.953,6.953-.993-.993-2.192,2.192,6.662,6.662,2.192-2.192-.993-.993,2.786-2.786a10.5,10.5,0,0,1,3.03,4.807,1.982,1.982,0,0,0,.38,3.918,10.438,10.438,0,0,1-.193,1.234,3.458,3.458,0,0,0-1.249-.236h-7.45a2.486,2.486,0,0,0-2.483,2.483v.5h6.5a3.489,3.489,0,0,0-.04.5v1.49h-6.953a2.486,2.486,0,0,0-2.483,2.483V31h19.865V29.51A2.486,2.486,0,0,0,195.062,27.027ZM192.582,1.41l2.276,2.283-.785.792L191.8,2.209Zm-.991,2,1.285,1.284L191.1,6.473l-1.287-1.287ZM184.639,16.9l-5.257-5.257.788-.788,5.257,5.257Zm.5-2.483-3.271-3.271L188.116,4.9l3.271,3.271Zm4.192-2.787,1.413-1.413a13.405,13.405,0,0,1,3.311,14.966,3.472,3.472,0,0,0-1.31-2.377,11.441,11.441,0,0,0,.308-2,1.971,1.971,0,0,0-.347-3.6A11.489,11.489,0,0,0,189.328,11.633Zm1.762,7.448a.993.993,0,1,1,.993.993A.994.994,0,0,1,191.089,19.081Zm-9.351,4.966a1.493,1.493,0,0,1,1.4-.993h5.021a3.483,3.483,0,0,0-.708.993Zm14.814,5.96H178.673v-.5a1.492,1.492,0,0,1,1.49-1.49H189.1v-.993h-.993v-1.49a2.483,2.483,0,1,1,4.966,0v1.49H190.1v.993h4.966a1.492,1.492,0,0,1,1.49,1.49Z" transform="translate(-177.68)"/></g></g></svg>