<svg xmlns="http://www.w3.org/2000/svg" width="34.462" height="31" viewBox="0 0 34.462 31"><g transform="translate(-37 -59)"><path d="M115.741,92.264l3.025,1.26v4.522a.521.521,0,0,0,.551.514h.472c1.686,0,3.428,1.608,4.581,2.66.8.727,1.2,1.1,1.635,1.1s.831-.379,1.624-1.106c1.147-1.051,2.88-2.655,4.513-2.655h.551a.521.521,0,0,0,.551-.514V93.589l1.495-.622V97.95a2,2,0,1,0,1.1.04V92.508l.586-.244a.946.946,0,0,0,0-1.852l-9.128-3.8a3.517,3.517,0,0,0-2.428,0l-9.128,3.8a.946.946,0,0,0,0,1.852ZM136.12,99.9a.9.9,0,1,1-.9-.906.9.9,0,0,1,.9.906Zm-3.979-2.4c-2.061,0-3.985,1.764-5.257,2.931a11.46,11.46,0,0,1-.882.763,11.264,11.264,0,0,1-.89-.765c-1.263-1.152-3.162-2.886-5.245-2.929V93.982l5,2.083a3.518,3.518,0,0,0,2.428,0l4.844-2.017Zm-6.849-9.866a2.483,2.483,0,0,1,1.581,0l8.909,3.71-.578.241a.546.546,0,0,0-.244.1l-8.087,3.368a2.483,2.483,0,0,1-1.581,0l-8.91-3.71Z" transform="translate(-71.852 -25.24)"/><path d="M68.585,83.391a2.865,2.865,0,0,0,2.876-2.839v-18.7A2.876,2.876,0,0,0,68.585,59H39.876A2.876,2.876,0,0,0,37,61.852v18.7a2.865,2.865,0,0,0,2.876,2.839h9.4V88.9H47.158a.551.551,0,0,0,0,1.1H61.718a.551.551,0,0,0,0-1.1h-2.53V83.391ZM39.876,60.1H68.585a1.773,1.773,0,0,1,1.775,1.75V77.883H38.1V61.852A1.773,1.773,0,0,1,39.876,60.1ZM38.1,80.552V78.985H70.36v1.568a1.762,1.762,0,0,1-1.775,1.737H39.876A1.762,1.762,0,0,1,38.1,80.552ZM58.086,88.9H50.376V83.391h7.711Z"/></g></svg>