<svg xmlns="http://www.w3.org/2000/svg" width="27" height="26.999" viewBox="0 0 27 26.999"><path d="M419.512,2043.5a1.584,1.584,0,0,1-1.582-1.581V2037.4a.527.527,0,1,1,1.055,0v4.518a.527.527,0,0,0,.527.526h19.407a.527.527,0,0,0,.527-.526v-19.565h-3.217a1.584,1.584,0,0,1-1.582-1.582v-3.217H419.512a.528.528,0,0,0-.527.527v.687a6.932,6.932,0,0,1,1.481-.159.528.528,0,0,1,.527.527v6.439a.528.528,0,0,1-.527.527h-6.439a.528.528,0,0,1-.527-.527,6.978,6.978,0,0,1,4.43-6.488v-1.005a1.584,1.584,0,0,1,1.582-1.581h15.662a.527.527,0,0,1,.374.154l4.8,4.8a.527.527,0,0,1,.154.374v20.092a1.583,1.583,0,0,1-1.581,1.581Zm-4.934-18.452h5.36v-5.36A5.921,5.921,0,0,0,414.578,2025.048Zm21.123-4.277a.528.528,0,0,0,.527.527H438.7l-3-3Zm-14.085,19.034a1.582,1.582,0,0,1,2.263-1.428l1.935-1.935a1.567,1.567,0,0,1-.146-.661,1.582,1.582,0,1,1,3.056.575l2.017,2.017a1.585,1.585,0,0,1,1.366.007l3.038-3.037a1.566,1.566,0,0,1-.125-.617,1.585,1.585,0,1,1,.838,1.4l-3.01,3.01a1.582,1.582,0,1,1-2.857-.015l-1.96-1.961a1.58,1.58,0,0,1-1.482.043l-1.924,1.924a1.566,1.566,0,0,1,.156.683,1.582,1.582,0,0,1-3.164,0Zm1.055,0a.527.527,0,0,0,1.055,0,.522.522,0,0,0-.148-.365l-.008-.007-.006-.007a.526.526,0,0,0-.892.38Zm8.218,0a.527.527,0,1,0,.527-.527A.528.528,0,0,0,430.889,2039.8Zm-4.166-4.023a.527.527,0,1,0,.527-.527A.528.528,0,0,0,426.722,2035.78Zm9.352-1.056a.527.527,0,1,0,.527-.527A.528.528,0,0,0,436.074,2034.725Zm-17.99,1.132a.527.527,0,1,1,.745,0,.526.526,0,0,1-.745,0Zm-2.7-8.393a.527.527,0,0,1,.527-.526h5.911v-5.911a.527.527,0,0,1,.527-.527,6.966,6.966,0,1,1-6.966,6.965Zm6.966,5.911a5.908,5.908,0,0,0,4.534-9.7l-4.162,4.161a.524.524,0,0,1-.373.154h-5.888A5.918,5.918,0,0,0,422.355,2033.375Zm.527-7.184,3.261-3.261a5.88,5.88,0,0,0-3.261-1.354Zm13.112,3.6a.526.526,0,1,1,.373.155A.528.528,0,0,1,435.994,2029.793Zm-4.811.155a.527.527,0,1,1,0-1.055h2.783a.527.527,0,1,1,0,1.055Zm0-2.532a.527.527,0,1,1,0-1.055h6.441a.527.527,0,1,1,0,1.055Zm0-2.531a.527.527,0,1,1,0-1.055h6.441a.527.527,0,1,1,0,1.055Z" transform="translate(-413.5 -2016.5)"/></svg>