<svg width="4" height="8" viewBox="0 0 4 8" fill="none" xmlns="http://www.w3.org/2000/svg">
<path d="M0.440191 0C0.567783 0 0.669856 0.0432432 0.746411 0.12973L3.86603 3.63243C3.95534 3.74775 4 3.87027 4 4C4 4.12973 3.95534 4.24505 3.86603 4.34595L0.746411 7.84865C0.657097 7.94955 0.555024 8 0.440191 8C0.325359 8 0.223285 7.94955 0.133971 7.84865C0.0446571 7.74775 0 7.63243 0 7.5027C0 7.37297 0.0446571 7.25766 0.133971 7.15676L2.92823 4L0.133971 0.843243C0.0446571 0.742342 0 0.61982 0 0.475676C0 0.331532 0.0414673 0.216216 0.124402 0.12973C0.207337 0.0432432 0.3126 0 0.440191 0Z" fill="#868686"/>
</svg>
