<svg width="8" height="4" viewBox="0 0 8 4" fill="none" xmlns="http://www.w3.org/2000/svg">
<path d="M8 0.461211C8 0.575983 7.94969 0.678002 7.84906 0.767269L4.35579 3.8661C4.25517 3.95537 4.14016 4 4.01078 4C3.8814 4 3.75921 3.95537 3.6442 3.8661L0.150943 0.767269C0.0503145 0.678002 0 0.569607 0 0.442083C0 0.314559 0.0503145 0.21254 0.150943 0.136026C0.251572 0.0595112 0.366577 0.0148778 0.495957 0.0021254C0.625337 -0.010627 0.740341 0.0340064 0.84097 0.136026L3.98922 2.9288L7.13747 0.136026C7.23809 0.0467588 7.36029 0.0021254 7.50404 0.0021254C7.6478 0.0021254 7.7628 0.0467588 7.84906 0.136026C7.94969 0.250797 8 0.359192 8 0.461211Z" fill="#999999"/>
</svg>
