<svg xmlns="http://www.w3.org/2000/svg" width="13.5" height="13.5" viewBox="0 0 13.5 13.5">
  <defs>
    <style>
      .cls-1 {
        fill-rule: evenodd;
      }
    </style>
  </defs>
  <path class="cls-1" d="M397.352,657.46h0l0.04,0.037,0.021,0.015a0.207,0.207,0,0,0,.024.017l0.024,0.015,0.023,0.014,0.025,0.012,0.025,0.011a0.25,0.25,0,0,0,.025.009l0.027,0.01,0.025,0.006,0.028,0.007,0.03,0,0.024,0a0.515,0.515,0,0,0,.111,0l0.025,0,0.03,0,0.028-.007,0.025-.006,0.027-.01a0.25,0.25,0,0,0,.025-0.009l0.024-.011,0.026-.012,0.023-.014,0.024-.015a0.207,0.207,0,0,0,.024-0.017l0.02-.015a0.489,0.489,0,0,0,.041-0.037h0l2.812-2.812a0.563,0.563,0,0,0-.795-0.8l-1.853,1.852v-7.642a0.562,0.562,0,1,0-1.124,0V655.7l-1.853-1.852a0.563,0.563,0,0,0-.795.8Zm6.586-.4a0.562,0.562,0,0,0-.563.562v2.25h-11.25v-2.25a0.563,0.563,0,0,0-1.125,0v2.813a0.562,0.562,0,0,0,.562.562h12.375a0.563,0.563,0,0,0,.563-0.562v-2.813A0.562,0.562,0,0,0,403.938,657.063Z" transform="translate(-391 -647.5)"/>
</svg>
