<svg width="8" height="6" viewBox="0 0 8 6" fill="none" xmlns="http://www.w3.org/2000/svg">
<path d="M3.15334 4.9625L0.155844 1.53625C-0.197906 1.13313 0.0895942 0.5 0.626469 0.5H6.62147C6.74162 0.499897 6.85926 0.53443 6.96029 0.599463C7.06132 0.664496 7.14146 0.757273 7.19112 0.866683C7.24078 0.976093 7.25785 1.0975 7.24029 1.21636C7.22273 1.33522 7.17127 1.4465 7.09209 1.53688L4.09459 4.96188C4.03593 5.02901 3.96358 5.08281 3.88241 5.11968C3.80124 5.15654 3.71312 5.17561 3.62397 5.17561C3.53482 5.17561 3.4467 5.15654 3.36553 5.11968C3.28435 5.08281 3.21201 5.02963 3.15334 4.9625Z" fill="white"/>
</svg>
