<svg xmlns="http://www.w3.org/2000/svg" width="22.038" height="19.553" viewBox="0 0 22.038 19.553"><path d="M1400.19,1158.259a.193.193,0,0,1-.111-.173v-4.476a9.931,9.931,0,0,1-3.657-2.814,6.49,6.49,0,0,1-1.442-4,7.14,7.14,0,0,1,3.25-5.729,14.04,14.04,0,0,1,15.538,0,6.674,6.674,0,0,1,0,11.458,13.256,13.256,0,0,1-7.769,2.345,15.156,15.156,0,0,1-1.526-.077l-4.08,3.437a.191.191,0,0,1-.123.045A.187.187,0,0,1,1400.19,1158.259Zm.272-.584,3.828-3.225a.188.188,0,0,1,.143-.043,14.917,14.917,0,0,0,1.567.083c5.865,0,10.637-3.451,10.637-7.692a5.908,5.908,0,0,0-.9-3.088h-1.4a.191.191,0,1,1,0-.382h1.149a7.6,7.6,0,0,0-.663-.817h-4.259a.191.191,0,1,1,0-.382h3.878A12.386,12.386,0,0,0,1406,1139.1c-5.865,0-10.637,3.451-10.637,7.692a5.741,5.741,0,0,0,.375,2.035h2.057a.191.191,0,0,1,0,.382h-1.9a8.67,8.67,0,0,0,4.454,4.1.191.191,0,0,1,.112.174v.939h1.9a.191.191,0,1,1,0,.382h-1.9v.462h.653a.191.191,0,0,1,0,.382h-.653Zm5.933-6.979a.191.191,0,1,1,0-.382h3.76a.191.191,0,1,1,0,.382Zm-5.753-2.03a.191.191,0,0,1,0-.382h11.543a.191.191,0,0,1,0,.382Zm0-2.031a.191.191,0,0,1,0-.382h11.543a.191.191,0,0,1,0,.382Zm-.064-1.416a.191.191,0,0,1-.191-.191v-2.315a.191.191,0,0,1,.191-.191h3.5a.191.191,0,0,1,.192.191v2.315a.191.191,0,0,1-.192.191Zm.192-.382h3.122V1142.9h-3.122Zm4.883-.233a.191.191,0,0,1,0-.383h6.532a.191.191,0,0,1,0,.383Z" transform="translate(-1394.981 -1138.723)" fill="#00a0e1"/></svg>