<svg width="12" height="8" viewBox="0 0 12 8" fill="none" xmlns="http://www.w3.org/2000/svg">
<path d="M11.903 3.73134C10.6455 1.40672 8.4403 0 6 0C3.5597 0 1.35075 1.40672 0.104478 3.73134L0 3.90672L0.0970149 4.08582C1.35448 6.41045 3.5597 7.81716 6 7.81716C8.4403 7.81716 10.6493 6.4291 11.903 4.08582L12 3.90672L11.903 3.73134ZM6 7.05224C3.89925 7.05224 1.97015 5.8806 0.850746 3.90672C1.97015 1.93284 3.89925 0.761194 6 0.761194C8.10075 0.761194 10.0075 1.93657 11.1455 3.90672C10.0075 5.8806 8.09702 7.05224 6 7.05224Z" fill="#868686"/>
<path d="M6.10821 1.35821C5.60228 1.3619 5.1088 1.51544 4.69008 1.79943C4.27137 2.08343 3.9462 2.48513 3.75566 2.95382C3.56512 3.42251 3.51774 3.93715 3.61951 4.43275C3.72129 4.92835 3.96765 5.38267 4.32748 5.73833C4.68731 6.094 5.14447 6.33505 5.64122 6.43105C6.13796 6.52704 6.65202 6.47368 7.11846 6.27769C7.58489 6.0817 7.98279 5.75188 8.26189 5.32989C8.54098 4.90789 8.68877 4.41265 8.68657 3.90672C8.6851 3.56994 8.6172 3.23676 8.48674 2.92628C8.35627 2.61579 8.16583 2.3341 7.9263 2.09735C7.68678 1.8606 7.40289 1.67345 7.09091 1.54661C6.77893 1.41977 6.44498 1.35575 6.10821 1.35821ZM6.10821 5.73134C5.75084 5.72766 5.40253 5.61846 5.10702 5.41747C4.81151 5.21647 4.58198 4.93264 4.44726 4.60162C4.31253 4.2706 4.27862 3.90715 4.34978 3.55692C4.42094 3.20669 4.594 2.8853 4.84723 2.6331C5.10046 2.38091 5.42255 2.20916 5.77307 2.13943C6.12359 2.0697 6.4869 2.10509 6.81736 2.24116C7.14783 2.37724 7.43072 2.60793 7.63051 2.90426C7.8303 3.20058 7.93807 3.54934 7.9403 3.90672C7.9413 4.14724 7.89453 4.38557 7.80272 4.60788C7.71091 4.83019 7.57588 5.03206 7.40545 5.20179C7.23503 5.37152 7.03261 5.50572 6.80993 5.59663C6.58724 5.68753 6.34873 5.73332 6.10821 5.73134Z" fill="#868686"/>
</svg>
