<svg xmlns="http://www.w3.org/2000/svg" width="12.594" height="12.594" viewBox="0 0 12.594 12.594">
  <defs>
    <style>
      .cls-1 {
        fill: #fff;
        fill-rule: evenodd;
      }
    </style>
  </defs>
  <path id="Forma_1" data-name="Forma 1" class="cls-1" d="M442.668,26H437.94A3.94,3.94,0,0,0,434,29.94v4.728a3.94,3.94,0,0,0,3.94,3.94h4.728a3.94,3.94,0,0,0,3.939-3.94V29.94A3.94,3.94,0,0,0,442.668,26Zm2.758,8.668a2.762,2.762,0,0,1-2.758,2.758H437.94a2.761,2.761,0,0,1-2.758-2.758V29.94a2.761,2.761,0,0,1,2.758-2.758h4.728a2.762,2.762,0,0,1,2.758,2.758v4.728ZM440.3,29.152a3.152,3.152,0,1,0,3.152,3.152A3.152,3.152,0,0,0,440.3,29.152Zm0,5.122a1.97,1.97,0,1,1,1.97-1.97A1.973,1.973,0,0,1,440.3,34.274Zm3.388-5.778a0.42,0.42,0,1,1-.42.42A0.42,0.42,0,0,1,443.692,28.5Z" transform="translate(-434 -26)"/>
</svg>
