<svg xmlns="http://www.w3.org/2000/svg" width="11.906" height="11.875" viewBox="0 0 11.906 11.875">
  <defs>
    <style>
      .cls-1 {
        fill: #fff;
        fill-rule: evenodd;
      }
    </style>
  </defs>
  <path id="Forma_1" data-name="Forma 1" class="cls-1" d="M517.641,35.859L515.8,34.02a0.959,0.959,0,0,0-1.352.026l-0.926.926-0.183-.1a8.685,8.685,0,0,1-3.843-3.844l-0.1-.179,0.622-.621,0.305-.306a0.957,0.957,0,0,0,.025-1.352l-1.839-1.839a0.958,0.958,0,0,0-1.352.026l-0.518.521,0.014,0.014a3.019,3.019,0,0,0-.427.753,3.183,3.183,0,0,0-.19.764c-0.242,2.013.677,3.853,3.174,6.349,3.45,3.451,6.231,3.19,6.351,3.177a3.1,3.1,0,0,0,.766-0.193,2.975,2.975,0,0,0,.751-0.425l0.011,0.01,0.525-.514A0.96,0.96,0,0,0,517.641,35.859Z" transform="translate(-506 -26.469)"/>
</svg>
