<svg xmlns="http://www.w3.org/2000/svg" width="9" height="15.34" viewBox="0 0 9 15.34">
  <defs>
    <style>
      .cls-1 {
        fill: #00a0e1;
        fill-rule: evenodd;
      }
    </style>
  </defs>
  <path id="next" class="cls-1" d="M1529.17,1129.44l-6.81-6.82a0.833,0.833,0,0,0-1.19,0l-0.5.5a0.839,0.839,0,0,0,0,1.19l5.72,5.73-5.73,5.74a0.807,0.807,0,0,0-.24.59,0.824,0.824,0,0,0,.24.59l0.5,0.51a0.858,0.858,0,0,0,1.19,0l6.82-6.84a0.807,0.807,0,0,0,.24-0.59A0.83,0.83,0,0,0,1529.17,1129.44Z" transform="translate(-1520.41 -1122.38)"/>
</svg>
