<svg width="13" height="12" viewBox="0 0 13 12" fill="none" xmlns="http://www.w3.org/2000/svg">
<path d="M10.6198 12H10.5413C1.47209 11.4785 0.184396 3.82615 0.00439607 1.49077C-0.0101077 1.30919 0.0113601 1.12653 0.0675691 0.953267C0.123778 0.779999 0.213624 0.619525 0.331958 0.481039C0.450292 0.342554 0.594789 0.228779 0.75717 0.146234C0.919551 0.0636882 1.09662 0.0139947 1.27824 4.32734e-07H3.82132C4.00619 -0.000178535 4.18686 0.0551587 4.33992 0.158844C4.49298 0.26253 4.61138 0.409786 4.67978 0.581539L5.38132 2.30769C5.44887 2.47548 5.46563 2.65942 5.42952 2.83666C5.39342 3.01389 5.30604 3.17662 5.17824 3.30462L4.19517 4.29692C4.34873 5.16958 4.76663 5.974 5.39235 6.60137C6.01806 7.22873 6.82138 7.64875 7.69363 7.80462L8.69517 6.81231C8.82509 6.68592 8.98934 6.60058 9.16745 6.56693C9.34555 6.53327 9.52962 6.5528 9.6967 6.62308L11.4367 7.32C11.6059 7.39056 11.7502 7.50989 11.8513 7.66277C11.9524 7.81566 12.0057 7.99518 12.0044 8.17846V10.6154C12.0044 10.9826 11.8585 11.3348 11.5989 11.5945C11.3392 11.8541 10.987 12 10.6198 12ZM1.38901 0.923077C1.2666 0.923077 1.14921 0.971704 1.06265 1.05826C0.976099 1.14481 0.927473 1.26221 0.927473 1.38462V1.42154C1.13978 4.15385 2.50132 10.6154 10.5921 11.0769C10.6527 11.0807 10.7135 11.0724 10.7709 11.0526C10.8284 11.0328 10.8813 11.0019 10.9268 10.9616C10.9722 10.9213 11.0093 10.8724 11.0358 10.8177C11.0623 10.7631 11.0778 10.7037 11.0813 10.6431V8.17846L9.34132 7.48154L8.0167 8.79692L7.79517 8.76923C3.77978 8.26615 3.23517 4.25077 3.23517 4.20923L3.20747 3.98769L4.51824 2.66308L3.82593 0.923077H1.38901Z" fill="#009FE3"/>
</svg>
