<svg width="15" height="15" viewBox="0 0 15 15" fill="none" xmlns="http://www.w3.org/2000/svg">
<g clip-path="url(#clip0)">
<path d="M7.71576 12.9536C6.34398 13.2073 4.92701 13.0155 3.67207 12.4062C2.41712 11.7969 1.39001 10.8021 0.74089 9.56731C0.0917729 8.3325 -0.14529 6.92241 0.064361 5.54322C0.274012 4.16403 0.919356 2.88812 1.90608 1.90197C2.89281 0.915825 4.16914 0.271155 5.54845 0.0623114C6.92776 -0.146532 8.33773 0.0914331 9.57217 0.741273C10.8066 1.39111 11.8008 2.41878 12.4093 3.67409C13.0179 4.92939 13.2089 6.34648 12.9544 7.71811C13.4872 8.00313 13.9458 8.4089 14.2936 8.90304C14.6414 9.39718 14.8686 9.96598 14.9571 10.5637C15.0456 11.1615 14.9928 11.7716 14.8031 12.3453C14.6134 12.919 14.2919 13.4403 13.8645 13.8674C13.4371 14.2945 12.9157 14.6157 12.3419 14.8051C11.768 14.9944 11.1579 15.0469 10.5602 14.958C9.96251 14.8692 9.39393 14.6416 8.89999 14.2936C8.40605 13.9455 8.00047 13.4866 7.71576 12.9536ZM7.74256 11.1287C7.74241 11.7986 7.94093 12.4535 8.313 13.0106C8.68506 13.5677 9.21396 14.0019 9.83282 14.2584C10.4517 14.5149 11.1327 14.582 11.7898 14.4514C12.4468 14.3208 13.0504 13.9983 13.5241 13.5247C13.9979 13.0511 14.3205 12.4476 14.4513 11.7906C14.582 11.1336 14.515 10.4525 14.2587 9.83358C14.0023 9.21466 13.5682 8.68562 13.0112 8.31343C12.4542 7.94123 11.7994 7.74262 11.1295 7.74262C10.2318 7.74363 9.37116 8.10058 8.73626 8.73519C8.10136 9.36981 7.74398 10.231 7.74256 11.1287ZM6.28635 12.5612V10.1247C5.49121 10.1131 4.69946 10.0181 3.92416 9.84116C4.44381 11.3648 5.30378 12.4133 6.29019 12.5581L6.28635 12.5612ZM6.77071 10.1224V12.5581C7.00795 12.5199 7.23491 12.4336 7.43756 12.3045C7.20766 11.5872 7.19458 10.818 7.39999 10.0933C7.19382 10.1056 6.9838 10.1194 6.7738 10.1217L6.77071 10.1224ZM4.86308 12.3451C4.14145 11.6068 3.62543 10.6926 3.36622 9.69324C2.36675 9.43433 1.45246 8.91827 0.714319 8.19638C0.999269 9.18247 1.52955 10.0801 2.25562 10.8057C2.98169 11.5312 3.87982 12.0609 4.86612 12.3451H4.86308ZM6.77071 9.64029C7.0428 9.63492 7.30725 9.61959 7.57397 9.5966C7.96475 8.69167 8.68633 7.97014 9.59125 7.57936C9.61501 7.3134 9.6288 7.04287 9.63569 6.77615H6.77151L6.77071 9.64029ZM3.7617 9.29851C4.58683 9.5116 5.43427 9.62629 6.28635 9.64029V6.77381H3.41908C3.43466 7.62607 3.55096 8.47356 3.76553 9.29851H3.7617ZM3.2183 9.136C3.0417 8.36065 2.94665 7.56893 2.93472 6.77381H0.502781C0.649938 7.76175 1.69766 8.62174 3.22134 9.13525L3.2183 9.136ZM12.3013 7.44136C12.4275 7.23722 12.5136 7.01092 12.555 6.77456H10.1186C10.1186 6.98686 10.1071 7.19309 10.0887 7.40309C10.8137 7.19841 11.5838 7.21168 12.3013 7.44136ZM10.1216 6.2917H12.5589C12.4109 5.30222 11.3625 4.44388 9.83881 3.9296C10.0166 4.70377 10.1127 5.49447 10.1254 6.2887L10.1216 6.2917ZM6.77071 6.2917H9.63724C9.62488 5.43949 9.51008 4.5919 9.29537 3.76708C8.47024 3.55399 7.6228 3.43922 6.77071 3.42522V6.2917ZM3.7617 3.76708C3.54841 4.5922 3.4334 5.43958 3.41908 6.2917H6.28635V3.42522C5.43568 3.43852 4.58954 3.55224 3.76553 3.764L3.7617 3.76708ZM0.502009 6.2917H2.93472C2.94758 5.49646 3.04362 4.70483 3.22134 3.9296C1.70072 4.44311 0.652996 5.30306 0.505073 6.2887L0.502009 6.2917ZM9.69085 3.3747C10.6903 3.63367 11.6046 4.14973 12.3427 4.87156C12.0591 3.88533 11.5296 2.98726 10.8039 2.26162C10.0783 1.53597 9.18026 1.00644 8.19403 0.722749C8.91614 1.46001 9.43316 2.37312 9.69394 3.37161L9.69085 3.3747ZM0.717407 4.86847C1.45585 4.14698 2.36998 3.63098 3.36926 3.37161C3.62846 2.37209 4.14481 1.45785 4.86692 0.719755C3.88173 1.00403 2.98467 1.53336 2.25955 2.25834C1.53443 2.98333 1.0049 3.88025 0.720448 4.86538L0.717407 4.86847ZM6.77226 2.94011C7.56753 2.95237 8.35932 3.04847 9.13445 3.22678C8.61787 1.70309 7.75483 0.654531 6.77226 0.507374V2.94011ZM3.92571 3.22678C4.701 3.04983 5.49275 2.95479 6.2879 2.9432V0.507374C5.30379 0.651465 4.44383 1.69771 3.92725 3.22369L3.92571 3.22678ZM9.43333 13.3077V10.1653H9.67555V9.92237C9.70092 9.55436 9.86499 9.20966 10.1346 8.95796C10.4043 8.70625 10.7595 8.56632 11.1283 8.56632C11.4972 8.56632 11.8523 8.70625 12.122 8.95796C12.3917 9.20966 12.5558 9.55436 12.5811 9.92237V10.1653H12.8233V13.3077H9.43333ZM9.92002 12.8264H12.3382V10.6505H9.92002V12.8264ZM10.1592 9.92003V10.163H12.099V9.92003C12.0919 9.66791 11.9868 9.42849 11.8059 9.25267C11.6251 9.07685 11.3829 8.97854 11.1306 8.97854C10.8784 8.97854 10.6361 9.07685 10.4553 9.25267C10.2744 9.42849 10.1693 9.66791 10.1622 9.92003H10.1592ZM11.6154 12.3382V11.8553H12.099V12.3382H11.6154ZM10.8873 12.3382V11.8553H11.3701V12.3382H10.8873ZM10.1592 12.3382V11.8553H10.642V12.3382H10.1592Z" fill="white"/>
</g>
<defs>
<clipPath id="clip0">
<rect width="15" height="15" fill="white"/>
</clipPath>
</defs>
</svg>
