<svg xmlns="http://www.w3.org/2000/svg" width="13.781" height="9.656" viewBox="0 0 13.781 9.656">
  <defs>
    <style>
      .cls-1 {
        fill: #fff;
        fill-rule: evenodd;
      }
    </style>
  </defs>
  <path id="Forma_1" data-name="Forma 1" class="cls-1" d="M482.219,28.868a1.744,1.744,0,0,0-1.488-1.36,69.439,69.439,0,0,0-10.307,0,1.741,1.741,0,0,0-1.487,1.36,14.889,14.889,0,0,0-.243,3.271,14.885,14.885,0,0,0,.24,3.271,1.742,1.742,0,0,0,1.487,1.36,45.943,45.943,0,0,0,5.154.192,45.916,45.916,0,0,0,5.153-.192,1.744,1.744,0,0,0,1.488-1.36,14.885,14.885,0,0,0,.24-3.271A14.948,14.948,0,0,0,482.219,28.868Zm-8.42,5.419V29.71l4.376,2.3Z" transform="translate(-468.688 -27.313)"/>
</svg>
