<svg width="10" height="10" viewBox="0 0 10 10" fill="none" xmlns="http://www.w3.org/2000/svg">
<path d="M5 0C6.32608 0 7.59785 0.526784 8.53553 1.46447C9.47322 2.40215 10 3.67392 10 5C10 6.32608 9.47322 7.59785 8.53553 8.53553C7.59785 9.47322 6.32608 10 5 10C3.67392 10 2.40215 9.47322 1.46447 8.53553C0.526784 7.59785 0 6.32608 0 5C0 3.67392 0.526784 2.40215 1.46447 1.46447C2.40215 0.526784 3.67392 0 5 0ZM5 0.625C4.42547 0.625 3.85656 0.738163 3.32576 0.958027C2.79496 1.17789 2.31266 1.50015 1.90641 1.90641C1.50015 2.31266 1.17789 2.79496 0.958027 3.32576C0.738163 3.85656 0.625 4.42547 0.625 5C0.625 5.57453 0.738163 6.14344 0.958027 6.67424C1.17789 7.20504 1.50015 7.68734 1.90641 8.09359C2.31266 8.49985 2.79496 8.82211 3.32576 9.04197C3.85656 9.26184 4.42547 9.375 5 9.375C6.16032 9.375 7.27312 8.91406 8.09359 8.09359C8.91406 7.27312 9.375 6.16032 9.375 5C9.375 3.83968 8.91406 2.72688 8.09359 1.90641C7.27312 1.08594 6.16032 0.625 5 0.625ZM4.6875 1.875C4.76064 1.87498 4.83147 1.90061 4.88766 1.94743C4.94385 1.99425 4.98183 2.0593 4.995 2.13125L5 2.1875V5H6.5625C6.64059 4.99986 6.71591 5.02896 6.77361 5.08157C6.83132 5.13418 6.86724 5.20649 6.8743 5.28426C6.88135 5.36204 6.85903 5.43963 6.81174 5.50177C6.76444 5.56391 6.69559 5.60609 6.61875 5.62L6.5625 5.625H4.6875C4.61436 5.62502 4.54353 5.59939 4.48734 5.55257C4.43115 5.50575 4.39317 5.4407 4.38 5.36875L4.375 5.3125V2.1875C4.375 2.10462 4.40792 2.02513 4.46653 1.96653C4.52513 1.90792 4.60462 1.875 4.6875 1.875Z" fill="#868686"/>
</svg>
