<svg xmlns="http://www.w3.org/2000/svg" width="10.312" height="10.312" viewBox="0 0 10.312 10.312">
  <defs>
    <style>
      .cls-1 {
        fill: #fff;
        fill-rule: evenodd;
      }
    </style>
  </defs>
  <path id="Forma_1" data-name="Forma 1" class="cls-1" d="M426.5,964.349a5.151,5.151,0,1,0,5.151,5.151A5.157,5.157,0,0,0,426.5,964.349Zm0,9.206a4.055,4.055,0,1,1,4.055-4.055A4.06,4.06,0,0,1,426.5,973.555Zm2.685-4.214H426.87v-2.784a0.425,0.425,0,0,0-.849,0v3.208a0.424,0.424,0,0,0,.425.424h2.739A0.424,0.424,0,1,0,429.185,969.341Z" transform="translate(-421.344 -964.344)"/>
</svg>
