<svg xmlns="http://www.w3.org/2000/svg" width="13.634" height="13.642" viewBox="0 0 13.634 13.642"><path d="M402.151,3585.774c-1.567,0-3.847-.823-6.908-3.887-3.849-3.852-4.162-6.468-3.746-7.982a1.63,1.63,0,0,1,.742-.964l1.155-.694a.8.8,0,0,1,1.08.244l1.84,2.761a.806.806,0,0,1-.176,1.079l-1.032.8a.344.344,0,0,0-.091.443l.084.153a12.837,12.837,0,0,0,4.3,4.3l.153.084a.343.343,0,0,0,.44-.093l.8-1.034a.807.807,0,0,1,1.079-.176l2.759,1.842a.8.8,0,0,1,.243,1.082l-.694,1.154a1.628,1.628,0,0,1-.964.742,4,4,0,0,1-1.047.14Zm-8.525-13.135-1.154.692a1.178,1.178,0,0,0-.537.695c-.384,1.4-.067,3.842,3.629,7.539s6.137,4.016,7.535,3.632a1.172,1.172,0,0,0,.693-.537l.693-1.156a.348.348,0,0,0-.106-.469l-2.759-1.842a.351.351,0,0,0-.468.077l-.8,1.033a.793.793,0,0,1-1.021.21l-.149-.082a13.255,13.255,0,0,1-4.482-4.485l-.082-.149a.8.8,0,0,1,.211-1.022l1.033-.8a.35.35,0,0,0,.076-.468l-.839-1.259-1-1.5a.347.347,0,0,0-.469-.105Zm9.319,5.633a3.869,3.869,0,0,0-3.863-3.865.227.227,0,0,1,0-.454,4.323,4.323,0,0,1,4.317,4.319.227.227,0,1,1-.454,0Zm-1.363,0a2.5,2.5,0,0,0-2.5-2.5.227.227,0,0,1,0-.455,2.958,2.958,0,0,1,2.954,2.955.227.227,0,1,1-.454,0Zm-1.363,0a1.138,1.138,0,0,0-1.137-1.137.227.227,0,0,1,0-.455,1.592,1.592,0,0,1,1.59,1.591.227.227,0,1,1-.454,0Z" transform="translate(-391.357 -3572.132)"/></svg>