<svg width="42" height="37" viewBox="0 0 42 37" fill="none" xmlns="http://www.w3.org/2000/svg">
<g clip-path="url(#clip0)">
<path fill-rule="evenodd" clip-rule="evenodd" d="M21.0084 4.84352C28.0851 4.84352 33.8219 10.4672 33.8219 17.4045C33.8219 24.3417 28.0851 29.9654 21.0084 29.9654C13.9318 29.9654 8.19502 24.3417 8.19502 17.4045C8.19502 10.4672 13.9318 4.84352 21.0084 4.84352ZM21.0084 4.25903C28.4144 4.25903 34.4181 10.1445 34.4181 17.4045C34.4181 24.6645 28.4144 30.5499 21.0084 30.5499C13.6025 30.5499 7.59912 24.6645 7.59912 17.4045C7.59912 10.1445 13.6028 4.25903 21.0084 4.25903Z" fill="white"/>
<path d="M19.2865 16.5952V16.5847L19.2868 16.5002H19.3727L21.0651 16.5028V16.6718L19.4589 16.6695V16.68H19.3858V16.7645L18.7064 16.7629L18.7078 16.7916L18.7118 16.8794H18.6216L16.3875 16.8797L16.3912 17.1305L16.3925 17.2167L16.3047 17.216L14.8314 17.2074L14.8227 17.7474L16.2619 17.7493L16.3484 17.7497L16.3481 17.8338L16.3478 17.9619H19.7235V17.9457L19.8959 17.947L19.8952 18.0474L19.8945 18.1315H19.809H16.3498L16.3464 18.347V18.348L16.3461 18.4332H16.3451L16.338 18.8698L21.0654 18.8721V19.0411L16.2751 19.0388L16.2616 19.3117L16.2575 19.3926L16.1754 19.3922L14.7203 19.387L14.6247 19.3879L14.7106 19.5018L14.7264 19.5229V19.5252L16.1821 19.5233V19.6863L16.2683 19.6876L16.1478 27.0895H17.1049V27.1875H16.1337L16.1198 27.2004L16.101 27.2176L17.2039 27.2166V27.2908H17.2298V27.3889L16.0323 27.3912L16.0192 27.4932L16.0114 27.5529L15.9515 27.5654L15.9232 27.5714L15.9185 27.6694L15.9145 27.7502L15.832 27.7499L14.0032 27.7417L12.7606 27.7701C12.7017 27.7252 12.6438 27.6793 12.5859 27.6331L13.6797 27.6242L14.5281 27.4813L14.6271 19.682L14.5594 19.6711L14.5567 19.6018L14.556 19.582L14.4561 19.4493L14.4399 19.4279L14.4392 19.4011L14.4369 19.3071L14.4348 19.2216L14.5224 19.2206L14.6352 19.2193L14.6389 19.019L7.69955 19.0137C7.69248 18.9573 7.68608 18.9012 7.67969 18.8447L14.6419 18.8503L14.6429 18.8005L14.3557 18.3853L14.3423 18.3658L14.3409 18.3427L14.3325 18.1936L14.1558 17.8678L14.0877 17.7424L14.2328 17.7437L14.6506 17.7474L14.6591 17.2276L14.6207 17.1685L14.5355 17.0378L14.6937 17.0388L16.2182 17.0477L16.2158 16.882L16.1892 16.8447L16.0949 16.7117H16.2602L18.5071 16.7114L18.4051 16.5942L18.5926 16.5946L19.2872 16.5962L19.2865 16.5952ZM13.9783 28.5997L21.0651 28.5905V28.7595L14.2648 28.7684C14.1685 28.7133 14.0729 28.6568 13.978 28.5997H13.9783ZM18.8556 27.2159L20.2706 27.213V27.2899H20.2877V27.3879H18.8418V27.2899H18.8556V27.2156V27.2159ZM18.9721 27.0912L20.1689 27.0925V27.1905L18.9721 27.1892V27.0912ZM14.8112 19.0186L14.8075 19.2183L16.0933 19.2229L16.105 18.9846L16.1074 18.9391L16.1475 18.9157L16.1653 18.9054L16.1727 18.4322L14.5904 18.4226L14.8011 18.7272L14.8166 18.7493L14.816 18.7757L14.8133 18.9351L14.8119 19.0183L14.8112 19.0186ZM14.7991 19.6939L14.6995 27.5532L14.6991 27.5753L15.7499 27.58L15.7539 27.4978L15.7569 27.4328L15.8222 27.4189L15.8556 27.412L15.8812 27.2143L15.8852 27.1839L15.9078 27.1631L15.9754 27.1007L16.0963 19.6919L14.7995 19.6936L14.7991 19.6939ZM16.8878 19.3431L19.206 19.32L19.2074 19.4889L16.8891 19.512L16.8878 19.3431ZM19.8955 19.3176L21.0651 19.3104L21.0658 19.4794L19.8962 19.4866L19.8955 19.3176ZM14.5086 18.253L16.1741 18.2629L16.1751 17.918L14.8197 17.9163V17.917L14.7341 17.9163L14.3763 17.913L14.4934 18.1292L14.5022 18.1454L14.5032 18.1645L14.5082 18.2533L14.5086 18.253Z" fill="white"/>
<path d="M19.9446 19.3946L19.9641 19.4639L19.9658 19.4695V19.4757L19.9705 19.6266L19.9712 19.6447L19.9597 19.6589L19.9163 19.712L19.9402 19.7807L19.9507 19.8107L19.9268 19.8325L19.9066 19.851L19.8904 19.8658L19.8685 19.8639L19.6726 19.8477L19.4019 19.845L19.2033 19.8982L19.1467 19.9134L19.1406 19.8559L19.1332 19.7866L19.1319 19.7741L19.1369 19.7625L19.1528 19.7266L19.1006 19.6681L19.0885 19.6546L19.0881 19.6365L19.0861 19.4906L19.0858 19.4724L19.0976 19.4586L19.1649 19.3787L19.1948 19.3124L19.207 19.2856L19.2369 19.2837C19.34 19.2767 19.4423 19.2744 19.5457 19.2757C19.6493 19.2771 19.752 19.2817 19.8574 19.2883L19.884 19.2899L19.8975 19.3127L19.9402 19.3843L19.9433 19.3896L19.9449 19.3962L19.9446 19.3946ZM19.8662 19.4843L19.85 19.4272L19.8237 19.3833C19.7271 19.3777 19.6342 19.3738 19.5436 19.3724C19.4541 19.3715 19.3645 19.3731 19.273 19.3787L19.2521 19.4243L19.2491 19.4309L19.245 19.4358L19.1851 19.5068L19.1868 19.6167L19.2477 19.685L19.2686 19.7081L19.2561 19.7365L19.2336 19.7883L19.3817 19.7487L19.3884 19.747H19.3952L19.6763 19.75H19.68L19.8271 19.7622L19.812 19.7183L19.8032 19.6929L19.8204 19.6718L19.8695 19.6117L19.8655 19.485L19.8662 19.4843ZM16.2282 19.7903L16.3056 19.7675L16.312 19.7655H16.3194L16.6803 19.7612H16.6857L16.6901 19.7622L16.8975 19.8015L16.8991 19.5833L16.8931 19.516L16.848 19.4573L16.8439 19.452L16.8419 19.447L16.8251 19.4084C16.7224 19.4005 16.6204 19.3972 16.5197 19.3982C16.4117 19.3988 16.3032 19.4048 16.1945 19.4147L16.1841 19.4203L16.1854 19.5457L16.2006 19.5543L16.2258 19.5682L16.2261 19.5965L16.2282 19.7903ZM16.3278 19.8632L16.1932 19.9031L16.1295 19.9219L16.1289 19.8563L16.1265 19.6252L16.1113 19.617L16.0864 19.6031L16.0861 19.5748L16.0841 19.3916L16.0837 19.3625L16.11 19.3484L16.1554 19.3236L16.1642 19.319L16.1746 19.318C16.2894 19.3071 16.4042 19.3008 16.519 19.2998C16.6352 19.2988 16.75 19.3031 16.8638 19.3127L16.8938 19.3153L16.9055 19.3424L16.9321 19.4031L16.982 19.4682L16.9907 19.4797L16.9921 19.4936L16.9995 19.5751V19.5754V19.5797L16.9971 19.8609L16.9968 19.92L16.9379 19.9087L16.6763 19.8592L16.3285 19.8635L16.3278 19.8632Z" fill="white"/>
<path fill-rule="evenodd" clip-rule="evenodd" d="M8.4812 22.1015L14.6603 22.0374L14.6809 22.2493L8.55123 22.2774C8.52732 22.2189 8.50443 22.1602 8.4812 22.1011V22.1015ZM8.7135 22.6579L14.6469 22.5836L14.6738 22.7945L8.79565 22.8401C8.7677 22.7797 8.74077 22.7189 8.7135 22.6579Z" fill="white"/>
<path fill-rule="evenodd" clip-rule="evenodd" d="M13.271 21.843L14.28 21.845L14.2823 20.5566L13.2734 20.5546L13.271 21.843ZM13.3966 21.3414L13.7272 21.3421L13.7285 20.6632L13.3976 20.6625L13.3966 21.3411V21.3414ZM13.3966 21.7325L13.7245 21.7331L13.7248 21.4589L13.3972 21.4582L13.3966 21.7325ZM13.8262 21.3414L14.1568 21.3421L14.1578 20.6632L13.8272 20.6625L13.8262 21.3411V21.3414ZM13.8262 21.7325L14.1537 21.7331L14.1541 21.4589L13.8265 21.4582L13.8262 21.7325Z" fill="white"/>
<path d="M21.0649 17.1249C21.0451 17.1233 21.0252 17.1223 21.0047 17.1223V17.1226V17.1223C20.8 17.122 20.6145 17.2028 20.4801 17.3342C20.3458 17.4652 20.2627 17.6467 20.2623 17.847C20.262 18.0474 20.3445 18.2292 20.4785 18.3609C20.6121 18.4926 20.7973 18.5741 21.0016 18.5744C21.0232 18.5744 21.044 18.5734 21.0649 18.5718V18.7226C21.044 18.7239 21.0228 18.7249 21.0016 18.7246C20.7545 18.7243 20.5313 18.6256 20.3697 18.4668C20.2081 18.3081 20.1085 18.0886 20.1091 17.8467C20.1098 17.6045 20.2101 17.3853 20.3721 17.2272C20.534 17.0692 20.7579 16.9715 21.0047 16.9718V16.9715V16.9718C21.0249 16.9718 21.0451 16.9725 21.0649 16.9738V17.1246V17.1249Z" fill="white"/>
<path fill-rule="evenodd" clip-rule="evenodd" d="M19.9318 17.5998L15.8083 17.5985L15.8168 17.7216L15.9309 17.9011L15.9319 18.0546L16.2642 18.053V18.0955H16.4022V18.1444L16.4019 18.1936H16.4521L16.6716 18.1939H16.7217V18.1447V18.0955H16.9587L16.9584 18.1434V18.1926H17.0086L17.2277 18.1929H17.2779V18.1441V18.0955H17.5146V18.1464V18.1952H17.5644L17.7839 18.1959H17.8341V18.1467V18.0955H18.0095L18.0091 18.1457V18.1945L18.0593 18.1949L18.2788 18.1952H18.3286V18.146V18.0955H18.4801V18.1437V18.1929H18.5299L18.7494 18.1932H18.7993V18.1444L18.7996 18.0955H18.9528V18.1467L18.9525 18.1955H19.0026L19.2221 18.1959H19.2719V18.147L19.2723 18.0955H19.4184V18.1427L19.4181 18.1919H19.4682L19.6877 18.1922H19.7376V18.1431V18.0955H19.8086H19.8581L19.9318 17.5998Z" fill="white"/>
<path fill-rule="evenodd" clip-rule="evenodd" d="M11.6479 21.843L12.6569 21.845L12.6593 20.5566L11.6503 20.5546L11.6479 21.843ZM11.7735 21.3414L12.1041 21.3421L12.1051 20.6632L11.7745 20.6625L11.7735 21.3411V21.3414ZM11.7735 21.7325L12.1014 21.7331L12.1018 21.4589L11.7742 21.4582L11.7735 21.7325ZM12.2028 21.3414L12.5334 21.3421L12.5344 20.6632L12.2038 20.6625L12.2028 21.3411V21.3414ZM12.2028 21.7325L12.5307 21.7331L12.531 21.4589L12.2034 21.4582L12.2028 21.7325Z" fill="white"/>
<path fill-rule="evenodd" clip-rule="evenodd" d="M10.0369 21.843L11.0458 21.845L11.0482 20.5566L10.0392 20.5546L10.0369 21.843ZM10.1624 21.3414L10.493 21.3421L10.4941 20.6632L10.1635 20.6625L10.1624 21.3411V21.3414ZM10.1624 21.7325L10.49 21.7331L10.4907 21.4589L10.1628 21.4582L10.1624 21.7325ZM10.5917 21.3414L10.9223 21.3421L10.9233 20.6632L10.5927 20.6625L10.5917 21.3411V21.3414ZM10.5917 21.7325L10.9193 21.7331L10.9199 21.4589L10.592 21.4582L10.5917 21.7325Z" fill="white"/>
<path fill-rule="evenodd" clip-rule="evenodd" d="M8.38599 21.843L9.39497 21.845L9.39732 20.5566L8.38834 20.5546L8.38599 21.843ZM8.51156 21.3414L8.84217 21.3421L8.84318 20.6632L8.51257 20.6625L8.51156 21.3411V21.3414ZM8.51156 21.7325L8.83914 21.7331L8.83981 21.4589L8.5119 21.4582L8.51156 21.7325ZM8.94081 21.3414L9.27141 21.3421L9.27276 20.6632L8.94216 20.6625L8.94115 21.3411L8.94081 21.3414ZM8.94081 21.7325L9.26838 21.7331L9.26906 21.4589L8.94115 21.4582L8.94081 21.7325Z" fill="white"/>
<path fill-rule="evenodd" clip-rule="evenodd" d="M13.271 24.4658L14.28 24.4678L14.2823 23.1793L13.2734 23.1774L13.271 24.4658ZM13.3966 23.9641L13.7272 23.9648L13.7285 23.2859L13.3976 23.2853L13.3966 23.9638V23.9641ZM13.3966 24.3552L13.7245 24.3559L13.7248 24.0816L13.3972 24.081L13.3966 24.3552ZM13.8262 23.9641L14.1568 23.9648L14.1578 23.2859L13.8272 23.2853L13.8262 23.9638V23.9641ZM13.8262 24.3552L14.1537 24.3559L14.1541 24.0816L13.8265 24.081L13.8262 24.3552Z" fill="white"/>
<path fill-rule="evenodd" clip-rule="evenodd" d="M11.6479 24.4658L12.6569 24.4678L12.6593 23.1793L11.6503 23.1774L11.6479 24.4658ZM11.7735 23.9641L12.1041 23.9648L12.1051 23.2859L11.7745 23.2853L11.7735 23.9638V23.9641ZM11.7735 24.3552L12.1014 24.3559L12.1018 24.0816L11.7742 24.081L11.7735 24.3552ZM12.2028 23.9641L12.5334 23.9648L12.5344 23.2859L12.2038 23.2853L12.2028 23.9638V23.9641ZM12.2028 24.3552L12.5307 24.3559L12.531 24.0816L12.2034 24.081L12.2028 24.3552Z" fill="white"/>
<path fill-rule="evenodd" clip-rule="evenodd" d="M10.0369 24.4658L11.0458 24.4678L11.0482 23.1793L10.0392 23.1774L10.0369 24.4658ZM10.1624 23.9641L10.493 23.9648L10.4941 23.2859L10.1635 23.2853L10.1624 23.9638V23.9641ZM10.1624 24.3552L10.49 24.3559L10.4907 24.0816L10.1628 24.081L10.1624 24.3552ZM10.5917 23.9641L10.9223 23.9648L10.9233 23.2859L10.5927 23.2853L10.5917 23.9638V23.9641ZM10.5917 24.3552L10.9193 24.3559L10.9199 24.0816L10.592 24.081L10.5917 24.3552Z" fill="white"/>
<path fill-rule="evenodd" clip-rule="evenodd" d="M13.271 27.0394L14.28 27.0413L14.2823 25.7529L13.2734 25.7513L13.271 27.0397V27.0394ZM13.3966 26.5377L13.7272 26.5384L13.7285 25.8595L13.3976 25.8588L13.3966 26.5374V26.5377ZM13.3966 26.9288L13.7245 26.9295L13.7248 26.6552L13.3972 26.6545L13.3966 26.9288ZM13.8262 26.5377L14.1568 26.5384L14.1578 25.8595L13.8272 25.8588L13.8262 26.5374V26.5377ZM13.8262 26.9288L14.1537 26.9295L14.1541 26.6552L13.8265 26.6545L13.8262 26.9288Z" fill="white"/>
<path fill-rule="evenodd" clip-rule="evenodd" d="M11.888 27.0397L12.6573 27.041L12.6597 25.7526L11.6507 25.7509L11.6487 26.8166C11.7275 26.8918 11.8073 26.9664 11.888 27.0397ZM11.7739 26.5374L12.1045 26.5381L12.1055 25.8592L11.7749 25.8585L11.7739 26.5371V26.5374ZM11.7739 26.9285L12.1018 26.9291L12.1022 26.6549L11.7746 26.6542L11.7739 26.9285ZM12.2032 26.5374L12.5338 26.5381L12.5348 25.8592L12.2042 25.8585L12.2032 26.5371V26.5374ZM12.2032 26.9285L12.5311 26.9291L12.5314 26.6549L12.2038 26.6542L12.2032 26.9285Z" fill="white"/>
<path fill-rule="evenodd" clip-rule="evenodd" d="M24.7925 27.6671L24.805 27.5113L24.8629 27.474L24.9481 27.204L25.0188 27.1377L25.1029 19.6932L22.8429 19.6754L22.8065 19.7163L22.8341 19.7807L22.8267 19.85L22.9237 27.1397L23.0072 27.2047L23.0271 27.339L23.086 27.4965L23.1264 27.5087V27.6621L24.7922 27.6671H24.7925ZM24.5542 21.6064L24.5545 21.7942L24.3956 21.7945L24.3959 21.9031L24.2724 21.9034L24.272 21.7949L23.3742 21.7965L23.3745 21.9028H23.2583L23.258 21.7965L23.1169 21.7968L23.1166 21.609C23.5964 21.6081 24.0774 21.6071 24.5545 21.6064H24.5542ZM23.3024 21.5031L23.2997 19.9516L24.3188 19.9497L24.3215 21.5031H23.3024ZM24.5592 24.3664L24.5595 24.5546L24.4006 24.5549L24.401 24.6635L24.2774 24.6638L24.2771 24.5552L23.3789 24.5565L23.3792 24.6628L23.2631 24.6631L23.2627 24.5569L23.1213 24.5572L23.121 24.3691C23.6007 24.3684 24.0818 24.3674 24.5589 24.3664H24.5592ZM23.3078 24.2631L23.3048 22.7117L24.3239 22.71L24.3269 24.2631H23.3078ZM24.3323 27.0235L23.3132 27.0255L23.3102 25.506L24.3293 25.5041L24.3323 27.0235ZM21.811 27.6671L21.065 27.6684H21.0084H20.9519L20.2058 27.6671L20.2011 27.4908L20.1391 27.3394L20.1156 27.2057L20.0442 27.1413L19.952 23.4882L19.8718 19.8143L19.892 19.7959L19.8594 19.7018L19.8779 19.679L20.9512 19.6701V19.6691L21.0077 19.6695L21.0643 19.6691V19.6701L22.1372 19.679L22.1561 19.7018L22.1234 19.7959L22.1436 19.8143L22.0635 23.4882L21.9713 27.1413L21.9002 27.2057L21.8767 27.3394L21.8147 27.4908L21.8103 27.6671H21.811ZM21.065 27.512V27.5116L21.5659 27.5093L21.5717 25.5097L21.065 25.5084V25.508L21.0084 25.5084L20.9519 25.508V25.5084L20.4448 25.5097L20.4509 27.5093L20.9519 27.5116V27.512L21.0084 27.5116L21.065 27.512ZM21.065 24.5559L21.4834 24.5565V24.6628L21.5996 24.6631V24.5569L21.741 24.5572L21.7413 24.3691L21.065 24.3681L20.9519 24.3678L20.3034 24.3664L20.3028 24.5546L20.462 24.5549L20.4617 24.6635L20.5852 24.6638V24.5552L20.9515 24.5559H21.0646H21.065ZM21.065 24.2631H21.5302L21.5329 22.7117L21.065 22.711L20.9519 22.7107L20.5139 22.71L20.5108 24.2631H20.9519H21.065ZM21.065 21.7902L21.4834 21.7909V21.8972L21.5996 21.8975V21.7912H21.741L21.7413 21.6034L21.065 21.6024L20.9519 21.6021L20.3034 21.6011L20.3028 21.7892H20.462L20.4617 21.8982L20.5852 21.8985V21.7896L20.9515 21.7902L21.0646 21.7906L21.065 21.7902ZM21.065 21.4975H21.5302L21.5329 19.946L21.065 19.945H20.9519L20.5139 19.9444L20.5108 21.4975H20.9519H21.065ZM17.4627 21.6064L17.4623 21.7942L17.6212 21.7945L17.6209 21.9031L17.7445 21.9034L17.7448 21.7949L18.6427 21.7965L18.6423 21.9028H18.7585L18.7588 21.7965L18.8999 21.7968L18.9002 21.609C18.4205 21.6081 17.9394 21.6071 17.4623 21.6064H17.4627ZM18.7141 21.5031L18.7167 19.9516L17.6977 19.9497L17.6946 21.5031H18.7141ZM17.4573 24.3664L17.4569 24.5546L17.6159 24.5549L17.6155 24.6635L17.7391 24.6638L17.7394 24.5552L18.6373 24.5565V24.6628L18.7534 24.6631V24.5569L18.8948 24.5572L18.8952 24.3691C18.4154 24.3684 17.9343 24.3674 17.4573 24.3664ZM18.7087 24.2631L18.7117 22.7117L17.6926 22.71L17.6896 24.2631H18.7087ZM17.6842 27.0235L18.7033 27.0255L18.7063 25.506L17.6869 25.5041L17.6839 27.0235H17.6842ZM17.2243 27.6671L17.2119 27.5113L17.1536 27.474L17.0684 27.204L16.9977 27.1377L16.9136 19.6932L19.1736 19.6754L19.2103 19.7163L19.1824 19.7807L19.1898 19.85L19.0928 27.1397L19.0093 27.2047L18.9894 27.339L18.9305 27.4965L18.8901 27.5087L18.8898 27.6621L17.224 27.6671H17.2243Z" fill="white"/>
<path d="M22.7306 16.5952V16.5847L22.7303 16.5002H22.6444L20.952 16.5028V16.6718L22.5582 16.6695V16.68H22.6313V16.7645L23.3103 16.7629L23.309 16.7916L23.3053 16.8794H23.3952L25.6293 16.8797L25.6256 17.1305L25.6242 17.2167L25.7121 17.216L27.1853 17.2074L27.1941 17.7474L25.7548 17.7493L25.6683 17.7497L25.6687 17.8338L25.669 17.9619H22.2933V17.9457L22.1209 17.947L22.1219 18.0474L22.1226 18.1315H22.2081H25.6673L25.6707 18.347V18.348L25.671 18.4332H25.672L25.6791 18.8698L20.9517 18.8721V19.0411L25.742 19.0388L25.7555 19.3117L25.7596 19.3926L25.8417 19.3922L27.2968 19.387L27.3924 19.3879L27.3065 19.5018L27.2907 19.5229V19.5252L25.835 19.5233V19.6863L25.7488 19.6876L25.8693 27.0895H24.9122V27.1875H25.8834L25.8972 27.2004L25.9161 27.2176L24.8132 27.2166V27.2908H24.7873V27.3889L25.9848 27.3912L25.9979 27.4932L26.0057 27.5529L26.0656 27.5654L26.0939 27.5714L26.0986 27.6694L26.1023 27.7502L26.1851 27.7499L28.0213 27.7417L29.2548 27.771C29.3191 27.7219 29.3827 27.6717 29.446 27.6212L28.2438 27.6073L27.489 27.4813L27.3904 19.682L27.458 19.6711L27.4607 19.6018L27.4614 19.582L27.5614 19.4493L27.5775 19.4279L27.5782 19.4011L27.5806 19.3071L27.5826 19.2216L27.4951 19.2206L27.3823 19.2193L27.3786 19.019L34.3179 19.0137C34.325 18.9573 34.3313 18.9012 34.3374 18.8447L27.3752 18.8503L27.3742 18.8005L27.6614 18.3853L27.6748 18.3658L27.6762 18.3427L27.6846 18.1936L27.8613 17.8678L27.9297 17.7424L27.7846 17.7437L27.3668 17.7474L27.3584 17.2276L27.3967 17.1685L27.4819 17.0378L27.3237 17.0388L25.7993 17.0477L25.802 16.882L25.8282 16.8447L25.9228 16.7117H25.7572L23.5103 16.7114L23.6123 16.5942L23.4248 16.5946L22.7303 16.5962L22.7306 16.5952ZM28.0388 28.5997L20.952 28.5905V28.7595L27.7519 28.7684C27.8482 28.7133 27.9438 28.6572 28.0388 28.5997ZM23.1615 27.2159L21.7465 27.213V27.2899H21.7294V27.3879H23.1753V27.2899H23.1615V27.2156V27.2159ZM23.045 27.0912L21.8482 27.0925V27.1905L23.045 27.1892V27.0912ZM27.2062 19.0186L27.2099 19.2183L25.9242 19.2229L25.9124 18.9846L25.91 18.9391L25.87 18.9157L25.8521 18.9054L25.8447 18.4322L27.427 18.4226L27.2166 18.7272L27.2011 18.7493L27.2015 18.7757L27.2042 18.9351L27.2055 19.0183L27.2062 19.0186ZM27.2183 19.6939L27.318 27.5532L27.3183 27.5753L26.2679 27.58L26.2639 27.4978L26.2608 27.4328L26.1959 27.4189L26.1622 27.412L26.1366 27.2143L26.1326 27.1839L26.11 27.1631L26.0424 27.1007L25.9215 19.6919L27.2183 19.6936V19.6939ZM25.1297 19.3431L22.8114 19.32L22.81 19.4889L25.1283 19.512L25.1297 19.3431ZM22.1222 19.3176L20.9527 19.3104L20.952 19.4794L22.1216 19.4866L22.1222 19.3176ZM27.5092 18.253L25.8437 18.2629L25.8424 17.918L27.1978 17.9163V17.917L27.2833 17.9163L27.6412 17.913L27.5237 18.1292L27.5149 18.1454L27.5139 18.1645L27.5089 18.2533L27.5092 18.253Z" fill="white"/>
<path d="M22.0723 19.3946L22.0527 19.4639L22.051 19.4695V19.4757L22.0463 19.6266L22.0457 19.6447L22.0574 19.6589L22.1009 19.712L22.077 19.7807L22.0665 19.8107L22.0904 19.8325L22.1106 19.851L22.1271 19.8658L22.149 19.8639L22.3449 19.8477L22.6156 19.845L22.8143 19.8982L22.8708 19.9134L22.8769 19.8559L22.8843 19.7866L22.8856 19.7741L22.8806 19.7625L22.8648 19.7266L22.9169 19.6681L22.9291 19.6546L22.9294 19.6365L22.9318 19.4906L22.9321 19.4724L22.9203 19.4586L22.853 19.3787L22.823 19.3124L22.8109 19.2856L22.7809 19.2837C22.6779 19.2767 22.5756 19.2744 22.4722 19.2757C22.3685 19.2771 22.2658 19.2817 22.1605 19.2883L22.1339 19.2899L22.1204 19.3127L22.0776 19.3843L22.0746 19.3896L22.0729 19.3962L22.0723 19.3946ZM22.1507 19.4843L22.1669 19.4272L22.1931 19.3833C22.2897 19.3777 22.3827 19.3738 22.4732 19.3724C22.5628 19.3715 22.652 19.3731 22.7439 19.3787L22.7648 19.4243L22.7678 19.4309L22.7718 19.4358L22.8318 19.5068L22.8301 19.6167L22.7691 19.685L22.7483 19.7081L22.7607 19.7365L22.7833 19.7883L22.6352 19.7487L22.6284 19.747H22.6217L22.3406 19.75H22.3369L22.1897 19.7622L22.2049 19.7183L22.2136 19.6929L22.1965 19.6718L22.1473 19.6117L22.1514 19.485L22.1507 19.4843ZM25.7887 19.7903L25.7112 19.7675L25.7049 19.7655H25.6974L25.3369 19.7612H25.3315L25.3271 19.7622L25.1197 19.8015L25.1177 19.5833L25.1238 19.516L25.1689 19.4573L25.1729 19.452L25.1753 19.447L25.1921 19.4084C25.2951 19.4005 25.3968 19.3972 25.4975 19.3982C25.6055 19.3988 25.7139 19.4048 25.8227 19.4147L25.8331 19.4203L25.8318 19.5457L25.8166 19.5543L25.7914 19.5682L25.791 19.5965L25.7894 19.7903H25.7887ZM25.6887 19.8632L25.8234 19.9031L25.887 19.9219L25.8877 19.8563L25.89 19.6252L25.9052 19.617L25.9304 19.6031L25.9308 19.5748L25.9328 19.3916L25.9331 19.3625L25.9068 19.3484L25.8614 19.3236L25.8526 19.319L25.8419 19.318C25.7274 19.3071 25.6126 19.3008 25.4975 19.2998C25.3813 19.2988 25.2665 19.3031 25.1527 19.3127L25.1228 19.3153L25.111 19.3424L25.0844 19.4031L25.0346 19.4682L25.0258 19.4797L25.0245 19.4936L25.017 19.5751V19.5754V19.5797L25.0194 19.8609L25.0197 19.92L25.0787 19.9087L25.3402 19.8592L25.688 19.8635L25.6887 19.8632Z" fill="white"/>
<path d="M27.3746 19.5157L34.2311 19.5173V19.682L27.3746 19.6807V19.516V19.5157ZM34.1506 20.1071L27.3072 20.0209L27.3093 19.8562L34.1526 19.9424L34.1506 20.1071ZM7.86491 19.9424L14.7083 19.8562L14.7103 20.0209L7.86693 20.1071L7.86491 19.9424ZM14.6426 19.6807L7.78613 19.682V19.5173L14.6426 19.5157V19.6803V19.6807Z" fill="white"/>
<path fill-rule="evenodd" clip-rule="evenodd" d="M33.5358 22.1015L27.3567 22.0374L27.3362 22.2493L33.4658 22.2774C33.4897 22.2189 33.5126 22.1602 33.5358 22.1011V22.1015ZM33.3035 22.6579L27.3702 22.5836L27.3433 22.7945L33.2214 22.8401C33.2493 22.7797 33.2763 22.7189 33.3035 22.6579Z" fill="white"/>
<path fill-rule="evenodd" clip-rule="evenodd" d="M28.7457 21.843L27.7367 21.845L27.7344 20.5566L28.7437 20.5546L28.746 21.843H28.7457ZM28.6201 21.3414L28.2895 21.3421L28.2885 20.6632L28.6191 20.6625L28.6201 21.3411V21.3414ZM28.6201 21.7325L28.2922 21.7331L28.2919 21.4589L28.6198 21.4582L28.6201 21.7325ZM28.1909 21.3414L27.8603 21.3421L27.8593 20.6632L28.1899 20.6625L28.1909 21.3411V21.3414ZM28.1909 21.7325L27.8633 21.7331L27.8626 21.4589L28.1906 21.4582L28.1909 21.7325Z" fill="white"/>
<path d="M20.952 17.1249C20.9719 17.1233 20.9921 17.1223 21.0123 17.1223V17.1226V17.1223C21.217 17.122 21.4021 17.2028 21.5364 17.3342C21.6708 17.4652 21.7539 17.6467 21.7543 17.847C21.7546 18.0474 21.6721 18.2292 21.5381 18.3609C21.4045 18.4926 21.2193 18.5741 21.015 18.5744C20.9934 18.5744 20.9725 18.5734 20.9517 18.5718V18.7226C20.9725 18.7239 20.9937 18.7249 21.015 18.7246C21.2621 18.7243 21.4856 18.6256 21.6469 18.4668C21.8081 18.3081 21.9078 18.0886 21.9074 17.8467C21.9071 17.6045 21.8064 17.3853 21.6445 17.2272C21.4826 17.0692 21.2587 16.9715 21.0119 16.9718V16.9715V16.9718C20.9917 16.9718 20.9715 16.9725 20.9517 16.9738V17.1246L20.952 17.1249Z" fill="white"/>
<path fill-rule="evenodd" clip-rule="evenodd" d="M22.0847 17.5998L26.2085 17.5985L26.2001 17.7216L26.086 17.9011L26.085 18.0546L25.7523 18.053V18.0955H25.6146V18.1444V18.1936H25.5648L25.345 18.1939H25.2951V18.1447V18.0955H25.0581L25.0585 18.1434V18.1926H25.0083L24.7888 18.1929H24.739V18.1441V18.0955H24.502L24.5023 18.1464V18.1952H24.4521L24.2326 18.1959H24.1828V18.1467V18.0955H24.0074L24.0077 18.1457V18.1945L23.9576 18.1949L23.7381 18.1952H23.6882V18.146L23.6879 18.0955H23.5367V18.1437V18.1929H23.4869L23.2674 18.1932H23.2176L23.2173 18.1444V18.0955H23.0641V18.1467L23.0644 18.1955H23.0142L22.7947 18.1959H22.7449L22.7446 18.147V18.0955H22.5985V18.1427V18.1919H22.5486L22.3291 18.1922H22.2793V18.1431L22.279 18.0955H22.2083H22.1588L22.0847 17.5998Z" fill="white"/>
<path fill-rule="evenodd" clip-rule="evenodd" d="M30.3688 21.843L29.3598 21.845L29.3574 20.5566L30.3664 20.5546L30.3688 21.843ZM30.2432 21.3414L29.9126 21.3421L29.9116 20.6632L30.2422 20.6625L30.2432 21.3411V21.3414ZM30.2432 21.7325L29.9156 21.7331L29.9149 21.4589L30.2429 21.4582L30.2432 21.7325ZM29.8139 21.3414L29.4833 21.3421L29.482 20.6632L29.8126 20.6625L29.8136 21.3411L29.8139 21.3414ZM29.8139 21.7325L29.4864 21.7331L29.4857 21.4589L29.8136 21.4582L29.8139 21.7325Z" fill="white"/>
<path fill-rule="evenodd" clip-rule="evenodd" d="M31.9801 21.843L30.9711 21.845L30.9688 20.5566L31.9777 20.5546L31.9801 21.843ZM31.8542 21.3414L31.5236 21.3421L31.5222 20.6632L31.8532 20.6625L31.8542 21.3411V21.3414ZM31.8542 21.7325L31.5266 21.7331L31.5263 21.4589L31.8538 21.4582L31.8542 21.7325ZM31.4249 21.3414L31.0943 21.3421L31.0933 20.6632L31.4239 20.6625L31.4249 21.3411V21.3414ZM31.4249 21.7325L31.097 21.7331L31.0967 21.4589L31.4243 21.4582L31.4249 21.7325Z" fill="white"/>
<path fill-rule="evenodd" clip-rule="evenodd" d="M33.631 21.843L32.622 21.845L32.6196 20.5566L33.6286 20.5546L33.631 21.843ZM33.5054 21.3414L33.1748 21.3421L33.1738 20.6632L33.5044 20.6625L33.5054 21.3411V21.3414ZM33.5054 21.7325L33.1775 21.7331L33.1771 21.4589L33.5047 21.4582L33.5054 21.7325ZM33.0761 21.3414L32.7455 21.3421L32.7445 20.6632L33.0751 20.6625L33.0761 21.3411V21.3414ZM33.0761 21.7325L32.7482 21.7331L32.7479 21.4589L33.0755 21.4582L33.0761 21.7325Z" fill="white"/>
<path fill-rule="evenodd" clip-rule="evenodd" d="M28.7457 24.4658L27.7367 24.4678L27.7344 23.1793L28.7437 23.1774L28.746 24.4658H28.7457ZM28.6201 23.9641L28.2895 23.9648L28.2885 23.2859L28.6191 23.2853L28.6201 23.9638V23.9641ZM28.6201 24.3552L28.2922 24.3559L28.2919 24.0816L28.6198 24.081L28.6201 24.3552ZM28.1909 23.9641L27.8603 23.9648L27.8593 23.2859L28.1899 23.2853L28.1909 23.9638V23.9641ZM28.1909 24.3552L27.8633 24.3559L27.8626 24.0816L28.1906 24.081L28.1909 24.3552Z" fill="white"/>
<path fill-rule="evenodd" clip-rule="evenodd" d="M30.3688 24.4658L29.3598 24.4678L29.3574 23.1793L30.3664 23.1774L30.3688 24.4658ZM30.2432 23.9641L29.9126 23.9648L29.9116 23.2859L30.2422 23.2853L30.2432 23.9638V23.9641ZM30.2432 24.3552L29.9156 24.3559L29.9149 24.0816L30.2429 24.081L30.2432 24.3552ZM29.8139 23.9641L29.4833 23.9648L29.482 23.2859L29.8126 23.2853L29.8136 23.9638L29.8139 23.9641ZM29.8139 24.3552L29.4864 24.3559L29.4857 24.0816L29.8136 24.081L29.8139 24.3552Z" fill="white"/>
<path fill-rule="evenodd" clip-rule="evenodd" d="M31.9801 24.4658L30.9711 24.4678L30.9688 23.1793L31.9777 23.1774L31.9801 24.4658ZM31.8542 23.9641L31.5236 23.9648L31.5222 23.2859L31.8532 23.2853L31.8542 23.9638V23.9641ZM31.8542 24.3552L31.5266 24.3559L31.5263 24.0816L31.8538 24.081L31.8542 24.3552ZM31.4249 23.9641L31.0943 23.9648L31.0933 23.2859L31.4239 23.2853L31.4249 23.9638V23.9641ZM31.4249 24.3552L31.097 24.3559L31.0967 24.0816L31.4243 24.081L31.4249 24.3552Z" fill="white"/>
<path fill-rule="evenodd" clip-rule="evenodd" d="M28.7457 27.0394L27.7367 27.0413L27.7344 25.7529L28.7437 25.7513L28.746 27.0397L28.7457 27.0394ZM28.6201 26.5377L28.2895 26.5384L28.2885 25.8595L28.6191 25.8588L28.6201 26.5374V26.5377ZM28.6201 26.9288L28.2922 26.9295L28.2919 26.6552L28.6198 26.6545L28.6201 26.9288ZM28.1909 26.5377L27.8603 26.5384L27.8593 25.8595L28.1899 25.8588L28.1909 26.5374V26.5377ZM28.1909 26.9288L27.8633 26.9295L27.8626 26.6552L28.1906 26.6545L28.1909 26.9288Z" fill="white"/>
<path fill-rule="evenodd" clip-rule="evenodd" d="M30.1291 27.0397L29.3598 27.041L29.3574 25.7526L30.3664 25.7509L30.3684 26.8166C30.2896 26.8918 30.2099 26.9664 30.1291 27.0397ZM30.2432 26.5374L29.9126 26.5381L29.9116 25.8592L30.2422 25.8585L30.2432 26.5371V26.5374ZM30.2432 26.9285L29.9156 26.9291L29.9149 26.6549L30.2429 26.6542L30.2432 26.9285ZM29.8139 26.5374L29.4833 26.5381L29.482 25.8592L29.8126 25.8585L29.8136 26.5371L29.8139 26.5374ZM29.8139 26.9285L29.4864 26.9291L29.4857 26.6549L29.8136 26.6542L29.8139 26.9285Z" fill="white"/>
<path d="M17.8991 6.59763H20.2611C20.7251 6.59763 21.0802 6.70489 21.3267 6.92073C21.5728 7.13656 21.6953 7.40752 21.6953 7.73293C21.6953 8.0052 21.6095 8.23524 21.4374 8.42566C21.2647 8.61477 21.0058 8.76526 20.6601 8.87483C21.0887 8.96988 21.4102 9.12038 21.625 9.324C21.8398 9.52862 21.9465 9.78638 21.9465 10.0986C21.9465 10.3365 21.8855 10.5478 21.7643 10.7316C21.6428 10.9164 21.4398 11.0712 21.1567 11.1996C20.8739 11.3266 20.5524 11.391 20.1928 11.391H17.8988V11.1454H18.2718C18.3839 11.1454 18.4667 11.1253 18.5189 11.0867C18.5704 11.0481 18.5963 11.0039 18.5963 10.954V7.11874C18.5963 7.02798 18.5711 6.95934 18.5199 6.9128C18.4684 6.86627 18.3943 6.84317 18.2967 6.84317H17.8984V6.59763H17.8991ZM19.2505 8.79497H20.1083C20.3722 8.79497 20.5816 8.71312 20.7379 8.55041C20.8941 8.38771 20.9725 8.12104 20.9725 7.75042C20.9725 7.52039 20.9348 7.34118 20.8604 7.2128C20.786 7.08442 20.6783 6.99036 20.5359 6.93195C20.3945 6.8732 20.1484 6.8435 19.7992 6.8435C19.5521 6.8435 19.3979 6.86231 19.3394 6.89993C19.2794 6.93756 19.2501 7.0029 19.2501 7.09795V8.7953L19.2505 8.79497ZM19.2505 9.04051V10.886C19.2505 10.9722 19.2747 11.0365 19.3229 11.0798C19.371 11.123 19.4569 11.1451 19.5818 11.1451H20.1315C20.4951 11.1451 20.7641 11.06 20.9382 10.8907C21.1119 10.7214 21.1991 10.458 21.1991 10.0996C21.1991 9.77087 21.1089 9.51311 20.9287 9.324C20.7486 9.1349 20.5002 9.04084 20.183 9.04084H19.2508L19.2505 9.04051Z" fill="white"/>
<path d="M20.864 11.3048V13.648C20.864 13.9312 20.8872 14.1447 20.9344 14.2886C21.0044 14.5022 21.1313 14.6728 21.3155 14.7999C21.501 14.9272 21.7417 14.9913 22.0403 14.9913C22.4531 14.9913 22.7675 14.8784 22.984 14.6527C23.2008 14.4282 23.3089 14.1259 23.3089 13.7487V11.55C23.3089 11.3563 23.2961 11.2091 23.2701 11.1085C23.2449 11.0088 23.2082 10.9302 23.1601 10.8738C23.1129 10.8174 23.0523 10.7765 22.9789 10.7497C22.9045 10.722 22.783 10.7088 22.6113 10.7088V10.4633H24.3209V10.7088H24.1983C24.0064 10.7088 23.864 10.7629 23.7697 10.8725C23.6765 10.9811 23.6294 11.1392 23.6294 11.3461V13.6985C23.6294 14.2121 23.49 14.6058 23.2126 14.8804C22.8995 15.189 22.4834 15.3428 21.9639 15.3428C21.5144 15.3428 21.1606 15.2751 20.9037 15.1401C20.6462 15.0051 20.4587 14.8114 20.3422 14.5593C20.2543 14.3678 20.2102 14.1253 20.2102 13.8345V11.3903C20.4442 11.389 20.6623 11.3603 20.864 11.3042V11.3048Z" fill="white"/>
<path fill-rule="evenodd" clip-rule="evenodd" d="M17.9321 34.9891H17.9325C19.5643 34.7538 20.5749 34.0558 21.0766 32.9786C21.5782 34.0558 22.5889 34.7538 24.2207 34.9891H24.221H24.2207C22.5889 35.2244 21.5782 35.9225 21.0766 36.9997C20.5749 35.9225 19.5643 35.2244 17.9325 34.9891H17.9321Z" fill="white"/>
<path fill-rule="evenodd" clip-rule="evenodd" d="M10.7783 35.6373C12.967 36.6601 14.6301 36.365 15.6434 34.4409C13.6847 33.9584 12.0593 34.3472 10.7783 35.6373Z" fill="white"/>
<path fill-rule="evenodd" clip-rule="evenodd" d="M7.80347 33.607C9.64973 34.972 11.2216 34.9522 12.4545 33.2198C10.7338 32.4251 9.18177 32.5433 7.80347 33.607Z" fill="white"/>
<path fill-rule="evenodd" clip-rule="evenodd" d="M5.11255 30.8354C6.61171 32.5614 8.15027 32.8773 9.73797 31.4492C8.23511 30.3067 6.69352 30.0912 5.11255 30.8354Z" fill="white"/>
<path fill-rule="evenodd" clip-rule="evenodd" d="M2.86743 27.8245C4.05013 29.7723 5.51294 30.3367 7.3225 29.1898C6.03611 27.8163 4.55344 27.3509 2.86743 27.8245Z" fill="white"/>
<path fill-rule="evenodd" clip-rule="evenodd" d="M1.10449 24.3265C2.28719 26.2743 3.61466 27.6945 5.42389 26.5476C4.67986 25.3153 2.7905 23.8529 1.10449 24.3265Z" fill="white"/>
<path fill-rule="evenodd" clip-rule="evenodd" d="M0.307617 20.7206C0.889372 22.4113 1.61219 24.3701 4.06781 23.54C3.32379 22.3077 1.99363 20.247 0.307617 20.7206Z" fill="white"/>
<path fill-rule="evenodd" clip-rule="evenodd" d="M0 17.0154C0.257211 18.7708 0.747394 20.5698 3.17205 20.4236C2.87343 19.1005 1.7456 16.7761 0 17.0154Z" fill="white"/>
<path fill-rule="evenodd" clip-rule="evenodd" d="M0.433198 13.3025C0.366539 15.0748 0.521404 16.9309 2.93394 17.2111C2.88108 15.857 2.19462 13.3728 0.433198 13.3025Z" fill="white"/>
<path fill-rule="evenodd" clip-rule="evenodd" d="M1.48121 9.724C1.13074 11.4639 0.985302 13.3207 3.32276 13.9698C3.48806 12.6243 3.2093 10.0653 1.48121 9.724Z" fill="white"/>
<path fill-rule="evenodd" clip-rule="evenodd" d="M3.35069 6.30951C2.64336 7.94184 2.11211 9.72961 4.26372 10.8355C4.70745 9.55205 4.97072 6.99135 3.35069 6.30951Z" fill="white"/>
<path fill-rule="evenodd" clip-rule="evenodd" d="M5.84658 3.42209C4.79215 4.863 3.87508 6.49401 5.72774 8.03426C6.44685 6.87684 7.27505 4.43462 5.84658 3.42209Z" fill="white"/>
<path fill-rule="evenodd" clip-rule="evenodd" d="M11.0695 3.16597C10.3339 2.92043 7.25881 3.91844 7.51265 6.28707C8.87345 6.20324 10.3632 5.18972 11.0695 3.16597Z" fill="white"/>
<path fill-rule="evenodd" clip-rule="evenodd" d="M10.4056 7.56065C9.08558 8.5745 7.97055 9.21443 6.17041 8.18836C6.80367 7.02699 8.78427 6.26429 10.4056 7.56065Z" fill="white"/>
<path fill-rule="evenodd" clip-rule="evenodd" d="M8.78114 9.57021C7.70953 10.8349 6.75745 11.691 4.77686 11.061C5.1455 9.79463 6.91703 8.63886 8.78114 9.57021Z" fill="white"/>
<path fill-rule="evenodd" clip-rule="evenodd" d="M7.44797 11.9299C6.5979 13.3471 5.79899 14.3424 3.74097 14.0335C3.89684 12.7253 5.45526 11.3052 7.44797 11.9299Z" fill="white"/>
<path fill-rule="evenodd" clip-rule="evenodd" d="M6.651 14.4814C6.07194 16.052 5.46628 17.189 3.38503 17.2196C3.30086 15.8744 4.57648 14.1827 6.651 14.4814Z" fill="white"/>
<path fill-rule="evenodd" clip-rule="evenodd" d="M6.36473 17.1889C6.04321 18.8289 5.62609 20.0447 3.57479 20.3935C3.27718 19.0777 4.26798 17.2117 6.36473 17.1889Z" fill="white"/>
<path fill-rule="evenodd" clip-rule="evenodd" d="M6.51434 19.7539C6.48943 21.4239 6.29518 22.6922 4.33748 23.3866C3.81026 22.142 4.45362 20.1348 6.51434 19.7539Z" fill="white"/>
<path fill-rule="evenodd" clip-rule="evenodd" d="M7.04814 22.2203C7.44203 23.845 7.57098 25.1212 5.84692 26.2651C5.02411 25.1853 5.14565 23.0849 7.04814 22.2203Z" fill="white"/>
<path fill-rule="evenodd" clip-rule="evenodd" d="M8.08187 24.6608C8.76665 26.1902 9.12688 27.4232 7.64017 28.8515C6.63321 27.9337 6.36859 25.846 8.08187 24.6608Z" fill="white"/>
<path fill-rule="evenodd" clip-rule="evenodd" d="M9.70636 26.8344C10.6517 28.2238 11.2254 29.3763 10.0147 31.0364C8.86066 30.3043 8.22942 28.2935 9.70636 26.8344Z" fill="white"/>
<path fill-rule="evenodd" clip-rule="evenodd" d="M11.6204 28.708C12.8044 29.9086 13.5797 30.9416 12.692 32.7878C11.4224 32.2703 10.434 30.403 11.6204 28.708Z" fill="white"/>
<path fill-rule="evenodd" clip-rule="evenodd" d="M13.9469 30.0373C15.332 31.238 16.2797 32.2713 15.701 34.1172C14.294 33.8248 13.005 31.9063 13.9469 30.0373Z" fill="white"/>
<path fill-rule="evenodd" clip-rule="evenodd" d="M31.2216 35.6373C29.0329 36.6601 27.3698 36.365 26.3564 34.4409C28.3152 33.9584 29.9406 34.3472 31.2216 35.6373Z" fill="white"/>
<path fill-rule="evenodd" clip-rule="evenodd" d="M34.1962 33.607C32.3499 34.972 30.778 34.9522 29.5452 33.2198C31.2659 32.4251 32.8179 32.5433 34.1962 33.607Z" fill="white"/>
<path fill-rule="evenodd" clip-rule="evenodd" d="M36.8876 30.8354C35.3885 32.5614 33.8499 32.8773 32.2622 31.4492C33.7651 30.3067 35.3067 30.0912 36.8876 30.8354Z" fill="white"/>
<path fill-rule="evenodd" clip-rule="evenodd" d="M39.1326 27.8245C37.9499 29.7723 36.4867 30.3367 34.6775 29.1898C35.9639 27.8163 37.4465 27.3509 39.1326 27.8245Z" fill="white"/>
<path fill-rule="evenodd" clip-rule="evenodd" d="M40.8956 24.3265C39.7129 26.2743 38.3854 27.6945 36.5762 26.5476C37.3199 25.3153 39.2096 23.8529 40.8956 24.3265Z" fill="white"/>
<path fill-rule="evenodd" clip-rule="evenodd" d="M41.6921 20.7206C41.1103 22.4113 40.3875 24.3701 37.9319 23.54C38.6759 22.3077 40.0061 20.247 41.6921 20.7206Z" fill="white"/>
<path fill-rule="evenodd" clip-rule="evenodd" d="M41.9999 17.0154C41.7427 18.7708 41.2525 20.5698 38.8279 20.4236C39.1265 19.1005 40.2543 16.7761 41.9999 17.0154Z" fill="white"/>
<path fill-rule="evenodd" clip-rule="evenodd" d="M41.5667 13.3025C41.6333 15.0748 41.4785 16.9309 39.0659 17.2111C39.1188 15.857 39.8052 13.3728 41.5667 13.3025Z" fill="white"/>
<path fill-rule="evenodd" clip-rule="evenodd" d="M40.5189 9.724C40.8694 11.4639 41.0148 13.3207 38.6774 13.9698C38.5121 12.6243 38.7908 10.0653 40.5189 9.724Z" fill="white"/>
<path fill-rule="evenodd" clip-rule="evenodd" d="M38.6491 6.30951C39.3564 7.94184 39.8877 9.72961 37.7361 10.8355C37.2923 9.55205 37.0294 6.99135 38.6491 6.30951Z" fill="white"/>
<path fill-rule="evenodd" clip-rule="evenodd" d="M36.1532 3.42209C37.2077 4.863 38.1247 6.49401 36.2721 8.03426C35.5529 6.87684 34.7248 4.43462 36.1532 3.42209Z" fill="white"/>
<path fill-rule="evenodd" clip-rule="evenodd" d="M30.9304 3.16597C31.666 2.92043 34.7411 3.91844 34.4873 6.28707C33.1261 6.20324 31.6367 5.18972 30.9304 3.16597Z" fill="white"/>
<path fill-rule="evenodd" clip-rule="evenodd" d="M31.5942 7.56065C32.9143 8.5745 34.0293 9.21443 35.8295 8.18836C35.1962 7.02699 33.2156 6.26429 31.5942 7.56065Z" fill="white"/>
<path fill-rule="evenodd" clip-rule="evenodd" d="M33.2188 9.57021C34.2904 10.8349 35.2424 11.691 37.223 11.061C36.8544 9.79463 35.0829 8.63886 33.2188 9.57021Z" fill="white"/>
<path fill-rule="evenodd" clip-rule="evenodd" d="M34.5518 11.9299C35.4018 13.3471 36.2007 14.3424 38.2588 14.0335C38.1029 12.7253 36.5445 11.3052 34.5518 11.9299Z" fill="white"/>
<path fill-rule="evenodd" clip-rule="evenodd" d="M35.3486 14.4814C35.9277 16.052 36.5334 17.189 38.6146 17.2196C38.6988 15.8744 37.4232 14.1827 35.3486 14.4814Z" fill="white"/>
<path fill-rule="evenodd" clip-rule="evenodd" d="M35.6353 17.1889C35.9571 18.8289 36.3739 20.0447 38.4252 20.3935C38.7228 19.0777 37.732 17.2117 35.6353 17.1889Z" fill="white"/>
<path fill-rule="evenodd" clip-rule="evenodd" d="M35.4854 19.7539C35.5103 21.4239 35.7045 22.6922 37.6622 23.3866C38.1894 22.142 37.5461 20.1348 35.4854 19.7539Z" fill="white"/>
<path fill-rule="evenodd" clip-rule="evenodd" d="M34.9517 22.2203C34.5578 23.845 34.4288 25.1212 36.1529 26.2651C36.9754 25.1853 36.8538 23.0849 34.9517 22.2203Z" fill="white"/>
<path fill-rule="evenodd" clip-rule="evenodd" d="M33.918 24.6608C33.2332 26.1902 32.873 27.4232 34.3597 28.8515C35.3666 27.9337 35.6312 25.846 33.918 24.6608Z" fill="white"/>
<path fill-rule="evenodd" clip-rule="evenodd" d="M32.2935 26.8344C31.3481 28.2238 30.7745 29.3763 31.9851 31.0364C33.1395 30.3043 33.7704 28.2935 32.2935 26.8344Z" fill="white"/>
<path fill-rule="evenodd" clip-rule="evenodd" d="M30.3798 28.708C29.1958 29.9086 28.4208 30.9416 29.3082 32.7878C30.5778 32.2703 31.5663 30.403 30.3798 28.708Z" fill="white"/>
<path fill-rule="evenodd" clip-rule="evenodd" d="M28.0529 30.0373C26.6678 31.238 25.7201 32.2713 26.2988 34.1172C27.7057 33.8248 28.9948 31.9063 28.0529 30.0373Z" fill="white"/>
<path fill-rule="evenodd" clip-rule="evenodd" d="M14.1528 1.55642L14.178 1.39471L14.2827 1.34817L14.5514 1.91219L14.447 1.9584C14.3265 1.80889 14.2107 1.7155 14.0999 1.67886C13.9892 1.6419 13.8845 1.64586 13.7845 1.69008C13.702 1.72672 13.6454 1.78051 13.6158 1.85147C13.5859 1.92176 13.5869 1.99173 13.6185 2.06038C13.6387 2.10427 13.666 2.1376 13.7 2.16071C13.7343 2.18414 13.7757 2.19701 13.8252 2.20031C13.8747 2.20295 13.9626 2.19107 14.0892 2.16434C14.273 2.12572 14.408 2.11021 14.4942 2.11648C14.5804 2.12341 14.6541 2.14751 14.7154 2.18975C14.7763 2.23166 14.8244 2.29074 14.8595 2.36665C14.9224 2.50295 14.9278 2.63694 14.8749 2.76829C14.8224 2.89964 14.7224 2.99832 14.575 3.064C14.4161 3.1343 14.2619 3.14453 14.1114 3.09436L14.0683 3.27621L13.9646 3.32208L13.6879 2.72242L13.7996 2.67291C13.9037 2.82209 14.0222 2.91846 14.1558 2.96334C14.2891 3.00822 14.414 3.00459 14.5302 2.95311C14.6231 2.91186 14.6864 2.85179 14.7201 2.77225C14.7534 2.69272 14.7527 2.61483 14.717 2.53793C14.6975 2.49602 14.6696 2.46367 14.6339 2.44123C14.5979 2.41846 14.5511 2.40691 14.4925 2.40559C14.4339 2.40427 14.3231 2.41945 14.1599 2.45146C13.9757 2.48678 13.841 2.49338 13.7565 2.4716C13.636 2.44024 13.5458 2.36004 13.4862 2.231C13.4249 2.09866 13.4182 1.97094 13.466 1.84685C13.5138 1.72342 13.6057 1.63134 13.7414 1.57094C13.806 1.54223 13.873 1.52639 13.942 1.52309C14.0114 1.51946 14.0818 1.53068 14.1531 1.55576L14.1528 1.55642ZM14.714 1.20527L15.4644 0.947186L15.5062 1.06402L15.3634 1.11319C15.3156 1.12969 15.2884 1.14421 15.2813 1.15676C15.2749 1.1693 15.2783 1.19405 15.2914 1.23035L15.6981 2.36698C15.7126 2.40757 15.725 2.43001 15.7354 2.4343C15.7523 2.44189 15.7796 2.43925 15.8173 2.42638L15.9745 2.37226L16.0162 2.48909L15.2655 2.74717L15.2237 2.63067L15.3796 2.5772C15.4203 2.56301 15.4439 2.54948 15.4506 2.53628C15.457 2.52341 15.453 2.49668 15.4385 2.45641L15.0315 1.32012C15.0184 1.28382 15.0072 1.26369 14.9982 1.26005C14.9776 1.25345 14.9446 1.25774 14.8982 1.27359L14.7558 1.32243L14.714 1.20593V1.20527ZM15.8136 0.796362L16.2239 0.703294L17.4332 1.71022L17.2309 0.850817C17.2114 0.76798 17.1784 0.711545 17.1323 0.681182C17.0905 0.65412 17.0282 0.648839 16.9454 0.666331L16.9171 0.5462L17.5114 0.411547L17.5396 0.532008C17.4723 0.54719 17.4279 0.564021 17.407 0.583163C17.3861 0.601645 17.3706 0.631678 17.3605 0.673261C17.3501 0.714515 17.3504 0.757419 17.3612 0.802303L17.6565 2.05543L17.5252 2.08513L16.2697 1.03167L16.4852 1.94652C16.5041 2.02638 16.5377 2.08117 16.5859 2.10955C16.634 2.13826 16.7084 2.14223 16.8084 2.1211L16.8367 2.2409L16.1889 2.38744L16.161 2.2683C16.2431 2.24651 16.2997 2.20988 16.33 2.15906C16.3606 2.1079 16.3687 2.0518 16.3542 1.99074L16.1095 0.951147L16.0906 0.938275C16.0502 0.909893 16.0233 0.894381 16.0105 0.891411C15.9903 0.887121 15.9661 0.888111 15.9364 0.894711L15.8425 0.916163L15.8142 0.795702L15.8136 0.796362ZM19.0829 0.299337L19.1327 0.140923L19.2378 0.128712L19.3505 0.803623L19.2371 0.816824C19.165 0.636298 19.0984 0.510226 19.0378 0.43828C18.9196 0.344221 18.8021 0.303958 18.6846 0.317489C18.5574 0.33234 18.4601 0.400987 18.3924 0.524088C18.3247 0.646859 18.3082 0.847187 18.3419 1.1254C18.3702 1.35939 18.4251 1.52903 18.5069 1.63497C18.625 1.72969 18.7547 1.76896 18.8967 1.75246C19.0213 1.73794 19.1206 1.68678 19.196 1.59834C19.2711 1.50989 19.3122 1.37722 19.3189 1.20065L19.4391 1.18646C19.4408 1.39735 19.3916 1.56203 19.2913 1.68018C19.1906 1.79833 19.0546 1.86731 18.8829 1.88744C18.7439 1.90361 18.6126 1.88414 18.4883 1.82903C18.3645 1.77424 18.2598 1.68711 18.1756 1.56764C18.0911 1.44784 18.0396 1.31187 18.0211 1.15973C18.0015 0.999001 18.0187 0.844217 18.0726 0.694713C18.1264 0.54554 18.2049 0.428379 18.3082 0.343561C18.4113 0.258744 18.5281 0.208579 18.658 0.193398C18.7304 0.185147 18.8021 0.188777 18.8728 0.204949C18.9439 0.22145 19.0142 0.252803 19.0839 0.298677L19.0829 0.299337ZM19.7391 0.10891L21.0733 0.0646859L21.1248 0.643229L21.0086 0.647189C20.9719 0.471283 20.9228 0.352472 20.8612 0.290756C20.7989 0.229371 20.7208 0.200328 20.6262 0.203629L20.3073 0.214189C20.2885 0.21485 20.2747 0.2198 20.2663 0.229371C20.2575 0.238612 20.2535 0.254453 20.2545 0.276235L20.2733 0.822435L20.3898 0.818475C20.4572 0.816164 20.511 0.790422 20.5524 0.741247C20.5932 0.691413 20.6137 0.608245 20.6137 0.491745L20.7342 0.487784L20.7612 1.26699L20.6406 1.27095C20.6319 1.14058 20.6056 1.05148 20.5602 1.00461C20.5154 0.957747 20.4558 0.935305 20.3821 0.937945L20.2774 0.941246L20.2986 1.55081C20.2989 1.56797 20.305 1.58051 20.3161 1.58843C20.3272 1.59669 20.3481 1.60032 20.3791 1.599L20.6305 1.59074C20.8894 1.58216 21.0339 1.40626 21.0638 1.06369L21.1854 1.05973L21.1783 1.69635L19.796 1.74223L19.7916 1.6188L19.9256 1.61418C19.9629 1.61286 19.9879 1.60692 20.0006 1.5957C20.0134 1.58414 20.0192 1.56797 20.0185 1.5452L19.9747 0.285476C19.974 0.264684 19.9683 0.249503 19.9569 0.239932C19.9454 0.231021 19.9269 0.226731 19.8996 0.227721L19.7434 0.233001L19.7391 0.10924V0.10891ZM23.3033 0.0115511L23.1067 1.63497C23.1047 1.65147 23.1118 1.66731 23.1272 1.68183C23.1394 1.69272 23.1609 1.70031 23.1919 1.70395L23.4737 1.73662L23.4558 1.88381L22.4586 1.76764L22.4768 1.62045L22.7206 1.64883C22.7579 1.65312 22.7859 1.64817 22.804 1.63398C22.8229 1.62045 22.8337 1.599 22.837 1.56995L22.9835 0.362373C22.9855 0.345871 22.9798 0.33069 22.9667 0.316499C22.9535 0.302638 22.9347 0.294057 22.9108 0.291417L22.5919 0.254453L22.6084 0.118151C22.7609 0.117161 22.8801 0.10693 22.966 0.0887781C23.0522 0.0702964 23.132 0.0405937 23.2053 0L23.3026 0.011221L23.3033 0.0115511ZM25.0119 1.25411C24.9671 1.32606 24.9001 1.37491 24.8112 1.40065C24.7227 1.42639 24.6301 1.42837 24.5331 1.40626C24.3978 1.37524 24.2867 1.30065 24.1985 1.18316C24.1103 1.06501 24.0881 0.916493 24.1305 0.737287C24.1716 0.565011 24.2672 0.431349 24.417 0.337291C24.5665 0.242902 24.7264 0.21518 24.8951 0.253793C25.0809 0.296367 25.2169 0.406597 25.3038 0.583823C25.3906 0.761709 25.4024 0.982499 25.3391 1.24784C25.2866 1.46698 25.2092 1.6452 25.1051 1.78282C25.0014 1.92011 24.8843 2.01384 24.7543 2.06335C24.6244 2.11285 24.489 2.12143 24.348 2.08909C24.211 2.05774 24.1093 2.00262 24.0443 1.92342C23.979 1.84421 23.9568 1.76137 23.9777 1.67424C23.9915 1.61682 24.0201 1.57358 24.0642 1.54487C24.1083 1.51616 24.1578 1.50824 24.212 1.52078C24.2611 1.532 24.2992 1.55774 24.3261 1.59801C24.3527 1.63794 24.3604 1.68018 24.35 1.72441C24.3419 1.75807 24.3184 1.79008 24.279 1.82111C24.2625 1.83398 24.2534 1.84487 24.2514 1.85411C24.2477 1.86929 24.2551 1.88612 24.2739 1.90427C24.2928 1.92243 24.3308 1.93794 24.388 1.95114C24.4712 1.97028 24.5493 1.96467 24.6227 1.93431C24.6964 1.90361 24.7661 1.84025 24.8324 1.74289C24.8984 1.64553 24.9513 1.51154 24.9924 1.33992L25.0126 1.25345L25.0119 1.25411ZM24.8654 0.394056C24.7786 0.374254 24.6981 0.394056 24.624 0.453461C24.5503 0.513197 24.4948 0.618806 24.4584 0.77062C24.4254 0.909893 24.4295 1.0188 24.4705 1.09768C24.5116 1.17557 24.5773 1.2254 24.6678 1.24619C24.757 1.26666 24.8412 1.2485 24.921 1.19141C25.0001 1.13497 25.0553 1.04025 25.0873 0.907913C25.1196 0.77227 25.1125 0.65742 25.0664 0.564351C25.02 0.470953 24.9533 0.414188 24.8658 0.394056H24.8654ZM26.4956 1.61385C26.6016 1.66698 26.6784 1.73827 26.7255 1.82969C26.7871 1.94751 26.7969 2.07193 26.7541 2.20229C26.7056 2.35146 26.6124 2.4541 26.4747 2.51054C26.3205 2.57522 26.1468 2.5772 25.9539 2.51681C25.8377 2.48051 25.7435 2.43034 25.6714 2.36599C25.5994 2.30196 25.5526 2.23001 25.5307 2.15114C25.5091 2.0716 25.5118 1.9914 25.5388 1.90922C25.5606 1.84223 25.596 1.79305 25.6448 1.76302C25.6936 1.73299 25.7458 1.72672 25.8007 1.74388C25.8512 1.75972 25.8862 1.78843 25.9064 1.83101C25.9266 1.87325 25.9279 1.92011 25.9108 1.97292C25.8993 2.00856 25.8815 2.03596 25.8572 2.05576C25.8333 2.07556 25.7993 2.09008 25.7552 2.09833C25.7239 2.10394 25.7071 2.11021 25.7047 2.11714C25.6983 2.13661 25.702 2.16401 25.7155 2.19767C25.729 2.231 25.7559 2.26401 25.796 2.29503C25.8357 2.32572 25.8926 2.35311 25.966 2.37622C26.0895 2.41483 26.1899 2.41384 26.2673 2.37325C26.3444 2.33298 26.405 2.24552 26.4488 2.1112C26.4946 1.97094 26.5023 1.86467 26.4713 1.79272C26.4407 1.72078 26.3764 1.66962 26.2788 1.63893C26.2532 1.63101 26.2178 1.62375 26.1727 1.61715C26.137 1.61154 26.1104 1.60626 26.0926 1.60065C26.0616 1.59074 26.0387 1.57556 26.0236 1.55477C26.0091 1.53365 26.0061 1.51121 26.0141 1.48679C26.0222 1.46236 26.0377 1.44586 26.0606 1.43827C26.0835 1.42969 26.1101 1.43035 26.139 1.43959L26.2168 1.46731L26.2673 1.4858C26.3707 1.51781 26.4538 1.51748 26.5181 1.48448C26.5821 1.4518 26.6312 1.38283 26.6652 1.27755C26.7073 1.1485 26.7137 1.05016 26.6844 0.98349C26.6551 0.916493 26.5942 0.868639 26.5016 0.839926C26.4138 0.812534 26.341 0.805603 26.2831 0.819135C26.2245 0.832996 26.1929 0.848507 26.1868 0.866329C26.1828 0.87887 26.1889 0.897682 26.204 0.923424C26.2424 0.9924 26.2535 1.05181 26.237 1.1023C26.2239 1.14289 26.1973 1.17227 26.1582 1.19075C26.1185 1.2089 26.0761 1.21088 26.0303 1.19669C25.9798 1.18085 25.9455 1.14949 25.9266 1.10362C25.9074 1.05775 25.9081 1.00362 25.9286 0.941576C25.9586 0.849497 26.0195 0.777881 26.1111 0.727716C26.2384 0.65775 26.3905 0.649829 26.5659 0.704944C26.7299 0.756099 26.847 0.841247 26.9174 0.959397C26.9881 1.07755 27.0026 1.20032 26.9608 1.32837C26.9305 1.42177 26.877 1.49372 26.8006 1.54487C26.7248 1.59603 26.6232 1.6188 26.4949 1.61418L26.4956 1.61385ZM28.1684 2.33397C28.1105 2.39635 28.0358 2.43199 27.9432 2.4409C27.8513 2.44981 27.7601 2.43463 27.6692 2.3947C27.5422 2.33925 27.4473 2.24552 27.3833 2.11384C27.3194 1.9815 27.3261 1.83167 27.4025 1.66368C27.4759 1.50197 27.5954 1.38811 27.7607 1.32375C27.926 1.2584 28.088 1.26104 28.2462 1.33035C28.4203 1.40626 28.5331 1.53992 28.5839 1.72969C28.6354 1.92044 28.6041 2.13958 28.491 2.38843C28.3974 2.59404 28.287 2.75476 28.1583 2.87027C28.0301 2.98578 27.8971 3.05608 27.7597 3.08083C27.6224 3.10558 27.488 3.08908 27.3554 3.031C27.2268 2.97489 27.1376 2.90195 27.0891 2.81219C27.0403 2.72242 27.0346 2.63661 27.0716 2.55509C27.0962 2.5013 27.1325 2.46433 27.1813 2.44387C27.2302 2.42407 27.2803 2.42506 27.3312 2.4475C27.3773 2.46763 27.4096 2.49998 27.4281 2.54453C27.4466 2.58876 27.4463 2.63166 27.4271 2.67291C27.4126 2.7046 27.3833 2.73166 27.3389 2.75476C27.3204 2.76433 27.3093 2.77324 27.3052 2.78182C27.2988 2.79601 27.3025 2.81417 27.3177 2.83562C27.3325 2.85674 27.3672 2.87918 27.4207 2.90261C27.4988 2.93661 27.5766 2.94585 27.6547 2.92968C27.7328 2.91318 27.8136 2.86367 27.8974 2.7805C27.9809 2.69734 28.059 2.57522 28.1321 2.4145L28.1684 2.33364V2.33397ZM28.1903 1.46236C28.1092 1.42672 28.026 1.43134 27.9422 1.47589C27.858 1.52078 27.7833 1.61451 27.7183 1.75675C27.6591 1.88744 27.6422 1.99503 27.6672 2.07985C27.6924 2.16434 27.7473 2.22506 27.8321 2.26203C27.9159 2.29866 28.0021 2.29668 28.0913 2.25543C28.1799 2.2145 28.2523 2.13199 28.3088 2.00757C28.3667 1.88051 28.3819 1.76632 28.3546 1.66665C28.327 1.56632 28.2728 1.49834 28.19 1.46236H28.1903Z" fill="white"/>
</g>
<defs>
<clipPath id="clip0">
<rect width="42" height="37" fill="white"/>
</clipPath>
</defs>
</svg>
