<svg xmlns="http://www.w3.org/2000/svg" width="9.157" height="6.094" viewBox="0 0 9.157 6.094">
  <defs>
    <style>
      .cls-1 {
        fill: #fff;
        fill-rule: evenodd;
      }
    </style>
  </defs>
  <path id="Forma_1" data-name="Forma 1" class="cls-1" d="M996.5,548.273l-2.86-2.859a0.191,0.191,0,0,0-.325.135v0.381a0.19,0.19,0,0,0,.056.135l1.962,1.961h-7.737a0.191,0.191,0,0,0-.191.191V548.6a0.191,0.191,0,0,0,.191.191h7.737l-1.962,1.961a0.19,0.19,0,0,0-.056.135v0.381a0.189,0.189,0,0,0,.118.176,0.181,0.181,0,0,0,.072.014,0.191,0.191,0,0,0,.135-0.055l2.86-2.859A0.191,0.191,0,0,0,996.5,548.273Z" transform="translate(-987.406 -545.375)"/>
</svg>
