<svg width="15" height="15" viewBox="0 0 15 15" fill="none" xmlns="http://www.w3.org/2000/svg">
<path d="M2.54386 15C1.89084 15 1.31092 14.7379 0.804094 14.2138C0.268031 13.6594 0 12.9866 0 12.1954C0 11.4042 0.268031 10.7314 0.804094 10.177L9.21053 0.954337C9.63938 0.500764 10.134 0.208461 10.6944 0.0774282C11.2549 -0.0536042 11.8226 -0.0183262 12.3977 0.183262C12.9727 0.38485 13.5039 0.73259 13.9912 1.22648C14.1472 1.39783 14.2909 1.58682 14.4225 1.79345C14.5541 2.00008 14.6613 2.21678 14.7442 2.44357C14.827 2.67036 14.8904 2.90974 14.9342 3.16173C14.9781 3.41371 15 3.6657 15 3.91768C14.9805 4.9861 14.6296 5.87813 13.9474 6.59377L7.58772 13.5788C7.5 13.6796 7.39279 13.7325 7.26608 13.7376C7.13938 13.7426 7.02973 13.6998 6.93713 13.609C6.84454 13.5183 6.79581 13.4049 6.79094 13.2689C6.78606 13.1328 6.82749 13.0144 6.9152 12.9136L13.2749 5.92853C13.7914 5.38424 14.0546 4.70892 14.0643 3.90257C14.0741 3.09621 13.8255 2.43601 13.3187 1.92196C13.0068 1.58934 12.6608 1.33735 12.2807 1.166C11.9006 0.994655 11.4912 0.939218 11.0526 0.999695C10.614 1.06017 10.2242 1.2668 9.88304 1.61958L1.47661 10.8422C1.11598 11.2152 0.935673 11.6637 0.935673 12.1878C0.935673 12.712 1.11598 13.1605 1.47661 13.5334C1.6423 13.7048 1.82261 13.8333 2.01754 13.919C2.21248 14.0047 2.41715 14.0374 2.63158 14.0173C3.06043 13.9971 3.46004 13.7905 3.83041 13.3974L10.5117 6.04948C10.5604 5.99908 10.6067 5.94617 10.6506 5.89073C10.6944 5.83529 10.7407 5.76978 10.7895 5.69418C10.8382 5.61859 10.8772 5.53795 10.9064 5.45228C10.9357 5.3666 10.9552 5.28093 10.9649 5.19525C10.9747 5.10958 10.96 5.02138 10.9211 4.93067C10.8821 4.83995 10.8236 4.75428 10.7456 4.67364C10.5604 4.47205 10.3801 4.38134 10.2047 4.4015C10.0195 4.42166 9.80994 4.54765 9.57602 4.77947L4.54678 10.3131C4.4883 10.3735 4.42008 10.4164 4.34211 10.4416C4.26413 10.4668 4.18372 10.4693 4.10088 10.4491C4.01803 10.429 3.94737 10.3887 3.88889 10.3282C3.79142 10.2375 3.74269 10.1266 3.74269 9.99557C3.74269 9.86454 3.78655 9.74863 3.87427 9.64783L8.90351 4.09911C9.30312 3.69594 9.7076 3.47419 10.117 3.43387C10.5848 3.39356 11.0136 3.57498 11.4035 3.97816C11.7739 4.3511 11.9371 4.78955 11.8933 5.29352C11.8494 5.7975 11.6131 6.27123 11.1842 6.71472L4.50292 14.0777C3.95712 14.6422 3.34795 14.9446 2.67544 14.9849C2.65595 14.9849 2.63402 14.9874 2.60965 14.9924C2.58528 14.9975 2.56335 15 2.54386 15Z" fill="white"/>
</svg>
