<svg xmlns="http://www.w3.org/2000/svg" width="12.31" height="12.313" viewBox="0 0 12.31 12.313">
  <defs>
    <style>
      .cls-1 {
        fill: #fff;
        fill-rule: evenodd;
      }
    </style>
  </defs>
  <path id="Forma_1" data-name="Forma 1" class="cls-1" d="M1470.4,27.591a4.816,4.816,0,1,0-.66,7.358,0.993,0.993,0,0,0,.28.51l2.73,2.734a1.018,1.018,0,0,0,1.44-1.439l-2.73-2.735a1.018,1.018,0,0,0-.51-0.274A4.809,4.809,0,0,0,1470.4,27.591Zm-0.86,5.949a3.6,3.6,0,1,1,0-5.085A3.606,3.606,0,0,1,1469.54,33.54Z" transform="translate(-1462.19 -26.188)"/>
</svg>
