<svg width="50" height="50" viewBox="0 0 50 50" fill="none" xmlns="http://www.w3.org/2000/svg">
<g clip-path="url(#clip0)">
<path d="M14.9432 31.132C15.1832 31.132 15.3775 30.9419 15.3775 30.7075C15.3775 30.473 15.1832 30.283 14.9432 30.283C11.4832 30.283 8.66833 27.5311 8.66833 24.1485C8.66833 23.7122 8.71595 23.2868 8.80495 22.876H15.3246C15.5645 22.876 15.7588 22.6859 15.7588 22.4514C15.7588 22.217 15.5645 22.0269 15.3246 22.0269H9.0556C9.9407 19.6869 12.2458 18.0142 14.9432 18.0142C15.1832 18.0142 15.3775 17.8241 15.3775 17.5897C15.3775 17.3552 15.1832 17.1651 14.9432 17.1651C14.6279 17.1651 14.318 17.1873 14.0132 17.2262C14.0687 16.8473 14.1665 16.1859 14.299 15.3167C14.3139 15.3182 14.3282 15.3211 14.3435 15.3211H20.8461C21.0859 15.3211 21.2804 15.131 21.2804 14.8965C21.2804 14.6621 21.0859 14.472 20.8461 14.472H14.4287C14.5278 13.8323 14.6402 13.1153 14.7641 12.3413H18.6108C18.8507 12.3413 19.0451 12.1512 19.0451 11.9167C19.0451 11.6823 18.8507 11.4922 18.6108 11.4922H14.901C15.39 8.47972 16.0259 4.78558 16.7012 1.45565C16.7478 1.2257 16.5949 1.00224 16.3596 0.956687C16.1242 0.911036 15.8958 1.06058 15.8492 1.29063C14.4586 8.14828 13.2345 16.5431 13.1108 17.3991C10.057 18.1921 7.79968 20.9171 7.79968 24.1486C7.79978 27.9992 11.0044 31.132 14.9432 31.132Z" fill="#D34937"/>
<path d="M37.1068 17.2252C36.8063 17.1873 36.5007 17.1656 36.1897 17.1656C35.9499 17.1656 35.7555 17.3557 35.7555 17.5902C35.7555 17.8246 35.9499 18.0147 36.1897 18.0147C38.082 18.0147 39.7799 18.8389 40.9314 20.1379H35.0691C34.8292 20.1379 34.6348 20.328 34.6348 20.5625C34.6348 20.7969 34.8292 20.987 35.0691 20.987H41.5647C42.1357 21.911 42.4648 22.9932 42.4648 24.1491C42.4648 27.5316 39.6499 30.2836 36.1898 30.2836C35.95 30.2836 35.7556 30.4737 35.7556 30.7081C35.7556 30.9426 35.95 31.1326 36.1898 31.1326C40.1288 31.1326 43.3334 27.9999 43.3334 24.1491C43.3334 20.9129 41.0696 18.1844 38.0091 17.3959C37.8842 16.5325 36.6875 8.32789 35.3185 1.52489C35.2722 1.29483 35.0438 1.14479 34.8086 1.19025C34.5732 1.2355 34.42 1.45866 34.4662 1.68871C35.7346 7.99195 36.8552 15.5061 37.1068 17.2252Z" fill="#D34937"/>
<path d="M31.4164 10.4552C31.4509 10.6638 31.6352 10.8121 31.8446 10.8121C31.8676 10.8121 31.8909 10.8103 31.9144 10.8066C32.1511 10.7693 32.3122 10.5513 32.2739 10.3199C31.7251 6.99732 31.1903 4.03829 30.6845 1.52489C30.6382 1.29483 30.4098 1.14479 30.1747 1.19025C29.9392 1.2355 29.7861 1.45866 29.8323 1.68871C30.3362 4.19273 30.8692 7.14217 31.4164 10.4552Z" fill="#D34937"/>
<path d="M18.098 28.9372C17.444 28.1322 15.7517 26.8749 14.0018 27.8502C13.7934 27.9664 13.7208 28.2256 13.8395 28.4293C13.9583 28.633 14.2235 28.7039 14.432 28.5878C15.9733 27.7288 17.3627 29.3978 17.4206 29.4685C17.4227 29.4713 17.4252 29.4741 17.4274 29.4769C19.545 31.9605 22.3142 33.2987 25.2956 33.2985C25.5563 33.2985 25.8191 33.2882 26.0826 33.2676C29.0195 33.0382 31.8631 31.6211 33.6895 29.4767C33.6917 29.4741 33.6945 29.4707 33.6965 29.4681C33.7545 29.3966 35.133 27.7297 36.6728 28.5877C36.8811 28.7039 37.1463 28.633 37.2651 28.4292C37.3839 28.2255 37.3113 27.9662 37.1029 27.8501C35.3523 26.8745 33.6682 28.1323 33.018 28.9379C31.363 30.8784 28.6795 32.213 26.0133 32.4213C23.0254 32.6544 20.2145 31.4174 18.098 28.9372Z" fill="#D34937"/>
<path d="M46.3021 46.9108C43.3733 45.8831 40.8544 44.7357 38.1877 43.5209C37.4722 43.1949 36.7323 42.8579 35.9792 42.5209C35.1012 42.1282 34.1191 41.733 33.052 41.623C31.7316 39.4351 31.6346 34.8795 31.6339 34.8335C31.6296 34.599 31.4314 34.4099 31.1922 34.4164C30.9524 34.4205 30.7613 34.6138 30.7655 34.8482C30.7688 35.0338 30.8556 39.1388 32.0622 41.6086C31.8497 41.6257 31.6344 41.6559 31.4163 41.702C30.0763 41.9431 28.965 42.4654 27.8903 42.9705C27.1811 43.3038 26.4491 43.6479 25.6542 43.9086C24.6231 43.6088 23.7602 43.2013 22.8485 42.771C22.3968 42.5577 21.9298 42.3372 21.4355 42.1268C20.7559 41.8228 20.0456 41.6689 19.346 41.6242C20.5599 39.156 20.647 35.0341 20.6505 34.8482C20.6546 34.6137 20.4636 34.4204 20.2237 34.4163C19.983 34.412 19.7861 34.5991 19.782 34.8335C19.7812 34.8795 19.6855 39.4431 18.3593 41.6305C17.3474 41.7061 16.4031 41.9826 15.6644 42.3289C12.1 44.0416 8.51986 45.5305 3.69319 47.3075C3.4688 47.3902 3.35527 47.6351 3.43988 47.8545C3.50548 48.0246 3.67081 48.1295 3.84646 48.1295C3.89735 48.1295 3.94905 48.1207 3.99943 48.1023C8.85368 46.3151 12.4568 44.8165 16.0438 43.0929C17.3339 42.4884 19.333 42.12 21.0814 42.9021C21.5675 43.1092 22.0268 43.3261 22.4711 43.5358C23.4546 44.0001 24.3835 44.4386 25.5433 44.7614C25.6256 44.7843 25.7133 44.7829 25.7948 44.7573C26.6954 44.4746 27.4942 44.0991 28.2668 43.7359C29.3388 43.2321 30.3513 42.756 31.5799 42.5362C31.5846 42.5353 31.5894 42.5344 31.5942 42.5334C33.0475 42.2238 34.4333 42.7633 35.618 43.2933C36.3684 43.629 37.1069 43.9654 37.8211 44.2907C40.5063 45.514 43.0428 46.6695 46.0089 47.7102C46.2346 47.7895 46.4833 47.6747 46.5644 47.454C46.6451 47.2332 46.5279 46.99 46.3021 46.9108Z" fill="#D34937"/>
<path d="M17.4026 44.0278C13.8382 45.7405 10.258 47.2294 5.43135 49.0064C5.20695 49.0891 5.09343 49.3339 5.17804 49.5534C5.24364 49.7235 5.40897 49.8284 5.58462 49.8284C5.63551 49.8284 5.68721 49.8196 5.73759 49.8011C10.5918 48.0139 14.1951 46.5153 17.7858 44.7899C18.001 44.6865 18.0898 44.4321 17.9839 44.2217C17.878 44.011 17.6176 43.9243 17.4026 44.0278Z" fill="#D34937"/>
<path d="M17.1947 34.9465C17.1947 34.9607 17.1909 36.3802 16.8648 37.7826C16.8116 38.0112 16.9582 38.2387 17.1921 38.2906C17.2243 38.2978 17.2568 38.3013 17.2886 38.3013C17.487 38.3013 17.6659 38.1678 17.7118 37.9708C18.0592 36.4764 18.0632 35.0083 18.0632 34.9465C18.0632 34.7121 17.8687 34.522 17.6289 34.522C17.3892 34.522 17.1947 34.7121 17.1947 34.9465Z" fill="#D34937"/>
<path d="M33.6092 37.7194C33.3699 37.735 33.1889 37.9373 33.2047 38.1712C33.2763 39.2213 34.018 41.1426 34.0495 41.2238C34.1154 41.3935 34.2805 41.4979 34.4557 41.4979C34.5069 41.4979 34.559 41.489 34.6096 41.4702C34.8339 41.3871 34.9468 41.1419 34.8617 40.9227C34.6596 40.4021 34.1238 38.8826 34.0715 38.1149C34.0554 37.8809 33.8467 37.7041 33.6092 37.7194Z" fill="#D34937"/>
</g>
<defs>
<clipPath id="clip0">
<rect y="0.948486" width="50" height="48.8799" fill="white"/>
</clipPath>
</defs>
</svg>
