<svg width="50" height="51" viewBox="0 0 50 51" fill="none" xmlns="http://www.w3.org/2000/svg">
<g clip-path="url(#clip0)">
<path d="M49.6843 17.74C48.8577 13.205 41.6848 10.6622 36.9384 8.97969C35.2826 8.39277 33.8527 7.88578 33.2446 7.48139C31.1024 6.05679 31.9124 1.54079 31.9233 1.48163C31.9689 1.23836 31.8082 1.00427 31.5642 0.958717C31.3201 0.912953 31.0856 1.07355 31.04 1.31682C31.0146 1.45284 30.6303 3.58078 31.0828 5.53852H28.889C28.6408 5.53852 28.4397 5.73918 28.4397 5.98667C28.4397 6.23416 28.6408 6.43482 28.889 6.43482H31.3602C31.6469 7.14923 32.0859 7.78803 32.7461 8.22711C33.4468 8.69309 34.8548 9.19228 36.6375 9.82422C41.1888 11.4376 48.0667 13.8758 48.8003 17.9002C49.4609 21.5244 48.7146 29.0316 47.7504 35.9074H45.3792C45.131 35.9074 44.93 36.1081 44.93 36.3556C44.93 36.6031 45.131 36.8037 45.3792 36.8037H47.6231C46.5953 43.9419 45.3853 50.1704 45.3611 50.2943C45.3137 50.5372 45.4725 50.7726 45.716 50.8199C45.7451 50.8256 45.774 50.8283 45.8026 50.8283C46.0131 50.8283 46.2011 50.6798 46.2429 50.4658C46.4419 49.4496 51.096 25.4852 49.6843 17.74Z" fill="#D34937"/>
<path d="M43.7915 21.3589C43.8001 21.1115 43.606 20.9041 43.358 20.8956C43.1089 20.8865 42.902 21.0806 42.8934 21.328C42.8904 21.4171 42.5503 30.3444 39.5757 39.9385C39.5586 39.9954 39.4696 40.2932 39.3376 40.7581H32.1623C31.4947 40.7581 31.2936 40.9588 31.2936 41.2063C31.2936 41.4537 31.4946 41.6544 32.1623 41.6544H39.0883C38.883 42.4083 38.6379 43.3469 38.4033 44.3433H36.1825C35.9343 44.3433 35.7333 44.544 35.7333 44.7915C35.7333 45.039 35.9343 45.2396 36.1825 45.2396H38.1991C37.7821 47.1381 37.4534 49.1034 37.5397 50.3067C37.5565 50.5427 37.7537 50.723 37.9873 50.723C37.998 50.723 38.0088 50.7226 38.0198 50.7218C38.2673 50.7041 38.4536 50.4898 38.436 50.2429C38.2423 47.5384 40.4145 40.2689 40.4352 40.1995C43.4457 30.4901 43.7884 21.4491 43.7915 21.3589Z" fill="#D34937"/>
<path d="M25.295 20.9338C25.0468 20.9338 24.8457 21.1345 24.8457 21.382V50.2746C24.8457 50.5221 25.0468 50.7228 25.295 50.7228C25.5431 50.7228 25.7442 50.5221 25.7442 50.2746V21.382C25.7442 21.1345 25.5431 20.9338 25.295 20.9338Z" fill="#D34937"/>
<path d="M23.3922 40.1255C23.144 40.1255 22.943 40.3262 22.943 40.5736V46.0569C22.943 46.3044 23.144 46.5051 23.3922 46.5051C23.6403 46.5051 23.8415 46.3044 23.8415 46.0569V40.5736C23.8415 40.3262 23.6403 40.1255 23.3922 40.1255Z" fill="#D34937"/>
<path d="M27.3034 21.0393C27.0552 21.0393 26.8541 21.24 26.8541 21.4875V26.9707C26.8541 27.2182 27.0552 27.4189 27.3034 27.4189C27.5515 27.4189 27.7526 27.2182 27.7526 26.9707V21.4875C27.7526 21.24 27.5515 21.0393 27.3034 21.0393Z" fill="#D34937"/>
<path d="M6.96227 46.3729C6.95984 46.3738 6.70953 46.4488 6.48913 46.3006C6.19146 46.1005 6.00943 45.5578 5.97656 44.7728C5.96609 44.5255 5.75701 44.3328 5.50902 44.3437C5.26103 44.3539 5.06843 44.5628 5.0789 44.8101C5.1252 45.9182 5.43058 46.6698 5.98692 47.0438C6.27412 47.2369 6.5664 47.2894 6.79938 47.2894C7.04821 47.2894 7.22918 47.2296 7.26438 47.217C7.4981 47.1338 7.61987 46.8773 7.53637 46.6443C7.45317 46.4112 7.19588 46.2898 6.96227 46.3729Z" fill="#D34937"/>
<path d="M44.1259 44.3437C43.8784 44.3329 43.6688 44.5255 43.6584 44.7728C43.626 45.5499 43.4468 46.0905 43.154 46.2949C42.9341 46.4483 42.6864 46.3768 42.6668 46.3708C42.4348 46.2917 42.1813 46.4131 42.0986 46.6443C42.0151 46.8773 42.1369 47.1337 42.3706 47.217C42.4058 47.2296 42.5868 47.2894 42.8357 47.2894C43.0686 47.2894 43.3609 47.2369 43.648 47.0438C44.2044 46.6698 44.5098 45.9182 44.5561 44.8101C44.5665 44.5628 44.3739 44.354 44.1259 44.3437Z" fill="#D34937"/>
<path d="M15.1471 32.3224H8.51784C8.38592 31.6531 8.26616 31.0016 8.15738 30.3716H10.1789C10.427 30.3716 10.6282 30.1709 10.6282 29.9234C10.6282 29.676 10.427 29.4753 10.1789 29.4753H8.00739C7.23731 24.7132 7.11046 21.3823 7.10856 21.328C7.09989 21.0806 6.89186 20.8869 6.64398 20.8955C6.39599 20.9041 6.20192 21.1114 6.21048 21.3589C6.21354 21.449 6.55624 30.4902 9.5654 40.1958C9.58738 40.2689 11.7597 47.5375 11.5659 50.2429C11.5482 50.4897 11.7346 50.7042 11.9821 50.7218C11.9931 50.7226 12.0037 50.723 12.0146 50.723C12.2481 50.723 12.4454 50.5428 12.4622 50.3067C12.6675 47.4391 10.5177 40.2434 10.425 39.9347C9.70704 37.6188 9.14299 35.3421 8.69976 33.2186H15.1471C15.3952 33.2186 15.5964 33.0179 15.5964 32.7704C15.5964 32.5229 15.3952 32.3224 15.1471 32.3224Z" fill="#D34937"/>
<path d="M4.68217 33.0603H1.85885C1.10378 27.0575 0.630536 21.0351 1.20188 17.9002C1.57714 15.8413 3.56094 14.1978 6.0183 12.8671H15.0413C15.2894 12.8671 15.4906 12.6665 15.4906 12.419C15.4906 12.1715 15.2894 11.9708 15.0413 11.9708H7.83413C9.71201 11.1192 11.6949 10.4161 13.3645 9.82423C15.1471 9.19228 16.5551 8.6932 17.2559 8.22712C19.8944 6.47247 19.0013 1.52656 18.962 1.31682C18.9163 1.07345 18.6814 0.912957 18.4378 0.958721C18.1939 1.00417 18.0332 1.23826 18.0788 1.48164C18.0874 1.52719 18.9076 6.05152 16.7576 7.48139C16.1494 7.88589 14.7194 8.39278 13.0638 8.9797C8.31731 10.6622 1.14438 13.205 0.317855 17.74C-1.09386 25.485 3.51569 49.3481 3.71263 50.3602C3.75427 50.5743 3.94233 50.723 4.15311 50.723C4.18154 50.723 4.21029 50.7204 4.23915 50.7148C4.4827 50.6677 4.64189 50.4324 4.59454 50.1895C4.56748 50.0502 3.04244 42.1573 1.97364 33.9569H4.68206C4.93015 33.9569 5.13131 33.7562 5.13131 33.5087C5.13131 33.2612 4.93026 33.0603 4.68217 33.0603Z" fill="#D34937"/>
<path d="M19.7982 32.3223H17.367C17.1188 32.3223 16.9177 32.5229 16.9177 32.7704C16.9177 33.0179 17.1188 33.2186 17.367 33.2186H19.7982C20.0463 33.2186 20.2475 33.0179 20.2475 32.7704C20.2475 32.5229 20.0463 32.3223 19.7982 32.3223Z" fill="#D34937"/>
</g>
<defs>
<clipPath id="clip0">
<rect y="0.950928" width="50" height="49.8775" fill="white"/>
</clipPath>
</defs>
</svg>
