<svg width="48" height="51" viewBox="0 0 48 51" fill="none" xmlns="http://www.w3.org/2000/svg">
<path d="M46.7227 31.8726C47.2019 27.7066 47.9261 21.4108 43.4379 18.38C41.1015 16.8022 39.0542 17.0998 35.9553 17.5503C35.3813 17.6338 34.7876 17.72 34.1347 17.8041C31.2822 18.1717 30.0647 16.4293 29.5932 15.3578C29.0628 14.1527 28.7841 13.4236 28.6376 12.9925C30.0652 13.269 33.2552 13.635 34.7553 11.7996C36.623 9.51413 34.0539 1.85793 33.7548 0.992473C33.6761 0.764704 33.4285 0.64409 33.2019 0.7233C32.9752 0.802408 32.8553 1.05124 32.9341 1.27901C33.3114 2.37111 33.9145 4.40449 34.2739 6.3827H26.5077C25.2809 6.3827 24.3079 6.74485 23.6157 7.45918C22.5637 8.54481 22.566 10.0487 22.5682 10.1792V30.7358L21.6845 31.2824V27.2974C21.7126 27.0388 21.81 25.7094 20.9324 25.0846C20.2968 24.6321 19.3655 24.7089 18.1646 25.3123C15.9891 26.4056 13.1608 30.3228 12.4178 34.4114C11.8982 37.2709 12.4927 39.7279 14.1367 41.5165C14.1426 41.5229 14.1485 41.5291 14.1547 41.535C14.292 41.6677 15.4682 42.769 16.674 42.7689C16.7461 42.7689 16.8184 42.7649 16.8905 42.7567C17.4239 42.6952 17.8776 42.3969 18.2028 41.8942C18.8729 40.8579 19.4568 40.5331 20.0749 40.1894C20.4309 39.9914 20.7991 39.7867 21.1664 39.4513C21.7365 38.931 21.6996 38.0708 21.6845 37.8878V34.228L24.043 32.7234L26.3892 34.2251V37.8878C26.3742 38.0708 26.3375 38.9308 26.9074 39.4512C27.2746 39.7866 27.6428 39.9913 27.9989 40.1893C28.6171 40.533 29.2009 40.8578 29.8711 41.894C30.1961 42.3967 30.65 42.6949 31.1833 42.7566C31.2554 42.7649 31.3276 42.7689 31.3998 42.7689C32.6055 42.7689 33.7819 41.6677 33.9191 41.535C33.9254 41.5291 33.9313 41.5229 33.9371 41.5165C35.5812 39.7278 36.1756 37.2709 35.6559 34.4113C34.9129 30.3227 32.0846 26.4056 29.9091 25.3124C28.708 24.7088 27.7768 24.6322 27.1414 25.0847C26.2638 25.7095 26.3611 27.0389 26.3892 27.2975V31.2823L25.5187 30.7439V11.0006C25.5187 10.9951 25.5186 10.988 25.5183 10.9825C25.5179 10.9732 25.4893 10.0458 26.0234 9.48804C26.305 9.194 26.6929 9.0511 27.2094 9.0511H34.5706C34.5833 10.0079 34.4492 10.7985 34.084 11.2453C32.5173 13.1622 28.2015 12.0011 28.1583 11.9892C28.0454 11.9578 27.9246 11.9739 27.8237 12.0334C27.7226 12.0928 27.6497 12.1908 27.6214 12.305C27.5897 12.4331 27.5057 12.7735 28.7986 15.7111C29.2177 16.6632 30.4634 18.728 33.3774 18.7278C33.6515 18.7278 33.9409 18.7094 34.2453 18.6702C34.9051 18.5851 35.5023 18.4984 36.0798 18.4145C39.1846 17.9633 40.8948 17.7146 42.9535 19.1048C46.1885 21.2893 46.3997 25.5444 46.1219 29.1844H40.0948C39.8549 29.1844 39.6604 29.3799 39.6604 29.621C39.6604 29.8621 39.8549 30.0576 40.0948 30.0576H46.0459C45.9879 30.6577 45.9217 31.2338 45.8597 31.7722C45.8458 31.8929 45.8321 32.0118 45.8188 32.1295H43.6726C43.4327 32.1295 43.2382 32.325 43.2382 32.5662C43.2382 32.8073 43.4327 33.0028 43.6726 33.0028H45.7241C45.7086 33.1591 45.6942 33.3107 45.6824 33.4558C45.3215 37.8384 45.8137 50.0178 45.8349 50.534C45.8445 50.7689 46.037 50.9527 46.2687 50.9527C46.2747 50.9527 46.2808 50.9526 46.2869 50.9524C46.5266 50.9424 46.713 50.7391 46.7031 50.4982C46.6979 50.3722 46.1919 37.8566 46.5484 33.5278C46.5884 33.0407 46.6536 32.4734 46.7227 31.8726ZM20.5821 38.8048C20.2898 39.0717 19.9811 39.2435 19.6541 39.4252C19.0018 39.788 18.2625 40.1991 17.4741 41.4181C17.29 41.7029 17.067 41.8568 16.7924 41.8889C16.0581 41.9738 15.0892 41.2219 14.7655 40.9138C12.9412 38.9203 12.9462 36.3634 13.2724 34.5682C13.9584 30.793 16.6059 27.0718 18.553 26.0933C19.4186 25.6582 20.0847 25.5527 20.4287 25.7962C20.8528 26.0964 20.8524 26.952 20.8172 27.2447L20.8156 31.8196L20.3992 32.077L18.4897 30.9097C18.1081 30.6764 17.6085 30.7986 17.3762 31.1824C17.1441 31.566 17.2659 32.068 17.6475 32.3013L19.6556 33.5289V33.8215L18.4046 35.8889C18.1726 36.2725 18.2944 36.7745 18.6761 37.0078C18.8073 37.088 18.9523 37.1262 19.0957 37.1262C19.3695 37.1262 19.637 36.987 19.7893 36.7351L20.8155 35.0395V37.9074C20.8155 37.921 20.8163 37.9369 20.8176 37.9504C20.8331 38.1144 20.8207 38.5871 20.5821 38.8048ZM27.6448 25.7963C27.9885 25.5528 28.6547 25.6583 29.5205 26.0934C31.4675 27.0719 34.1151 30.793 34.8012 34.5681C35.1273 36.3635 35.1325 38.9206 33.3078 40.9142C32.9853 41.2226 32.02 41.9749 31.2824 41.8891C31.0073 41.8573 30.784 41.7033 30.5996 41.4182C29.8113 40.1993 29.0718 39.7881 28.4195 39.4253C28.0926 39.2435 27.7839 39.0718 27.4915 38.805C27.2531 38.5872 27.2406 38.1145 27.2557 37.9528C27.2573 37.9378 27.258 37.9227 27.258 37.9077V35.105L28.2446 36.7355C28.3969 36.9872 28.6644 37.1264 28.9382 37.1264C29.0817 37.1264 29.2268 37.0881 29.3582 37.008C29.7397 36.7746 29.8614 36.2725 29.6292 35.889L28.418 33.8874V33.5051L30.3865 32.3017C30.7682 32.0683 30.8898 31.5662 30.6577 31.1828C30.5452 30.9968 30.3675 30.8662 30.1572 30.8146C29.9468 30.763 29.7292 30.7969 29.5442 30.91L27.6548 32.065L27.258 31.8196V27.2453C27.2226 26.9516 27.2207 26.0965 27.6448 25.7963ZM27.2093 8.17783C26.4516 8.17783 25.8401 8.4168 25.3919 8.88816C24.6331 9.68612 24.6454 10.8676 24.6498 11.0082V30.8134C24.6498 31.0598 24.7956 31.3221 25.0043 31.4509L27.4258 32.9487C27.4873 32.9867 27.5558 33.0079 27.6252 33.0125C27.5764 33.084 27.5491 33.1697 27.5491 33.2593V33.9397C27.5309 33.923 27.5112 33.9079 27.4903 33.8946L24.2767 31.8375C24.269 31.8326 24.2618 31.8298 24.2543 31.8265C24.1196 31.7509 23.9498 31.7483 23.8105 31.8372L20.5246 33.9337V33.2836C20.5246 33.1886 20.4939 33.0979 20.4394 33.0239C20.5052 33.018 20.5701 32.9969 20.6284 32.9609L23.0827 31.4428C23.2913 31.3137 23.4371 31.0515 23.4371 30.8052V10.1745C23.4371 10.1706 23.437 10.1668 23.437 10.163C23.4367 10.1507 23.4141 8.91898 24.2382 8.06852C24.7606 7.52945 25.5242 7.25607 26.5077 7.25607H34.2838C34.3292 7.25607 34.3721 7.24713 34.4133 7.23418C34.4595 7.55575 34.497 7.87177 34.524 8.17793H27.2093V8.17783Z" fill="#D34937"/>
<path d="M38.5427 32.1613C38.5372 31.9511 38.3834 31.7747 38.1768 31.7416C37.9703 31.7083 37.7695 31.828 37.6992 32.026C37.6676 32.115 34.7958 40.3328 35.5565 48.465H32.4455C32.2056 48.465 32.011 48.6606 32.011 48.9017C32.011 49.1428 32.2056 49.3383 32.4455 49.3383H35.6142C35.6272 49.3383 35.6396 49.3356 35.6524 49.3344C35.7024 49.7292 35.7611 50.1231 35.8302 50.5152C35.872 50.7526 36.097 50.9113 36.3338 50.869C36.5701 50.827 36.7277 50.6004 36.6858 50.3629C35.6535 44.5007 36.8979 38.1944 37.7824 34.8088C37.9486 38.1474 38.344 44.2433 39.2148 50.576C39.2448 50.7945 39.4311 50.9529 39.6446 50.9529C39.6644 50.9529 39.6845 50.9516 39.7046 50.9487C39.9423 50.9157 40.1083 50.6953 40.0754 50.4564C38.7878 41.0929 38.545 32.2496 38.5427 32.1613Z" fill="#D34937"/>
<path d="M27.258 27.2452C27.26 27.2623 27.258 27.228 27.258 27.2452V27.2452Z" fill="#D34937"/>
<path d="M20.8173 27.2447C20.8173 27.2267 20.815 27.2626 20.8173 27.2447V27.2447Z" fill="#D34937"/>
<path d="M6.70346 22.8833H2.3415C2.58325 22.1157 2.91944 21.3927 3.37687 20.743H5.2724C5.51231 20.743 5.70683 20.5475 5.70683 20.3063C5.70683 20.0652 5.51231 19.8697 5.2724 19.8697H4.11458C4.39333 19.5937 4.70243 19.3373 5.0466 19.1049C7.09914 17.7189 8.78339 17.9647 11.8405 18.4109C12.4239 18.4961 13.0271 18.5841 13.6968 18.6703C17.2363 19.1267 18.685 16.7529 19.1435 15.7111C20.3947 12.8683 20.4832 11.2623 20.4863 11.1953C20.4933 11.0469 20.4248 10.9051 20.3045 10.8189C20.254 10.7828 16.0192 7.70774 14.4847 3.51729H18.06C18.2999 3.51729 18.4944 3.32178 18.4944 3.08065C18.4944 2.83953 18.2999 2.64402 18.06 2.64402H14.4824C14.3891 2.64402 14.3033 2.67412 14.2325 2.72436C14.0898 2.19834 13.9926 1.65794 13.955 1.10583C13.9386 0.865222 13.731 0.683479 13.4919 0.70002C13.2525 0.716561 13.0717 0.924912 13.0881 1.16552C13.4461 6.41623 18.4856 10.5322 19.5941 11.3769C19.5246 11.891 19.2665 13.2727 18.3489 15.3578C17.8772 16.4292 16.6603 18.172 13.8073 17.8041C13.1447 17.7187 12.5451 17.6312 11.9653 17.5466C8.80189 17.0848 6.89246 16.8063 4.56199 18.3799C0.0739961 21.4109 0.798109 27.7066 1.27731 31.8726C1.34641 32.4733 1.41173 33.0407 1.45179 33.528C1.80823 37.8569 1.30225 50.3725 1.29704 50.4984C1.28722 50.7393 1.47357 50.9427 1.71327 50.9526C1.7193 50.9528 1.72543 50.9529 1.73146 50.9529C1.96319 50.9529 2.15557 50.769 2.16528 50.5343C2.18644 50.0179 2.67872 37.8387 2.31779 33.456C2.27649 32.9546 2.21046 32.3804 2.14054 31.7724C1.87263 29.4431 1.52447 26.4128 2.10977 23.7565H6.70356C6.94346 23.7565 7.13798 23.561 7.13798 23.3198C7.13798 23.0787 6.94336 22.8833 6.70346 22.8833Z" fill="#D34937"/>
<path d="M16.4858 45.5884H12.5138C12.5064 38.5019 10.2707 32.1045 10.2429 32.0261C10.1726 31.828 9.97232 31.7082 9.76522 31.7417C9.55864 31.7748 9.4049 31.9512 9.39938 32.1614C9.39713 32.2495 9.15457 41.0907 7.86662 50.4566C7.83381 50.6955 7.99981 50.9159 8.23747 50.9489C8.25771 50.9517 8.27775 50.9531 8.29747 50.9531C8.51101 50.9531 8.69725 50.7948 8.7273 50.5762C9.5983 44.2422 9.99368 38.1452 10.1598 34.807C11.0446 38.1908 12.2895 44.4958 11.2563 50.3631C11.2145 50.6005 11.3721 50.8272 11.6083 50.8692C11.8447 50.9112 12.07 50.7527 12.1118 50.5154C12.3483 49.1731 12.4683 47.8093 12.5028 46.4618H16.4856C16.7256 46.4618 16.9201 46.2663 16.9201 46.0251C16.9202 45.7839 16.7257 45.5884 16.4858 45.5884Z" fill="#D34937"/>
</svg>
