<svg width="52" height="52" viewBox="0 0 52 52" fill="none" xmlns="http://www.w3.org/2000/svg">
<g clip-path="url(#clip0)">
<path d="M6.82288 6.95996H6.81256C6.25159 6.95996 5.79694 7.4155 5.79694 7.97757C5.79694 8.53965 6.25159 8.99519 6.81256 8.99519H6.82288C7.38385 8.99519 7.8385 8.53965 7.8385 7.97757C7.8385 7.4155 7.38385 6.95996 6.82288 6.95996Z" fill="#009FE3"/>
<path d="M11.8535 6.95996H11.8431C11.2822 6.95996 10.8275 7.4155 10.8275 7.97757C10.8275 8.53965 11.2822 8.99519 11.8431 8.99519H11.8535C12.4144 8.99519 12.8691 8.53965 12.8691 7.97757C12.8691 7.4155 12.4144 6.95996 11.8535 6.95996Z" fill="#009FE3"/>
<path d="M16.884 6.95996H16.8737C16.3127 6.95996 15.858 7.4155 15.858 7.97757C15.858 8.53965 16.3127 8.99519 16.8737 8.99519H16.884C17.4449 8.99519 17.8996 8.53965 17.8996 7.97757C17.8996 7.4155 17.4449 6.95996 16.884 6.95996Z" fill="#009FE3"/>
<path d="M45.1251 6.95996H25.5307C24.9697 6.95996 24.5151 7.4155 24.5151 7.97757C24.5151 8.53925 24.9697 8.99519 25.5307 8.99519H45.1251C45.6861 8.99519 46.1407 8.53925 46.1407 7.97757C46.1407 7.4155 45.6861 6.95996 45.1251 6.95996Z" fill="#009FE3"/>
<path d="M26.6998 48.0757C26.4328 48.0757 26.1718 48.1846 25.9818 48.3738C25.7929 48.563 25.6842 48.8258 25.6842 49.0933C25.6842 49.3608 25.7929 49.6236 25.9818 49.8128C26.1718 50.002 26.4328 50.1109 26.6998 50.1109C26.9668 50.1109 27.2291 50.002 27.4179 49.8128C27.6075 49.6236 27.7155 49.3608 27.7155 49.0933C27.7155 48.8258 27.6075 48.563 27.4179 48.3738C27.2291 48.1846 26.9668 48.0757 26.6998 48.0757Z" fill="#009FE3"/>
<path d="M48.7734 2.08594H3.22659C1.44766 2.08594 0 3.53643 0 5.31885V46.878C0 48.6608 1.44766 50.1109 3.22659 50.1109H22.4453C23.0063 50.1109 23.4609 49.6554 23.4609 49.0933C23.4609 48.5312 23.0063 48.0757 22.4453 48.0757H3.22659C2.56763 48.0757 2.03125 47.5386 2.03125 46.878V13.8688H49.9688V46.878C49.9688 47.5382 49.4324 48.0757 48.7734 48.0757H30.8413C30.2803 48.0757 29.8257 48.5312 29.8257 49.0933C29.8257 49.6554 30.2803 50.1109 30.8413 50.1109H48.7734C50.5523 50.1109 52 48.6608 52 46.878V5.31885C52 3.53643 50.5523 2.08594 48.7734 2.08594V2.08594ZM2.03125 11.8332V5.31885C2.03125 4.65859 2.56763 4.12116 3.22659 4.12116H48.7734C49.4324 4.12116 49.9688 4.65859 49.9688 5.31885V11.8336H2.03125V11.8332Z" fill="#009FE3"/>
<path d="M18.0821 25.491C18.0821 23.4709 16.442 21.8276 14.4258 21.8276H11.0064C10.4454 21.8276 9.99078 22.2832 9.99078 22.8452V33.4284C9.99078 33.9905 10.4454 34.446 11.0064 34.446H14.4258C16.442 34.446 18.0821 32.8027 18.0821 30.7826C18.0821 29.7432 17.6472 28.8042 16.9506 28.1368C17.6472 27.4694 18.0821 26.5305 18.0821 25.491ZM16.0508 30.7826C16.0508 31.6802 15.3216 32.4108 14.4258 32.4108H12.022V29.1544H14.4258C15.3216 29.1544 16.0508 29.8847 16.0508 30.7826ZM12.022 27.1192V23.8629H14.4258C15.322 23.8629 16.0508 24.5935 16.0508 25.491C16.0508 26.3886 15.322 27.1192 14.4258 27.1192H12.022Z" fill="#009FE3"/>
<path d="M20.9877 21.8276C20.4268 21.8276 19.9721 22.2832 19.9721 22.8452V31.0748C19.9721 32.9339 21.4817 34.446 23.3368 34.446C23.8977 34.446 24.3524 33.9905 24.3524 33.4284C24.3524 32.8663 23.8977 32.4108 23.3368 32.4108C22.6016 32.4108 22.0034 31.8114 22.0034 31.0748V22.8452C22.0034 22.2832 21.5487 21.8276 20.9877 21.8276V21.8276Z" fill="#009FE3"/>
<path d="M32.9943 30.7614C32.9943 28.7294 31.3447 27.0762 29.3167 27.0762C27.2886 27.0762 25.639 28.7294 25.639 30.7614C25.639 32.7935 27.289 34.4463 29.3167 34.4463C31.3447 34.4463 32.9943 32.7935 32.9943 30.7614ZM27.6702 30.7614C27.6702 29.8516 28.4089 29.1114 29.3167 29.1114C30.2244 29.1114 30.9631 29.8516 30.9631 30.7614C30.9631 31.6709 30.2248 32.4111 29.3167 32.4111C28.4085 32.4111 27.6702 31.6709 27.6702 30.7614Z" fill="#009FE3"/>
<path d="M38.3311 37.2956C37.4233 37.2956 36.6846 36.5555 36.6846 35.646C36.6846 35.0839 36.23 34.6284 35.669 34.6284C35.108 34.6284 34.6534 35.0839 34.6534 35.646C34.6534 37.678 36.3034 39.3309 38.3311 39.3309C40.3591 39.3309 42.0091 37.678 42.0091 35.646V30.7614C42.0091 28.7294 40.3591 27.0762 38.3311 27.0762C36.3034 27.0762 34.6534 28.7294 34.6534 30.7614C34.6534 32.7935 36.3034 34.4463 38.3311 34.4463C38.923 34.4463 39.482 34.3048 39.9779 34.0548V35.646C39.9779 36.5555 39.2392 37.2956 38.3311 37.2956V37.2956ZM38.3311 32.4111C37.4233 32.4111 36.6846 31.6709 36.6846 30.7614C36.6846 29.8516 37.4233 29.1114 38.3311 29.1114C39.2392 29.1114 39.9779 29.8516 39.9779 30.7614C39.9779 31.6709 39.2392 32.4111 38.3311 32.4111V32.4111Z" fill="#009FE3"/>
<path d="M11.0064 44.4185H40.9935C41.5545 44.4185 42.0092 43.963 42.0092 43.4009C42.0092 42.8388 41.5545 42.3833 40.9935 42.3833H11.0064C10.4458 42.3833 9.99078 42.8388 9.99078 43.4009C9.99078 43.963 10.4458 44.4185 11.0064 44.4185V44.4185Z" fill="#009FE3"/>
</g>
<defs>
<clipPath id="clip0">
<rect width="52" height="52" fill="white"/>
</clipPath>
</defs>
</svg>
