<svg xmlns="http://www.w3.org/2000/svg" xmlns:xlink="http://www.w3.org/1999/xlink" width="694" height="555" viewBox="0 0 694 555"><defs><clipPath id="a"><rect width="694" height="555" transform="translate(-130 -5.01)" fill="#fff" opacity="0.302"/></clipPath></defs><g transform="translate(130 5.01)" clip-path="url(#a)"><g transform="translate(-60.031 -5)"><g transform="translate(0.009 89.515)"><path d="M451.569,644.993l-20.723-62.177a62.662,62.662,0,0,0-48.239-41.83L322.784,530.1v-4.637a90.089,90.089,0,0,0,26.684-23.695h18.073A26.887,26.887,0,0,0,394.4,474.915V367.5a116.369,116.369,0,1,0-232.738,0v62.66A35.864,35.864,0,0,0,190.2,465.221a89.682,89.682,0,0,0,43.065,60.243V530.1l-59.832,10.885a62.649,62.649,0,0,0-48.23,41.83l-3.581,10.751L91.138,563.078a8.968,8.968,0,0,1,0-12.666L126.5,515.063,60.13,448.7,20.171,488.656a62.66,62.66,0,0,0,0,88.611L141.15,698.245a62.63,62.63,0,0,0,88.333.268l43.6-39.95-13.6-13.57ZM376.493,474.915a8.96,8.96,0,0,1-8.951,8.951h-7.528a88.911,88.911,0,0,0,5.836-18.646,35.456,35.456,0,0,0,10.643-4.234Zm-8.951-29.343V414.744a17.748,17.748,0,0,1,0,30.829Zm-179.029,0a17.748,17.748,0,0,1,0-30.829Zm0-60.172v10.223a35.5,35.5,0,0,0-8.951,3.706V367.5a98.466,98.466,0,1,1,196.932,0v31.831a35.18,35.18,0,0,0-8.951-3.706V385.4H358.59a98.488,98.488,0,0,1-70.081-29.03l-10.482-10.482-10.482,10.482a98.488,98.488,0,0,1-70.081,29.03Zm17.9,62.66v-45.1a116.055,116.055,0,0,0,71.612-31.813,116.007,116.007,0,0,0,71.612,31.813v45.1a71.073,71.073,0,0,1-9.685,35.806H278.027v17.9h47.21a71.5,71.5,0,0,1-118.822-53.709Zm98.466,85.388v.421l-26.854,26.854L251.173,533.87v-.421a89.441,89.441,0,0,0,53.709,0Zm-162.7,55.025a44.773,44.773,0,0,1,34.454-29.889L239.2,547.216l38.822,38.822,38.814-38.814L379.4,558.594a44.757,44.757,0,0,1,34.454,29.889l12.881,38.608H241.585L206.72,592.224l-38.742,35.045a9.143,9.143,0,0,1-12.657,0l-19.55-19.55ZM60.122,474.011l41.051,41.051-9.721,9.721L50.4,483.733ZM217.085,685.606a44.767,44.767,0,0,1-63.3-.018L32.811,564.618a44.767,44.767,0,0,1,0-63.3l4.923-4.923L78.785,537.45l-.322.322a26.9,26.9,0,0,0,0,37.981l64.191,64.191a26.714,26.714,0,0,0,18.995,7.868,26.356,26.356,0,0,0,18.664-7.555l.671-.6L222.223,680.9Zm18.35-16.829-41.15-41.15,11.825-10.688,41.078,41.078Z" transform="translate(-1.821 -251.129)" fill="#fff"/></g><g transform="translate(374.681)"><path d="M1205.121,0H1079.8a26.887,26.887,0,0,0-26.854,26.854V98.466A26.887,26.887,0,0,0,1079.8,125.32h23.909l-9.256,53.986,86.382-53.986h24.285a26.887,26.887,0,0,0,26.854-26.854V26.854A26.887,26.887,0,0,0,1205.121,0Zm8.952,98.466a8.966,8.966,0,0,1-8.952,8.951H1175.7l-56.851,35.528,6.1-35.528H1079.8a8.966,8.966,0,0,1-8.951-8.951V26.854A8.966,8.966,0,0,1,1079.8,17.9h125.32a8.966,8.966,0,0,1,8.952,8.951Z" transform="translate(-1052.946)" fill="#fff"/></g><g transform="translate(410.487 35.806)"><rect width="107.417" height="17.903" fill="#fff"/></g><g transform="translate(410.487 71.612)"><rect width="71.612" height="17.903" fill="#fff"/></g><g transform="translate(500.002 71.612)"><rect width="17.903" height="17.903" fill="#fff"/></g><g transform="translate(0 26.854)"><path d="M278.011,75.339A250.481,250.481,0,0,0,34.11,269.093L17.147,240.815,1.8,250.026,33.26,302.455l52.429-31.464-9.211-15.352L52.219,270.194A232.8,232.8,0,0,1,346.973,103.625l5.3-17.1A250.478,250.478,0,0,0,278.011,75.339Z" transform="translate(-1.796 -75.339)" fill="#fff"/></g><g transform="translate(457.044 166.739)"><path d="M1376.327,499.242,1323.9,467.778l-31.455,52.438,15.352,9.211,15.665-26.111A232.937,232.937,0,0,1,1284.01,725.07l13.9,11.279a250.674,250.674,0,0,0,42.9-237.536l26.308,15.781Z" transform="translate(-1284.01 -467.778)" fill="#fff"/></g></g></g></svg>