<svg xmlns="http://www.w3.org/2000/svg" width="20.017" height="20.016" viewBox="0 0 20.017 20.016"><path d="M1101.18,1159.008a1.175,1.175,0,0,1-1.173-1.174v-17.67a1.174,1.174,0,0,1,1.173-1.173h14.232a1.173,1.173,0,0,1,1.173,1.173v4.252a.391.391,0,0,1-.782,0v-4.252a.391.391,0,0,0-.391-.391H1101.18a.391.391,0,0,0-.391.391v17.67a.391.391,0,0,0,.391.391h14.232a.391.391,0,0,0,.391-.391v-2.88a.391.391,0,0,1,.782,0v2.88a1.174,1.174,0,0,1-1.173,1.174Zm10.658-2.164a.392.392,0,0,1-.193-.382l.346-3.1a.4.4,0,0,1,.05-.152l4.919-8.521a1.642,1.642,0,1,1,2.844,1.643l-4.919,8.52a.4.4,0,0,1-.107.12l-2.513,1.85a.394.394,0,0,1-.232.077A.387.387,0,0,1,1111.838,1156.845Zm.683-1.183,1.312-.967-1.131-.653Zm.392-2.4,1.49.859,3.948-6.837-1.49-.86Zm5.247-8.583a.852.852,0,0,0-.522.4l-.386.667,1.49.86.385-.668a.861.861,0,0,0-.744-1.29A.867.867,0,0,0,1118.16,1144.678ZM1108.3,1156.9a.391.391,0,1,1,0-.782h2.111a.391.391,0,0,1,0,.782Zm-3.441-2.19a.391.391,0,1,1,0-.781h5.552a.391.391,0,0,1,0,.781Zm-1.947-.114a.391.391,0,1,1,.276.114A.393.393,0,0,1,1102.909,1154.593Zm1.947-2.074a.391.391,0,1,1,0-.782h5.552a.391.391,0,0,1,0,.782Zm-1.947-.114a.392.392,0,0,1,0-.554.391.391,0,1,1,0,.554Zm1.947-2.075a.391.391,0,1,1,0-.782h5.552a.391.391,0,0,1,0,.782Zm-1.947-.115a.391.391,0,0,1,.276-.667.39.39,0,0,1,.276.114.391.391,0,1,1-.553.553Zm2.961-2.862a.334.334,0,0,1-.041-.039,3.6,3.6,0,1,1,4.935,0,.283.283,0,0,1-.041.039,3.589,3.589,0,0,1-4.852,0Zm.725-.411a2.809,2.809,0,0,0,3.4,0,1.956,1.956,0,0,0-3.4,0Zm3.109-2.652v.255a1.406,1.406,0,0,1-.294.859,2.716,2.716,0,0,1,1.152.965,2.815,2.815,0,1,0-4.531,0,2.706,2.706,0,0,1,1.152-.965,1.4,1.4,0,0,1-.294-.859v-.255a1.408,1.408,0,0,1,2.815,0Zm-2.034,0v.255a.626.626,0,0,0,1.252,0v-.255a.626.626,0,0,0-1.252,0Z" transform="translate(-1100.007 -1138.992)" fill="#00a0e1"/></svg>