<svg xmlns="http://www.w3.org/2000/svg" width="19.571" height="19.571" viewBox="0 0 19.571 19.571"><path d="M521.281,1156.116a8.529,8.529,0,1,1,6.835-6.831,5.049,5.049,0,1,1-6.835,6.831Zm.035-2.381a4.419,4.419,0,1,0,4.419-4.418A4.424,4.424,0,0,0,521.316,1153.734Zm-1.9,1.869v-3.179a14.822,14.822,0,0,1-3.082-.37C517.012,1154.043,518.134,1155.411,519.421,1155.6Zm.632-3.182v3.178a2.3,2.3,0,0,0,.87-.331,4.992,4.992,0,0,1-.049-2.885C520.6,1152.4,520.326,1152.418,520.052,1152.421Zm-2.489,2.9a7.725,7.725,0,0,1-1.953-3.46,7.716,7.716,0,0,1-3.46-1.953A7.922,7.922,0,0,0,517.563,1155.322Zm2.489-3.529c.355-.007.7-.027,1.048-.057a5.046,5.046,0,0,1,2.632-2.632c.031-.347.049-.7.058-1.048h-3.737Zm-3.926-.446a14.1,14.1,0,0,0,3.294.446v-3.74h-3.741A14.11,14.11,0,0,0,516.127,1151.347Zm-.709-.212a14.883,14.883,0,0,1-.37-3.082H511.87C512.062,1149.342,513.429,1150.464,515.417,1151.134Zm11.851-2.211a2.465,2.465,0,0,0,.331-.87h-3.179c0,.277-.015.546-.039.82a5.006,5.006,0,0,1,2.886.05Zm-2.844-1.5H527.6c-.193-1.291-1.561-2.411-3.549-3.082A14.812,14.812,0,0,1,524.425,1147.42Zm-4.372,0h3.74a13.874,13.874,0,0,0-.446-3.294,14.1,14.1,0,0,0-3.294-.446Zm-3.926-3.294a14.109,14.109,0,0,0-.447,3.294h3.741v-3.74A14.1,14.1,0,0,0,516.127,1144.126Zm-4.253,3.294h3.174a14.868,14.868,0,0,1,.374-3.082C513.433,1145.012,512.066,1146.134,511.873,1147.42Zm11.989-3.806a7.718,7.718,0,0,1,3.46,1.953,7.907,7.907,0,0,0-5.413-5.413A7.731,7.731,0,0,1,523.862,1143.614Zm-11.708,1.949a7.73,7.73,0,0,1,3.46-1.953,7.718,7.718,0,0,1,1.954-3.46A7.915,7.915,0,0,0,512.154,1145.563Zm7.9-2.516a14.763,14.763,0,0,1,3.082.374c-.674-1.988-1.8-3.356-3.082-3.548Zm-3.714.374a14.822,14.822,0,0,1,3.082-.37v-3.178C518.134,1140.065,517.012,1141.43,516.338,1143.421Zm7.186,13.153v-4.1h.316v-.317a1.9,1.9,0,0,1,3.791,0h0v.317h.316v4.1Zm.635-.628h3.155v-2.839h-3.155Zm.312-3.792h0v.317H527v-.317a1.264,1.264,0,0,0-2.527,0Zm1.9,3.155v-.63H527v.63Zm-.95,0v-.63h.63v.63Zm-.95,0v-.63h.63v.63Z" transform="translate(-511.214 -1139.215)" fill="#00a0e1"/></svg>