<svg xmlns="http://www.w3.org/2000/svg" width="31" height="31" viewBox="0 0 31 31"><path d="M6.717,338.86H5.4a2.724,2.724,0,1,0-1.691,0H2.348A2.355,2.355,0,0,0,0,341.208v2.067a.444.444,0,0,0,.47.47H8.6a.444.444,0,0,0,.47-.47v-2.067A2.355,2.355,0,0,0,6.717,338.86Zm-3.945-2.583a1.785,1.785,0,1,1,1.785,1.785A1.815,1.815,0,0,1,2.771,336.276ZM.939,342.805v-1.6A1.413,1.413,0,0,1,2.348,339.8H6.67a1.413,1.413,0,0,1,1.409,1.409v1.6Z" transform="translate(0 -312.745)"/><path d="M182.859,338.86h-1.315a2.724,2.724,0,1,0-1.691,0h-1.315a2.355,2.355,0,0,0-2.348,2.348v2.067a.444.444,0,0,0,.47.47h8.126a.444.444,0,0,0,.47-.47v-2.067A2.4,2.4,0,0,0,182.859,338.86Zm-3.945-2.583a1.785,1.785,0,1,1,1.785,1.785A1.815,1.815,0,0,1,178.913,336.276Zm5.355,6.529h-7.139v-1.6a1.413,1.413,0,0,1,1.409-1.409h4.321a1.413,1.413,0,0,1,1.409,1.409Z" transform="translate(-165.198 -312.745)"/><path d="M359.047,338.86h-1.315a2.724,2.724,0,1,0-1.691,0h-1.315a2.355,2.355,0,0,0-2.348,2.348v2.067a.444.444,0,0,0,.47.47h8.079a.444.444,0,0,0,.47-.47v-2.067A2.355,2.355,0,0,0,359.047,338.86Zm-3.945-2.583a1.785,1.785,0,1,1,1.785,1.785A1.815,1.815,0,0,1,355.1,336.276Zm5.355,6.529h-7.186v-1.6a1.413,1.413,0,0,1,1.409-1.409h4.368a1.413,1.413,0,0,1,1.409,1.409Z" transform="translate(-330.395 -312.745)"/><path d="M209.642,5.214a2.616,2.616,0,0,0,2.583-2.63A2.576,2.576,0,0,0,209.642,0a2.616,2.616,0,0,0-2.583,2.63A2.576,2.576,0,0,0,209.642,5.214Zm0-4.274a1.674,1.674,0,0,1,1.644,1.691,1.645,1.645,0,1,1-3.288,0A1.674,1.674,0,0,1,209.642.939Z" transform="translate(-194.142)"/><path d="M113.073,94.1a.493.493,0,0,0,.423-.235l1.456-2.677a.427.427,0,0,0,0-.47.493.493,0,0,0-.423-.235h-4.838V87.005a2.563,2.563,0,0,0-2.348-2.677h-3.617a2.5,2.5,0,0,0-2.348,2.677v3.476H96.493a.493.493,0,0,0-.423.235.427.427,0,0,0,0,.47l1.456,2.677a.493.493,0,0,0,.423.235h.611l1.926,9.065a.479.479,0,0,0,.939-.188L99.546,94.1h11.977l-1.879,8.877a.479.479,0,0,0,.939.188l1.879-9.065h.611Zm-9.394-8.83H107.3a1.569,1.569,0,0,1,1.409,1.738v3.476h-.611v-.7a.47.47,0,0,0-.939,0v.7h-3.288v-.7a.47.47,0,0,0-.939,0v.7h-.611V87.005h-.047A1.632,1.632,0,0,1,103.679,85.267Zm-5.448,7.891-.939-1.738h16.439l-.939,1.738Z" transform="translate(-90.011 -79.067)"/></svg>