<svg id="Capa_1" enable-background="new 0 0 512 512" height="512" viewBox="0 0 512 512" width="512" xmlns="http://www.w3.org/2000/svg"><g><path d="m203.895 215.403c4.142 0 7.5-3.358 7.5-7.5v-8.016c0-4.142-3.358-7.5-7.5-7.5s-7.5 3.358-7.5 7.5v8.016c0 4.142 3.358 7.5 7.5 7.5z"/><path d="m284.057 215.403c4.142 0 7.5-3.358 7.5-7.5v-8.016c0-4.142-3.358-7.5-7.5-7.5s-7.5 3.358-7.5 7.5v8.016c0 4.142 3.358 7.5 7.5 7.5z"/><path d="m232.323 266.765c2.885-2.075 7.132-3.265 11.653-3.265s8.769 1.19 11.653 3.265c1.326.953 2.856 1.412 4.373 1.412 2.332 0 4.63-1.084 6.095-3.121 2.418-3.363 1.653-8.049-1.709-10.468-5.458-3.925-12.708-6.087-20.412-6.087s-14.953 2.162-20.412 6.087c-3.362 2.419-4.128 7.105-1.709 10.468 2.418 3.361 7.103 4.127 10.468 1.709z"/><path d="m420.331 351.677c4.142 0 7.5-3.358 7.5-7.5s-3.358-7.5-7.5-7.5h-8.532v-17.064h8.532c4.142 0 7.5-3.358 7.5-7.5s-3.358-7.5-7.5-7.5h-8.532v-16.548c0-12.976-10.557-23.532-23.532-23.532s-23.532 10.557-23.532 23.532v97.495l-33.097-13.717v-43.698c0-13.109-8.038-24.373-19.443-29.13 15.944-16.212 25.441-37.103 27.17-59.564h3.669c14.617 0 27.154-10.861 28.543-24.727.778-7.771-1.764-15.531-6.975-21.288-.292-.323-.594-.636-.9-.944v-24.671c0-39.186-18.924-74.035-48.112-95.89.004-.102.015-.201.015-.304 0-39.494-32.133-71.627-71.629-71.627s-71.629 32.133-71.629 71.629c0 .083.01.163.012.246-3.522 2.635-6.919 5.469-10.168 8.509-22.143 20.719-35.51 48.736-37.64 78.889-.292 4.132 2.821 7.718 6.953 8.01 4.135.292 7.717-2.822 8.01-6.953 1.862-26.365 13.556-50.868 32.926-68.992 19.462-18.211 44.868-28.24 71.537-28.24 57.746 0 104.726 46.979 104.726 104.726v16.929c-1.486-.249-2.999-.381-4.524-.381h-12.024c-4.705 0-8.532-3.828-8.532-8.565 0-8.249-6.231-15.27-14.495-16.33-72.979-9.367-124.414-45.493-124.925-45.857-3.37-2.403-8.05-1.622-10.458 1.747-2.408 3.371-1.627 8.055 1.744 10.462.572.408 4.537 3.206 11.442 7.3-13.428 7.094-22.599 21.206-22.599 37.419v5.291c0 4.705-3.828 8.532-8.532 8.532h-10.879c-14.617 0-27.154 10.86-28.543 24.725-.779 7.771 1.762 15.531 6.972 21.289 5.214 5.763 12.659 9.067 20.426 9.067h4.815c1.801 23.112 11.851 43.945 27.199 59.551-11.421 4.75-19.474 16.021-19.474 29.142v44.316l-43.296 18.543c-17.525 7.505-28.849 24.674-28.849 43.738v69.758c0 4.142 3.358 7.5 7.5 7.5s7.5-3.358 7.5-7.5v-69.757c0-13.055 7.754-24.81 19.754-29.949l43.039-18.433c5.822 4.391 15.24 6.848 23.86 8.572 6.076 1.215 12.924 2.215 20.304 2.987l63.206 94.277c2.99 4.46 7.906 6.871 12.911 6.871 2.969 0 5.971-.85 8.617-2.624l26.632-17.855c3.442-2.308 5.781-5.818 6.583-9.885.802-4.066-.027-8.201-2.335-11.644l-39.667-59.166c7.286-.768 14.047-1.76 20.055-2.961 8.881-1.776 18.606-4.333 24.375-8.979l38.229 15.844v38.991c-12.794 9.466-18.713 25.599-14.832 41.474 3.451 14.116 14.825 25.361 28.975 28.649 3.114.724 6.247 1.08 9.348 1.08 8.924 0 17.568-2.949 24.632-8.56 9.516-7.558 14.973-18.855 14.973-30.995 0-12.458-6.047-24.218-16.032-31.641v-24.988h8.532c4.142 0 7.5-3.358 7.5-7.5s-3.358-7.5-7.5-7.5h-8.532v-17.065h8.532c4.142 0 7.5-3.358 7.5-7.5s-3.358-7.5-7.5-7.5h-8.532v-17.064h8.533zm-176.355-303.58c-19.67 0-38.736 4.779-55.767 13.757 4.646-26.581 27.876-46.854 55.767-46.854 27.911 0 51.154 20.302 55.778 46.911-16.668-8.813-35.649-13.814-55.778-13.814zm-80.678 183.855c0-4.142-3.358-7.5-7.5-7.5h-12.024c-3.537 0-6.928-1.506-9.303-4.131-2.407-2.66-3.532-6.115-3.17-9.729.63-6.292 6.612-11.22 13.618-11.22h10.879c12.976 0 23.532-10.557 23.532-23.532v-5.291c0-14.709 11.699-26.738 26.309-27.271 23.253 11.562 58.635 25.566 101.577 31.077.813.104 1.404.715 1.404 1.485 0 12.976 10.557 23.532 23.532 23.532h12.024c3.537 0 6.927 1.505 9.303 4.13 2.407 2.66 3.533 6.115 3.171 9.729-.63 6.292-6.611 11.221-13.617 11.221h-10.882c-1.989 0-3.897.79-5.303 2.197-1.407 1.406-2.197 3.314-2.197 5.303 0 21.55-8.391 41.81-23.629 57.048s-35.498 23.63-57.048 23.63c-44.484-.001-80.676-36.193-80.676-80.678zm24.565 79.645h3.151c15.175 10.124 33.391 16.032 52.961 16.032 19.174 0 37.487-5.602 53.07-16.032h3.044c9.125 0 16.548 7.423 16.548 16.548v23.355l-145.323-21.798v-1.557c0-9.125 7.424-16.548 16.549-16.548zm121.419 153.816c.029.044.119.178.078.387s-.175.299-.22.329l-26.632 17.856c-.044.029-.174.119-.388.078-.209-.042-.299-.175-.329-.219l-56.657-84.509c6.112.288 12.421.44 18.842.44 7.157 0 14.176-.187 20.936-.544zm-65.306-80.639c-42.231 0-67.473-6.403-72.661-10.136v-29.768l145.323 21.798v7.969c-5.189 3.734-30.432 10.137-72.662 10.137zm144.29-105.242c4.705 0 8.532 3.828 8.532 8.532v16.548h-17.064v-16.548c0-4.704 3.828-8.532 8.532-8.532zm24.565 192.904c0 7.538-3.391 14.554-9.302 19.25-6.001 4.767-13.551 6.405-21.255 4.615-8.559-1.989-15.712-9.062-17.8-17.602-2.69-11.001 1.837-21.755 11.534-27.399 2.308-1.343 3.728-3.812 3.728-6.482v-125.205h17.064v125.205c0 2.67 1.419 5.139 3.728 6.482 7.702 4.484 12.303 12.386 12.303 21.136z"/></g></svg>