<svg xmlns="http://www.w3.org/2000/svg" width="17.28" height="23.98" viewBox="0 0 17.28 23.98"><path d="M435.994,3522.393a2.37,2.37,0,0,0-1.805-1.855h0l-3.621-.9v-.127h2.766a1.035,1.035,0,0,0,1.034-1.034V3513.2a1.3,1.3,0,0,0,0-.6v-1.926a.351.351,0,1,0-.7,0v1.008a1.82,1.82,0,0,0-.625-.229.917.917,0,0,0-.772-.706,1.144,1.144,0,0,1-.9-.7.6.6,0,0,0-1.026-.094,6.426,6.426,0,0,1-5.18,2.665c-.22,0-.37-.011-.422-.013a.929.929,0,0,0-.983.927v.807a4.767,4.767,0,0,0,1.468,3.432,4.7,4.7,0,0,0,1.015.738v.292h-2.753a.332.332,0,0,1-.332-.332v-7.894a4.665,4.665,0,0,1,4.605-4.668h.024a5.978,5.978,0,0,1,2.655.653c.45.249.728.051,1.173.051a2.337,2.337,0,0,1,2.059,2.12c0,.015,0,.073,0,.3a.358.358,0,0,0,.352.351.351.351,0,0,0,.351-.352c0-.062,0-.307-.005-.364a3.029,3.029,0,0,0-2.758-2.757c-.557,0-.643.141-.833.036a6.735,6.735,0,0,0-2.991-.741,5.365,5.365,0,0,0-5.336,5.371v7.895a1.035,1.035,0,0,0,1.034,1.034h2.753v.127l-3.607.894-.014,0-.264.078-.023.008a2.33,2.33,0,0,0-1.518,1.77c-1.069,5.372-1.024,5.142-1.026,5.16a1.317,1.317,0,0,0,1.424,1.64H425a.351.351,0,0,0,0-.7h-1.322v-3.314a.351.351,0,0,0-.7,0v3.314h-1.774c-.466,0-.737-.15-.742-.64,0-.24-.012-.006,1.033-5.32a1.646,1.646,0,0,1,1.064-1.245l.243-.072,2.071-.514c2.3,2.716,2.168,2.572,2.3,2.7a1.7,1.7,0,0,0,2.589-.151l2.169-2.549,2.063.512a1.7,1.7,0,0,1,1.308,1.316c1.036,5.268,1.035,5.08,1.033,5.32,0,.48-.263.641-.742.641h-1.761v-3.314a.351.351,0,0,0-.7,0v3.314h-6.491a.351.351,0,0,0,0,.7H435.6a1.291,1.291,0,0,0,1.444-1.338C437.044,3527.453,437.02,3527.646,435.994,3522.393Zm-2.931-10.211a.882.882,0,0,1,.6.519v.4a.88.88,0,0,1-.6.519Zm0,2.227v-.065a1.817,1.817,0,0,0,.6-.225v4.359a.332.332,0,0,1-.332.332h-2.766v-.271A4.651,4.651,0,0,0,433.063,3514.409Zm-7.357,2.862a4.061,4.061,0,0,1-1.25-2.923c.021-.765-.051-.858.071-.973a.222.222,0,0,1,.167-.061,7.052,7.052,0,0,0,6.113-2.81,1.8,1.8,0,0,0,1.37.943.211.211,0,0,1,.184.208v2.753A3.944,3.944,0,0,1,425.705,3517.271Zm3.525,5.525a1.016,1.016,0,0,1-1.662,0l-.733-.865h3.134Zm1.337-1.571h-4.327l-.6-.713,1.033-.256a.355.355,0,0,0,.267-.344v-1.087a4.65,4.65,0,0,0,2.928.01,6.291,6.291,0,0,0,.02,1.2.351.351,0,0,0,.247.225l1.04.258Z" transform="translate(-419.761 -3505.213)"/></svg>