<svg width="10" height="12" viewBox="0 0 10 12" fill="none" xmlns="http://www.w3.org/2000/svg">
<path d="M4.97277 6.83571L4.97679 6.81696C5.05446 6.49688 5.15223 6.09777 5.07589 5.73616C5.025 5.45089 4.81473 5.33973 4.63527 5.3317C4.42366 5.32232 4.23482 5.44286 4.18795 5.6183C4.09955 5.93973 4.17857 6.37902 4.32321 6.93884C4.14107 7.37277 3.85045 8.00357 3.6375 8.37857C3.24107 8.58348 2.70937 8.89955 2.63036 9.29866C2.61429 9.37232 2.63304 9.46607 2.67723 9.55045C2.72679 9.6442 2.8058 9.71652 2.89821 9.75134C2.93839 9.76607 2.98661 9.77812 3.04286 9.77812C3.27857 9.77812 3.66027 9.58795 4.1692 8.71473C4.24687 8.68929 4.32723 8.6625 4.40491 8.63571C4.7692 8.5125 5.14687 8.38393 5.48839 8.32634C5.86607 8.52857 6.29598 8.65848 6.58795 8.65848C6.87723 8.65848 6.99107 8.48705 7.03393 8.38393C7.10893 8.20313 7.07277 7.97545 6.95089 7.85357C6.77411 7.67946 6.3442 7.63393 5.67455 7.71696C5.34509 7.51607 5.12946 7.24286 4.97277 6.83571ZM3.50357 8.87009C3.31741 9.14062 3.17679 9.27589 3.10045 9.33482C3.19018 9.17009 3.36563 8.99598 3.50357 8.87009ZM4.67679 5.71607C4.74643 5.83527 4.73705 6.19554 4.68348 6.37768C4.61786 6.11116 4.60848 5.73348 4.64732 5.68929C4.65804 5.69062 4.66741 5.69866 4.67679 5.71607ZM4.65536 7.32991C4.79866 7.57768 4.97946 7.79063 5.17902 7.94866C4.88973 8.01429 4.62589 8.12277 4.39018 8.2192C4.33393 8.24196 4.27902 8.26473 4.22545 8.28616C4.40357 7.96339 4.55223 7.59777 4.65536 7.32991V7.32991ZM6.73929 8.20714C6.74063 8.20982 6.74196 8.21384 6.73393 8.2192H6.73125L6.72857 8.22321C6.71786 8.22991 6.60804 8.2942 6.13527 8.10804C6.67902 8.08259 6.73795 8.2058 6.73929 8.20714V8.20714ZM9.30268 3.00804L6.42054 0.125893C6.34018 0.0455357 6.2317 0 6.11786 0H0.428571C0.191518 0 0 0.191518 0 0.428571V11.5714C0 11.8085 0.191518 12 0.428571 12H9C9.23705 12 9.42857 11.8085 9.42857 11.5714V3.31205C9.42857 3.19821 9.38304 3.08839 9.30268 3.00804V3.00804ZM8.44018 3.50893H5.91964V0.988393L8.44018 3.50893ZM8.46429 11.0357H0.964286V0.964286H5.00893V3.85714C5.00893 4.00633 5.06819 4.1494 5.17368 4.25489C5.27917 4.36038 5.42224 4.41964 5.57143 4.41964H8.46429V11.0357Z" fill="#009FE3"/>
</svg>
