<svg width="10" height="12" viewBox="0 0 10 12" fill="none" xmlns="http://www.w3.org/2000/svg">
<path d="M3.53571 5.51786C3.47679 5.51786 3.42857 5.56607 3.42857 5.625V9.32143C3.42857 9.38036 3.47679 9.42857 3.53571 9.42857H3.97098C4.02991 9.42857 4.07813 9.38036 4.07813 9.32143V8.04241H4.92589C5.72143 8.04241 6.21429 7.52143 6.21429 6.78214C6.21429 6.05223 5.72813 5.5192 4.92857 5.5192H3.53571V5.51786ZM5.55268 6.7808C5.55268 7.36205 5.19777 7.50804 4.59911 7.50804H4.07813V6.05625H4.8308C5.28348 6.05625 5.55268 6.32009 5.55268 6.7808V6.7808ZM9.30268 3.00804L6.42054 0.125893C6.34018 0.0455357 6.2317 0 6.11786 0H0.428571C0.191518 0 0 0.191518 0 0.428571V11.5714C0 11.8085 0.191518 12 0.428571 12H9C9.23705 12 9.42857 11.8085 9.42857 11.5714V3.31205C9.42857 3.19821 9.38304 3.08839 9.30268 3.00804V3.00804ZM8.44018 3.50893H5.91964V0.988393L8.44018 3.50893ZM8.46429 11.0357H0.964286V0.964286H5.00893V3.85714C5.00893 4.00633 5.06819 4.1494 5.17368 4.25489C5.27917 4.36038 5.42224 4.41964 5.57143 4.41964H8.46429V11.0357Z" fill="#009FE3"/>
</svg>
