<svg xmlns="http://www.w3.org/2000/svg" width="9.28" height="15.75" viewBox="0 0 9.28 15.75">
  <defs>
    <style>
      .cls-1 {
        fill: #00a0e1;
        fill-rule: evenodd;
      }
    </style>
  </defs>
  <path id="back" class="cls-1" d="M1281.78,1130l5.89-5.9a0.869,0.869,0,0,0,0-1.22l-0.52-.52a0.839,0.839,0,0,0-.6-0.25,0.862,0.862,0,0,0-.61.25l-7.02,7.03a0.862,0.862,0,0,0-.25.61,0.886,0.886,0,0,0,.25.62l7.01,7.01a0.846,0.846,0,0,0,1.22,0l0.51-.51a0.857,0.857,0,0,0,0-1.22Z" transform="translate(-1278.66 -1122.13)"/>
</svg>
