<svg id="Layer_1" enable-background="new 0 0 512 512" height="512" viewBox="0 0 512 512" width="512" xmlns="http://www.w3.org/2000/svg"><g><path d="m412.963 141.985c-10.756-13.062-26.628-20.552-43.548-20.551-31.107 0-56.415 25.309-56.415 56.416v25.584h-35.039v-164.369c0-4.143-3.357-7.5-7.5-7.5h-30c-4.143 0-7.5 3.357-7.5 7.5v24.988c0 4.143 3.357 7.5 7.5 7.5s7.5-3.357 7.5-7.5v-17.488h15v164.369c0 4.143 3.357 7.5 7.5 7.5h76.88c3.067 0 5.826-1.868 6.965-4.717l13.447-33.651 13.929 5.566-15.013 37.568c-.714 1.787-.714 3.779 0 5.566l14.974 37.47-13.929 5.566-13.447-33.652c-1.139-2.849-3.897-4.717-6.965-4.717h-182.681c-3.067 0-5.826 1.868-6.965 4.717l-13.447 33.652-13.929-5.566 15.013-37.568c.714-1.787.714-3.779 0-5.566l-14.974-37.47 13.929-5.566 13.447 33.651c1.139 2.849 3.897 4.717 6.965 4.717h75.802c4.143 0 7.5-3.357 7.5-7.5v-111.801c0-4.143-3.357-7.5-7.5-7.5s-7.5 3.357-7.5 7.5v104.302h-33.961v-25.584c0-31.107-25.309-56.416-56.415-56.416-.003 0-.002 0-.004 0-16.917 0-32.789 7.491-43.544 20.551-63.866 77.55-99.038 175.586-99.038 276.048.001 34.408 27.994 62.4 62.401 62.4h6.424c4.143 0 7.5-3.357 7.5-7.5s-3.357-7.5-7.5-7.5h-6.424c-26.137 0-47.4-21.264-47.401-47.4 0-96.991 33.957-191.641 95.616-266.514 7.896-9.588 19.547-15.086 31.966-15.086h.003c22.837 0 41.416 18.579 41.416 41.416v25.584h-14.261l-14.346-35.899c-.738-1.847-2.18-3.325-4.008-4.109-1.828-.783-3.894-.809-5.74-.072l-27.857 11.133c-3.847 1.537-5.719 5.901-4.182 9.748l16.645 41.651-16.684 41.75c-1.537 3.847.335 8.211 4.182 9.748l27.857 11.133c1.847.736 3.912.712 5.74-.072s3.27-2.263 4.008-4.109l14.346-35.9h17.165l13.481 26.963c5.008 10.014 7.654 21.226 7.654 32.423v101.114c0 31.154-25.346 56.5-56.5 56.5h-47.33c-4.143 0-7.5 3.357-7.5 7.5s3.357 7.5 7.5 7.5h47.33c39.425 0 71.5-32.075 71.5-71.5v-101.116c0-13.514-3.194-27.045-9.238-39.131l-10.127-20.255h104.73l-10.127 20.255c-6.044 12.087-9.239 25.619-9.239 39.131v8.445c0 4.143 3.357 7.5 7.5 7.5s7.5-3.357 7.5-7.5v-8.445c0-11.196 2.646-22.408 7.653-32.423l13.482-26.963h17.086l14.346 35.9c.738 1.847 2.18 3.325 4.008 4.109.943.404 1.95.607 2.957.607.944 0 1.89-.179 2.783-.535l27.857-11.133c3.847-1.537 5.719-5.901 4.182-9.748l-16.645-41.651 16.684-41.75c1.537-3.847-.335-8.211-4.182-9.748l-27.857-11.133c-1.847-.736-3.911-.711-5.74.072-1.828.784-3.27 2.263-4.008 4.109l-14.346 35.899h-14.26v-25.584c0-22.837 18.579-41.416 41.416-41.416 12.42-.001 24.072 5.498 31.969 15.086 61.658 74.875 95.615 169.524 95.615 266.516 0 26.137-21.265 47.4-47.401 47.4h-89.099c-31.154 0-56.5-25.346-56.5-56.5v-58.512c0-4.143-3.357-7.5-7.5-7.5s-7.5 3.357-7.5 7.5v58.512c0 39.425 32.075 71.5 71.5 71.5h89.098c34.408 0 62.401-27.993 62.401-62.4.001-100.463-35.171-198.499-99.036-276.049z"/><g><path d="m153.328 351.672h-13.617c-.491-1.609-1.135-3.151-1.917-4.611l6.557-6.557c2.929-2.93 2.929-7.678 0-10.607-2.93-2.928-7.678-2.928-10.607 0l-6.557 6.557c-1.459-.781-3.002-1.426-4.611-1.917v-13.617c0-4.143-3.357-7.5-7.5-7.5s-7.5 3.357-7.5 7.5v13.617c-1.609.491-3.151 1.136-4.611 1.917l-17.623-17.622c-2.928-2.928-7.677-2.929-10.606.001-2.929 2.929-2.929 7.678.001 10.606l17.622 17.621c-.781 1.459-1.426 3.002-1.917 4.611h-13.617c-4.143 0-7.5 3.357-7.5 7.5s3.357 7.5 7.5 7.5h13.617c.491 1.609 1.135 3.151 1.916 4.61l-6.557 6.557c-2.929 2.93-2.929 7.678 0 10.607 1.465 1.464 3.385 2.196 5.304 2.196s3.839-.732 5.304-2.196l6.557-6.557c1.459.781 3.001 1.425 4.61 1.916v13.617c0 4.143 3.357 7.5 7.5 7.5s7.5-3.357 7.5-7.5v-13.617c1.609-.491 3.152-1.135 4.611-1.917l17.621 17.622c1.465 1.465 3.384 2.197 5.304 2.197 1.919 0 3.839-.732 5.303-2.196 2.93-2.929 2.93-7.678.001-10.606l-17.622-17.623c.781-1.459 1.426-3.002 1.917-4.611h13.617c4.143 0 7.5-3.357 7.5-7.5s-3.358-7.498-7.5-7.498zm-38.252 18.251c-5.928 0-10.751-4.823-10.751-10.751 0-5.929 4.823-10.752 10.751-10.752 5.929 0 10.752 4.823 10.752 10.752 0 5.928-4.823 10.751-10.752 10.751z"/><ellipse cx="49.946" cy="401.131" rx="7.495" ry="7.498"/><ellipse cx="46.077" cy="352.831" rx="7.495" ry="7.498"/><ellipse cx="83.087" cy="284.831" rx="7.495" ry="7.498"/><ellipse cx="177.086" cy="314.831" rx="7.495" ry="7.498"/><ellipse cx="183.082" cy="381.835" rx="7.495" ry="7.498"/><ellipse cx="85.672" cy="434.871" rx="7.495" ry="7.498"/><path d="m144.082 422.337c-4.14 0-7.495 3.357-7.495 7.498s3.356 7.498 7.495 7.498 7.495-3.357 7.495-7.498-3.356-7.498-7.495-7.498z"/></g><g><path d="m351.165 359.178c0 4.143 3.357 7.5 7.5 7.5h13.617c.491 1.609 1.136 3.151 1.917 4.611l-17.622 17.623c-2.929 2.929-2.929 7.678.001 10.606 1.464 1.464 3.384 2.196 5.303 2.196 1.92 0 3.839-.732 5.304-2.197l17.621-17.622c1.459.781 3.002 1.426 4.611 1.917v13.617c0 4.143 3.357 7.5 7.5 7.5s7.5-3.357 7.5-7.5v-13.617c1.609-.491 3.151-1.135 4.61-1.916l6.557 6.557c1.465 1.464 3.385 2.196 5.304 2.196s3.839-.732 5.304-2.196c2.929-2.93 2.929-7.678 0-10.607l-6.557-6.557c.781-1.459 1.425-3.001 1.916-4.61h13.617c4.143 0 7.5-3.357 7.5-7.5s-3.357-7.5-7.5-7.5h-13.617c-.491-1.609-1.135-3.152-1.917-4.611l17.622-17.621c2.93-2.929 2.93-7.678.001-10.606-2.93-2.93-7.679-2.929-10.606-.001l-17.623 17.622c-1.459-.781-3.002-1.426-4.611-1.917v-13.617c0-4.143-3.357-7.5-7.5-7.5s-7.5 3.357-7.5 7.5v13.617c-1.609.491-3.151 1.135-4.611 1.917l-6.557-6.557c-2.93-2.928-7.678-2.928-10.607 0-2.929 2.93-2.929 7.678 0 10.607l6.557 6.557c-.781 1.459-1.426 3.002-1.917 4.611h-13.617c-4.142-.002-7.5 3.356-7.5 7.498zm35 0c0-5.929 4.823-10.752 10.752-10.752 5.928 0 10.751 4.823 10.751 10.752 0 5.928-4.823 10.751-10.751 10.751s-10.752-4.823-10.752-10.751z"/><ellipse cx="462.047" cy="401.137" rx="7.495" ry="7.498"/><ellipse cx="465.916" cy="352.838" rx="7.495" ry="7.498"/><ellipse cx="428.907" cy="284.838" rx="7.495" ry="7.498"/><ellipse cx="334.907" cy="314.838" rx="7.495" ry="7.498"/><ellipse cx="328.911" cy="381.841" rx="7.495" ry="7.498"/><ellipse cx="426.321" cy="434.878" rx="7.495" ry="7.498"/><path d="m367.911 422.343c4.14 0 7.495 3.357 7.495 7.498s-3.356 7.498-7.495 7.498-7.495-3.357-7.495-7.498 3.356-7.498 7.495-7.498z"/></g></g></svg>