<svg width="38" height="34" viewBox="0 0 38 34" fill="none" xmlns="http://www.w3.org/2000/svg">
<g clip-path="url(#clip0)">
<path fill-rule="evenodd" clip-rule="evenodd" d="M18.7647 4.41317C25.0856 4.41317 30.2096 9.5372 30.2096 15.8581C30.2096 22.1789 25.0856 27.3029 18.7647 27.3029C12.4439 27.3029 7.31985 22.1789 7.31985 15.8581C7.31985 9.5372 12.4439 4.41317 18.7647 4.41317ZM18.7647 3.88062C25.3797 3.88062 30.7422 9.24311 30.7422 15.8581C30.7422 22.473 25.3797 27.8355 18.7647 27.8355C12.1498 27.8355 6.7876 22.473 6.7876 15.8581C6.7876 9.24311 12.1501 3.88062 18.7647 3.88062Z" fill="white"/>
<path d="M17.2268 15.1208V15.1112L17.2271 15.0342H17.3038L18.8154 15.0366V15.1905L17.3807 15.1884V15.1981H17.3155V15.275L16.7087 15.2735L16.7099 15.2997L16.7135 15.3797H16.6329L14.6374 15.38L14.6407 15.6085L14.6419 15.687L14.5634 15.6864L13.2475 15.6786L13.2397 16.1705L14.5252 16.1724L14.6025 16.1727L14.6022 16.2493L14.6019 16.366H17.6171V16.3513L17.7711 16.3525L17.7705 16.4439L17.7699 16.5206H17.6935H14.6037L14.6007 16.7169V16.7178L14.6004 16.7954H14.5995L14.5932 17.1933L18.8157 17.1954V17.3493L14.537 17.3472L14.5249 17.5959L14.5213 17.6696L14.4479 17.6693L13.1483 17.6645L13.0629 17.6654L13.1396 17.7691L13.1537 17.7884V17.7905L14.454 17.7887V17.9372L14.5309 17.9384L14.4233 24.6826H15.2782V24.772H14.4107L14.3983 24.7837L14.3815 24.7993L15.3666 24.7984V24.8661H15.3898V24.9554L14.3201 24.9575L14.3084 25.0504L14.3015 25.1048L14.248 25.1163L14.2227 25.1217L14.2185 25.211L14.2149 25.2847L14.1412 25.2844L12.5078 25.2768L11.3979 25.3027C11.3453 25.2618 11.2935 25.22 11.2418 25.1779L12.2188 25.1698L12.9766 25.0396L13.065 17.9333L13.0046 17.9234L13.0021 17.8602L13.0015 17.8422L12.9122 17.7213L12.8978 17.7017L12.8972 17.6774L12.8951 17.5917L12.8933 17.5138L12.9715 17.5129L13.0722 17.5117L13.0755 17.3292L6.87736 17.3244C6.87105 17.2729 6.86533 17.2218 6.85962 17.1704L13.0782 17.1755L13.0791 17.1301L12.8226 16.7518L12.8106 16.7341L12.8094 16.713L12.8019 16.5771L12.644 16.2803L12.5833 16.166L12.7129 16.1672L13.086 16.1705L13.0936 15.6969L13.0593 15.6431L12.9832 15.524L13.1245 15.5249L14.4861 15.5331L14.484 15.3821L14.4603 15.3481L14.3761 15.2269H14.5237L16.5306 15.2266L16.4395 15.1199L16.607 15.1202L17.2274 15.1217L17.2268 15.1208ZM12.4855 26.0587L18.8154 26.0503V26.2042L12.7414 26.2123C12.6554 26.1621 12.57 26.1107 12.4852 26.0587H12.4855ZM16.8419 24.7978L18.1057 24.7951V24.8652H18.1211V24.9545H16.8295V24.8652H16.8419V24.7975V24.7978ZM16.9459 24.6842L18.0149 24.6854V24.7747L16.9459 24.7735V24.6842ZM13.2295 17.3289L13.2262 17.5108L14.3746 17.515L14.3851 17.2979L14.3872 17.2564L14.423 17.2351L14.4389 17.2257L14.4455 16.7945L13.0322 16.7858L13.2205 17.0633L13.2343 17.0835L13.2337 17.1076L13.2313 17.2528L13.2301 17.3286L13.2295 17.3289ZM13.2187 17.9441L13.1296 25.1051L13.1293 25.1253L14.0679 25.1295L14.0715 25.0546L14.0742 24.9954L14.1325 24.9828L14.1623 24.9764L14.1851 24.7963L14.1887 24.7686L14.2089 24.7497L14.2693 24.6929L14.3773 17.9423L13.219 17.9438L13.2187 17.9441ZM15.0842 17.6245L17.1549 17.6034L17.1561 17.7574L15.0854 17.7784L15.0842 17.6245ZM17.7708 17.6013L18.8154 17.5947L18.816 17.7487L17.7714 17.7553L17.7708 17.6013ZM12.9591 16.6312L14.4467 16.6403L14.4476 16.326L13.237 16.3245V16.3251L13.1606 16.3245L12.841 16.3215L12.9456 16.5185L12.9534 16.5332L12.9543 16.5506L12.9588 16.6315L12.9591 16.6312Z" fill="white"/>
<path d="M17.8145 17.6713L17.8319 17.7345L17.8334 17.7396V17.7453L17.8376 17.8827L17.8382 17.8993L17.828 17.9122L17.7892 17.9606L17.8106 18.0231L17.8199 18.0505L17.7985 18.0704L17.7805 18.0872L17.7661 18.1007L17.7465 18.0989L17.5715 18.0842L17.3297 18.0818L17.1523 18.1302L17.1018 18.144L17.0964 18.0917L17.0898 18.0286L17.0886 18.0171L17.0931 18.0066L17.1072 17.9738L17.0606 17.9206L17.0498 17.9083L17.0495 17.8917L17.0477 17.7588L17.0474 17.7423L17.0579 17.7297L17.118 17.6569L17.1448 17.5964L17.1556 17.5721L17.1824 17.5703C17.2744 17.564 17.3658 17.5619 17.4581 17.5631C17.5507 17.5643 17.6425 17.5685 17.7366 17.5745L17.7603 17.576L17.7724 17.5967L17.8106 17.662L17.8133 17.6668L17.8148 17.6728L17.8145 17.6713ZM17.7444 17.7531L17.73 17.7011L17.7065 17.6611C17.6202 17.656 17.5372 17.6524 17.4563 17.6512C17.3763 17.6503 17.2964 17.6518 17.2146 17.6569L17.1959 17.6984L17.1932 17.7044L17.1896 17.7089L17.1361 17.7736L17.1376 17.8737L17.192 17.9359L17.2106 17.957L17.1995 17.9829L17.1794 18.0301L17.3117 17.994L17.3177 17.9925H17.3237L17.5748 17.9952H17.5781L17.7095 18.0063L17.696 17.9663L17.6882 17.9432L17.7035 17.9239L17.7474 17.8692L17.7438 17.7537L17.7444 17.7531ZM14.495 18.0319L14.5641 18.0111L14.5698 18.0093H14.5765L14.8988 18.0054H14.9036L14.9075 18.0063L15.0928 18.0421L15.0943 17.8433L15.0889 17.782L15.0486 17.7285L15.045 17.7236L15.0432 17.7191L15.0281 17.684C14.9364 17.6767 14.8453 17.6737 14.7554 17.6746C14.6589 17.6752 14.562 17.6806 14.4649 17.6897L14.4556 17.6948L14.4568 17.809L14.4703 17.8169L14.4929 17.8295L14.4932 17.8554L14.495 18.0319ZM14.584 18.0983L14.4637 18.1347L14.4069 18.1519L14.4063 18.092L14.4042 17.8815L14.3906 17.874L14.3684 17.8614L14.3681 17.8355L14.3663 17.6686L14.366 17.6422L14.3894 17.6292L14.43 17.6067L14.4378 17.6025L14.4472 17.6016C14.5497 17.5916 14.6522 17.5859 14.7548 17.585C14.8585 17.5841 14.9611 17.588 15.0627 17.5967L15.0895 17.5992L15.1 17.6238L15.1237 17.6791L15.1683 17.7384L15.1761 17.7489L15.1773 17.7615L15.1839 17.8358V17.8361V17.84L15.1818 18.0962L15.1815 18.15L15.1289 18.1398L14.8952 18.0947L14.5846 18.0986L14.584 18.0983Z" fill="white"/>
<path fill-rule="evenodd" clip-rule="evenodd" d="M7.57544 20.1377L13.0946 20.0793L13.1129 20.2724L7.63799 20.298C7.61664 20.2447 7.59619 20.1912 7.57544 20.1374V20.1377ZM7.78293 20.6447L13.0826 20.577L13.1066 20.7692L7.8563 20.8107C7.83134 20.7556 7.80728 20.7003 7.78293 20.6447Z" fill="white"/>
<path fill-rule="evenodd" clip-rule="evenodd" d="M11.8535 19.9022L12.7547 19.904L12.7568 18.7301L11.8556 18.7283L11.8535 19.9022ZM11.9657 19.4452L12.261 19.4458L12.2622 18.8272L11.9666 18.8266L11.9657 19.4449V19.4452ZM11.9657 19.8015L12.2586 19.8021L12.2589 19.5522L11.9663 19.5516L11.9657 19.8015ZM12.3494 19.4452L12.6447 19.4458L12.6456 18.8272L12.3503 18.8266L12.3494 19.4449V19.4452ZM12.3494 19.8015L12.642 19.8021L12.6423 19.5522L12.3497 19.5516L12.3494 19.8015Z" fill="white"/>
<path d="M18.8154 15.6035C18.7976 15.6019 18.7799 15.601 18.7616 15.601V15.6013V15.601C18.5787 15.6007 18.413 15.6744 18.2931 15.7941C18.1731 15.9135 18.0988 16.0789 18.0985 16.2614C18.0982 16.4439 18.1719 16.6096 18.2915 16.7296C18.4109 16.8496 18.5763 16.9239 18.7588 16.9242C18.7781 16.9242 18.7967 16.9233 18.8154 16.9217V17.0592C18.7967 17.0604 18.7778 17.0613 18.7588 17.061C18.5381 17.0607 18.3388 16.9708 18.1944 16.8261C18.0501 16.6815 17.9611 16.4815 17.9617 16.2611C17.9623 16.0404 18.0519 15.8407 18.1965 15.6967C18.3412 15.5526 18.5411 15.4636 18.7616 15.4639V15.4636V15.4639C18.7796 15.4639 18.7976 15.4645 18.8154 15.4657V15.6032V15.6035Z" fill="white"/>
<path fill-rule="evenodd" clip-rule="evenodd" d="M17.8032 16.0361L14.1201 16.0349L14.1276 16.1471L14.2296 16.3107L14.2305 16.4505L14.5273 16.449V16.4878H14.6506V16.5323L14.6503 16.5771H14.6951L14.8911 16.5774H14.9359V16.5326V16.4878H15.1476L15.1473 16.5314V16.5762H15.1921L15.3879 16.5765H15.4327V16.532V16.4878H15.6441V16.5341V16.5786H15.6886L15.8847 16.5792H15.9295V16.5344V16.4878H16.0861L16.0858 16.5335V16.578L16.1306 16.5783L16.3267 16.5786H16.3712V16.5338V16.4878H16.5065V16.5317V16.5765H16.551L16.7471 16.5768H16.7916V16.5323L16.7919 16.4878H16.9287V16.5344L16.9284 16.5789H16.9732L17.1693 16.5792H17.2138V16.5347L17.2141 16.4878H17.3446V16.5308L17.3443 16.5756H17.3891L17.5852 16.5759H17.6297V16.5311V16.4878H17.6931H17.7373L17.8032 16.0361Z" fill="white"/>
<path fill-rule="evenodd" clip-rule="evenodd" d="M10.4038 19.9022L11.305 19.904L11.3071 18.7301L10.4059 18.7283L10.4038 19.9022ZM10.516 19.4452L10.8113 19.4458L10.8122 18.8272L10.5169 18.8266L10.516 19.4449V19.4452ZM10.516 19.8015L10.8089 19.8021L10.8092 19.5522L10.5166 19.5516L10.516 19.8015ZM10.8994 19.4452L11.1947 19.4458L11.1956 18.8272L10.9003 18.8266L10.8994 19.4449V19.4452ZM10.8994 19.8015L11.1923 19.8021L11.1926 19.5522L10.9 19.5516L10.8994 19.8015Z" fill="white"/>
<path fill-rule="evenodd" clip-rule="evenodd" d="M8.96509 19.9022L9.86631 19.904L9.86841 18.7301L8.96719 18.7283L8.96509 19.9022ZM9.07725 19.4452L9.37255 19.4458L9.37345 18.8272L9.07815 18.8266L9.07725 19.4449V19.4452ZM9.07725 19.8015L9.36984 19.8021L9.37044 19.5522L9.07755 19.5516L9.07725 19.8015ZM9.46065 19.4452L9.75595 19.4458L9.75685 18.8272L9.46155 18.8266L9.46065 19.4449V19.4452ZM9.46065 19.8015L9.75324 19.8021L9.75384 19.5522L9.46095 19.5516L9.46065 19.8015Z" fill="white"/>
<path fill-rule="evenodd" clip-rule="evenodd" d="M7.49048 19.9022L8.3917 19.904L8.3938 18.7301L7.49258 18.7283L7.49048 19.9022ZM7.60264 19.4452L7.89794 19.4458L7.89884 18.8272L7.60354 18.8266L7.60264 19.4449V19.4452ZM7.60264 19.8015L7.89523 19.8021L7.89583 19.5522L7.60294 19.5516L7.60264 19.8015ZM7.98604 19.4452L8.28134 19.4458L8.28254 18.8272L7.98725 18.8266L7.98634 19.4449L7.98604 19.4452ZM7.98604 19.8015L8.27863 19.8021L8.27923 19.5522L7.98634 19.5516L7.98604 19.8015Z" fill="white"/>
<path fill-rule="evenodd" clip-rule="evenodd" d="M11.8535 22.2919L12.7547 22.2937L12.7568 21.1197L11.8556 21.1179L11.8535 22.2919ZM11.9657 21.8348L12.261 21.8354L12.2622 21.2169L11.9666 21.2163L11.9657 21.8345V21.8348ZM11.9657 22.1911L12.2586 22.1917L12.2589 21.9419L11.9663 21.9413L11.9657 22.1911ZM12.3494 21.8348L12.6447 21.8354L12.6456 21.2169L12.3503 21.2163L12.3494 21.8345V21.8348ZM12.3494 22.1911L12.642 22.1917L12.6423 21.9419L12.3497 21.9413L12.3494 22.1911Z" fill="white"/>
<path fill-rule="evenodd" clip-rule="evenodd" d="M10.4038 22.2919L11.305 22.2937L11.3071 21.1197L10.4059 21.1179L10.4038 22.2919ZM10.516 21.8348L10.8113 21.8354L10.8122 21.2169L10.5169 21.2163L10.516 21.8345V21.8348ZM10.516 22.1911L10.8089 22.1917L10.8092 21.9419L10.5166 21.9413L10.516 22.1911ZM10.8994 21.8348L11.1947 21.8354L11.1956 21.2169L10.9003 21.2163L10.8994 21.8345V21.8348ZM10.8994 22.1911L11.1923 22.1917L11.1926 21.9419L10.9 21.9413L10.8994 22.1911Z" fill="white"/>
<path fill-rule="evenodd" clip-rule="evenodd" d="M8.96509 22.2919L9.86631 22.2937L9.86841 21.1197L8.96719 21.1179L8.96509 22.2919ZM9.07725 21.8348L9.37255 21.8354L9.37345 21.2169L9.07815 21.2163L9.07725 21.8345V21.8348ZM9.07725 22.1911L9.36984 22.1917L9.37044 21.9419L9.07755 21.9413L9.07725 22.1911ZM9.46065 21.8348L9.75595 21.8354L9.75685 21.2169L9.46155 21.2163L9.46065 21.8345V21.8348ZM9.46065 22.1911L9.75324 22.1917L9.75384 21.9419L9.46095 21.9413L9.46065 22.1911Z" fill="white"/>
<path fill-rule="evenodd" clip-rule="evenodd" d="M11.8535 24.6368L12.7547 24.6386L12.7568 23.4646L11.8556 23.4631L11.8535 24.6371V24.6368ZM11.9657 24.1797L12.261 24.1803L12.2622 23.5618L11.9666 23.5612L11.9657 24.1794V24.1797ZM11.9657 24.5361L12.2586 24.5367L12.2589 24.2868L11.9663 24.2862L11.9657 24.5361ZM12.3494 24.1797L12.6447 24.1803L12.6456 23.5618L12.3503 23.5612L12.3494 24.1794V24.1797ZM12.3494 24.5361L12.642 24.5367L12.6423 24.2868L12.3497 24.2862L12.3494 24.5361Z" fill="white"/>
<path fill-rule="evenodd" clip-rule="evenodd" d="M10.6183 24.6371L11.3055 24.6384L11.3076 23.4644L10.4063 23.4629L10.4045 24.4339C10.4749 24.5024 10.5462 24.5704 10.6183 24.6371ZM10.5164 24.1795L10.8117 24.1801L10.8126 23.5615L10.5173 23.5609L10.5164 24.1792V24.1795ZM10.5164 24.5358L10.8093 24.5364L10.8096 24.2865L10.517 24.2859L10.5164 24.5358ZM10.8998 24.1795L11.1951 24.1801L11.196 23.5615L10.9007 23.5609L10.8998 24.1792V24.1795ZM10.8998 24.5358L11.1927 24.5364L11.193 24.2865L10.9004 24.2859L10.8998 24.5358Z" fill="white"/>
<path fill-rule="evenodd" clip-rule="evenodd" d="M22.1446 25.2087L22.1557 25.0668L22.2075 25.0328L22.2835 24.7868L22.3467 24.7264L22.4219 17.9433L20.4032 17.9271L20.3707 17.9644L20.3954 18.023L20.3888 18.0862L20.4754 24.7282L20.55 24.7874L20.5677 24.9098L20.6203 25.0532L20.6564 25.0644V25.2042L22.1443 25.2087H22.1446ZM21.9317 19.6865L21.932 19.8576L21.7901 19.8579L21.7904 19.9569L21.68 19.9572L21.6797 19.8582L20.8777 19.8597L20.878 19.9566H20.7743L20.774 19.8597L20.648 19.86L20.6477 19.6889C21.0762 19.688 21.5059 19.6871 21.932 19.6865H21.9317ZM20.8137 19.5924L20.8113 18.1788L21.7215 18.177L21.7239 19.5924H20.8137ZM21.9362 22.2013L21.9365 22.3727L21.7946 22.373L21.7949 22.472L21.6845 22.4723L21.6842 22.3733L20.8819 22.3745L20.8822 22.4714L20.7785 22.4717L20.7782 22.3748L20.6519 22.3751L20.6516 22.2037C21.0801 22.2031 21.5098 22.2022 21.9359 22.2013H21.9362ZM20.8185 22.1072L20.8158 20.6936L21.726 20.6921L21.7287 22.1072H20.8185ZM21.7335 24.6223L20.8233 24.6241L20.8206 23.2397L21.7308 23.2379L21.7335 24.6223ZM19.4816 25.2087L18.8152 25.2099H18.7647H18.7142L18.0478 25.2087L18.0436 25.0481L17.9882 24.9101L17.9672 24.7883L17.9034 24.7297L17.8211 21.4012L17.7495 18.0537L17.7675 18.0369L17.7384 17.9512L17.7549 17.9304L18.7136 17.9223V17.9214L18.7641 17.9217L18.8146 17.9214V17.9223L19.7729 17.9304L19.7898 17.9512L19.7606 18.0369L19.7787 18.0537L19.7071 21.4012L19.6247 24.7297L19.5612 24.7883L19.5402 24.9101L19.4849 25.0481L19.481 25.2087H19.4816ZM18.8152 25.0674V25.0671L19.2626 25.065L19.2678 23.243L18.8152 23.2418V23.2415L18.7647 23.2418L18.7142 23.2415V23.2418L18.2613 23.243L18.2667 25.065L18.7142 25.0671V25.0674L18.7647 25.0671L18.8152 25.0674ZM18.8152 22.3739L19.189 22.3745V22.4714L19.2927 22.4717V22.3748L19.419 22.3751L19.4193 22.2037L18.8152 22.2028L18.7142 22.2025L18.135 22.2013L18.1344 22.3727L18.2766 22.373L18.2763 22.472L18.3867 22.4723V22.3733L18.7139 22.3739H18.8149H18.8152ZM18.8152 22.1072H19.2308L19.2332 20.6936L18.8152 20.693L18.7142 20.6927L18.3229 20.6921L18.3202 22.1072H18.7142H18.8152ZM18.8152 19.854L19.189 19.8546V19.9515L19.2927 19.9518V19.8549H19.419L19.4193 19.6838L18.8152 19.6829L18.7142 19.6826L18.135 19.6817L18.1344 19.8531H18.2766L18.2763 19.9524L18.3867 19.9527V19.8534L18.7139 19.854L18.8149 19.8543L18.8152 19.854ZM18.8152 19.5873H19.2308L19.2332 18.1737L18.8152 18.1728H18.7142L18.3229 18.1722L18.3202 19.5873H18.7142H18.8152ZM15.5976 19.6865L15.5973 19.8576L15.7393 19.8579L15.739 19.9569L15.8493 19.9572L15.8496 19.8582L16.6516 19.8597L16.6513 19.9566H16.755L16.7553 19.8597L16.8813 19.86L16.8816 19.6889C16.4531 19.688 16.0234 19.6871 15.5973 19.6865H15.5976ZM16.7154 19.5924L16.7178 18.1788L15.8075 18.177L15.8048 19.5924H16.7154ZM15.5928 22.2013L15.5925 22.3727L15.7345 22.373L15.7342 22.472L15.8445 22.4723L15.8448 22.3733L16.6468 22.3745V22.4714L16.7505 22.4717V22.3748L16.8768 22.3751L16.8771 22.2037C16.4486 22.2031 16.0189 22.2022 15.5928 22.2013ZM16.7105 22.1072L16.7133 20.6936L15.803 20.6921L15.8003 22.1072H16.7105ZM15.7955 24.6223L16.7057 24.6241L16.7084 23.2397L15.7979 23.2379L15.7952 24.6223H15.7955ZM15.3847 25.2087L15.3736 25.0668L15.3216 25.0328L15.2455 24.7868L15.1824 24.7264L15.1072 17.9433L17.1258 17.9271L17.1586 17.9644L17.1336 18.023L17.1403 18.0862L17.0537 24.7282L16.9791 24.7874L16.9613 24.9098L16.9087 25.0532L16.8726 25.0644L16.8723 25.2042L15.3844 25.2087H15.3847Z" fill="white"/>
<path d="M20.3028 15.1208V15.1112L20.3025 15.0342H20.2258L18.7142 15.0366V15.1905L20.1488 15.1884V15.1981H20.2141V15.275L20.8206 15.2735L20.8194 15.2997L20.8161 15.3797H20.8964L22.8919 15.38L22.8886 15.6085L22.8874 15.687L22.9659 15.6864L24.2817 15.6786L24.2896 16.1705L23.004 16.1724L22.9268 16.1727L22.9271 16.2493L22.9274 16.366H19.9122V16.3513L19.7582 16.3525L19.7591 16.4439L19.7597 16.5206H19.8361H22.9259L22.9289 16.7169V16.7178L22.9292 16.7954H22.9301L22.9364 17.1933L18.7139 17.1954V17.3493L22.9926 17.3472L23.0046 17.5959L23.0083 17.6696L23.0816 17.6693L24.3813 17.6645L24.4667 17.6654L24.39 17.7691L24.3759 17.7884V17.7905L23.0756 17.7887V17.9372L22.9986 17.9384L23.1063 24.6826H22.2514V24.772H23.1189L23.1312 24.7837L23.1481 24.7993L22.163 24.7984V24.8661H22.1398V24.9554L23.2094 24.9575L23.2212 25.0504L23.2281 25.1048L23.2816 25.1163L23.3069 25.1217L23.3111 25.211L23.3144 25.2847L23.3883 25.2844L25.0284 25.2768L26.1302 25.3036C26.1876 25.2588 26.2445 25.2131 26.301 25.1671L25.2272 25.1545L24.553 25.0396L24.4649 17.9333L24.5253 17.9234L24.5277 17.8602L24.5283 17.8422L24.6176 17.7213L24.6321 17.7017L24.6327 17.6774L24.6348 17.5917L24.6366 17.5138L24.5584 17.5129L24.4577 17.5117L24.4544 17.3292L30.6525 17.3244C30.6588 17.2729 30.6645 17.2218 30.67 17.1704L24.4513 17.1755L24.4504 17.1301L24.7069 16.7518L24.719 16.7341L24.7202 16.713L24.7277 16.5771L24.8856 16.2803L24.9466 16.166L24.817 16.1672L24.4438 16.1705L24.4363 15.6969L24.4706 15.6431L24.5467 15.524L24.4053 15.5249L23.0437 15.5331L23.0461 15.3821L23.0696 15.3481L23.1541 15.2269H23.0062L20.9992 15.2266L21.0904 15.1199L20.9229 15.1202L20.3025 15.1217L20.3028 15.1208ZM25.044 26.0587L18.7142 26.0503V26.2042L24.7878 26.2123C24.8738 26.1621 24.9592 26.111 25.044 26.0587ZM20.6877 24.7978L19.4238 24.7951V24.8652H19.4085V24.9545H20.7V24.8652H20.6877V24.7975V24.7978ZM20.5837 24.6842L19.5146 24.6854V24.7747L20.5837 24.7735V24.6842ZM24.3004 17.3289L24.3037 17.5108L23.1553 17.515L23.1448 17.2979L23.1427 17.2564L23.1069 17.2351L23.091 17.2257L23.0843 16.7945L24.4977 16.7858L24.3097 17.0633L24.2959 17.0835L24.2962 17.1076L24.2986 17.2528L24.2998 17.3286L24.3004 17.3289ZM24.3112 17.9441L24.4002 25.1051L24.4005 25.1253L23.4623 25.1295L23.4587 25.0546L23.456 24.9954L23.398 24.9828L23.3679 24.9764L23.345 24.7963L23.3414 24.7686L23.3213 24.7497L23.2608 24.6929L23.1529 17.9423L24.3112 17.9438V17.9441ZM22.4456 17.6245L20.375 17.6034L20.3738 17.7574L22.4444 17.7784L22.4456 17.6245ZM19.7594 17.6013L18.7148 17.5947L18.7142 17.7487L19.7588 17.7553L19.7594 17.6013ZM24.571 16.6312L23.0834 16.6403L23.0822 16.326L24.2929 16.3245V16.3251L24.3693 16.3245L24.6889 16.3215L24.584 16.5185L24.5761 16.5332L24.5752 16.5506L24.5707 16.6315L24.571 16.6312Z" fill="white"/>
<path d="M19.7149 17.6713L19.6975 17.7345L19.696 17.7396V17.7453L19.6918 17.8827L19.6912 17.8993L19.7017 17.9122L19.7405 17.9606L19.7191 18.0231L19.7098 18.0505L19.7312 18.0704L19.7492 18.0872L19.7639 18.1007L19.7835 18.0989L19.9585 18.0842L20.2003 18.0818L20.3777 18.1302L20.4282 18.144L20.4336 18.0917L20.4402 18.0286L20.4414 18.0171L20.4369 18.0066L20.4228 17.9738L20.4694 17.9206L20.4802 17.9083L20.4805 17.8917L20.4826 17.7588L20.4829 17.7423L20.4724 17.7297L20.4123 17.6569L20.3855 17.5964L20.3747 17.5721L20.3479 17.5703C20.2559 17.564 20.1645 17.5619 20.0722 17.5631C19.9795 17.5643 19.8878 17.5685 19.7937 17.5745L19.7699 17.576L19.7579 17.5967L19.7197 17.662L19.717 17.6668L19.7155 17.6728L19.7149 17.6713ZM19.785 17.7531L19.7994 17.7011L19.8229 17.6611C19.9092 17.656 19.9922 17.6524 20.0731 17.6512C20.153 17.6503 20.2327 17.6518 20.3148 17.6569L20.3335 17.6984L20.3362 17.7044L20.3398 17.7089L20.3933 17.7736L20.3918 17.8737L20.3374 17.9359L20.3187 17.957L20.3299 17.9829L20.35 18.0301L20.2177 17.994L20.2117 17.9925H20.2057L19.9546 17.9952H19.9513L19.8199 18.0063L19.8334 17.9663L19.8412 17.9432L19.8259 17.9239L19.782 17.8692L19.7856 17.7537L19.785 17.7531ZM23.0344 18.0319L22.9653 18.0111L22.9595 18.0093H22.9529L22.6309 18.0054H22.6261L22.6221 18.0063L22.4369 18.0421L22.4351 17.8433L22.4405 17.782L22.4808 17.7285L22.4844 17.7236L22.4865 17.7191L22.5016 17.684C22.5936 17.6767 22.6844 17.6737 22.7743 17.6746C22.8708 17.6752 22.9677 17.6806 23.0648 17.6897L23.0741 17.6948L23.0729 17.809L23.0594 17.8169L23.0368 17.8295L23.0365 17.8554L23.035 18.0319H23.0344ZM22.9451 18.0983L23.0654 18.1347L23.1222 18.1519L23.1228 18.092L23.1249 17.8815L23.1385 17.874L23.161 17.8614L23.1613 17.8355L23.1631 17.6686L23.1634 17.6422L23.14 17.6292L23.0994 17.6067L23.0916 17.6025L23.0819 17.6016C22.9797 17.5916 22.8771 17.5859 22.7743 17.585C22.6706 17.5841 22.568 17.588 22.4664 17.5967L22.4396 17.5992L22.4291 17.6238L22.4053 17.6791L22.3608 17.7384L22.353 17.7489L22.3518 17.7615L22.3452 17.8358V17.8361V17.84L22.3473 18.0962L22.3476 18.15L22.4002 18.1398L22.6339 18.0947L22.9445 18.0986L22.9451 18.0983Z" fill="white"/>
<path d="M24.4509 17.7817L30.5751 17.7832V17.9333L24.4509 17.9321V17.782V17.7817ZM30.5032 18.3206L24.3908 18.2421L24.3926 18.0921L30.505 18.1706L30.5032 18.3206ZM7.02496 18.1706L13.1374 18.0921L13.1392 18.2421L7.02676 18.3206L7.02496 18.1706ZM13.0788 17.9321L6.95459 17.9333V17.7832L13.0788 17.7817V17.9318V17.9321Z" fill="white"/>
<path fill-rule="evenodd" clip-rule="evenodd" d="M29.954 20.1377L24.4348 20.0793L24.4165 20.2724L29.8915 20.298C29.9128 20.2447 29.9333 20.1912 29.954 20.1374V20.1377ZM29.7465 20.6447L24.4469 20.577L24.4228 20.7692L29.6732 20.8107C29.6981 20.7556 29.7222 20.7003 29.7465 20.6447Z" fill="white"/>
<path fill-rule="evenodd" clip-rule="evenodd" d="M25.6755 19.9022L24.7743 19.904L24.7722 18.7301L25.6737 18.7283L25.6758 19.9022H25.6755ZM25.5634 19.4452L25.2681 19.4458L25.2672 18.8272L25.5625 18.8266L25.5634 19.4449V19.4452ZM25.5634 19.8015L25.2705 19.8021L25.2702 19.5522L25.5631 19.5516L25.5634 19.8015ZM25.18 19.4452L24.8847 19.4458L24.8838 18.8272L25.1791 18.8266L25.18 19.4449V19.4452ZM25.18 19.8015L24.8874 19.8021L24.8868 19.5522L25.1797 19.5516L25.18 19.8015Z" fill="white"/>
<path d="M18.7142 15.6035C18.7319 15.6019 18.75 15.601 18.768 15.601V15.6013V15.601C18.9508 15.6007 19.1162 15.6744 19.2362 15.7941C19.3562 15.9135 19.4305 16.0789 19.4308 16.2614C19.4311 16.4439 19.3574 16.6096 19.2377 16.7296C19.1183 16.8496 18.9529 16.9239 18.7704 16.9242C18.7512 16.9242 18.7325 16.9233 18.7139 16.9217V17.0592C18.7325 17.0604 18.7515 17.0613 18.7704 17.061C18.9911 17.0607 19.1908 16.9708 19.3348 16.8261C19.4789 16.6815 19.5679 16.4815 19.5676 16.2611C19.5673 16.0404 19.4774 15.8407 19.3327 15.6967C19.1881 15.5526 18.9881 15.4636 18.7677 15.4639V15.4636V15.4639C18.7497 15.4639 18.7316 15.4645 18.7139 15.4657V15.6032L18.7142 15.6035Z" fill="white"/>
<path fill-rule="evenodd" clip-rule="evenodd" d="M19.7261 16.0361L23.4094 16.0349L23.4019 16.1471L23.3 16.3107L23.2991 16.4505L23.002 16.449V16.4878H22.879V16.5323V16.5771H22.8345L22.6381 16.5774H22.5936V16.5326V16.4878H22.3819L22.3822 16.5314V16.5762H22.3374L22.1413 16.5765H22.0968V16.532V16.4878H21.8851L21.8854 16.5341V16.5786H21.8406L21.6446 16.5792H21.6001V16.5344V16.4878H21.4434L21.4437 16.5335V16.578L21.3989 16.5783L21.2028 16.5786H21.1583V16.5338L21.158 16.4878H21.023V16.5317V16.5765H20.9785L20.7825 16.5768H20.738L20.7377 16.5323V16.4878H20.6008V16.5344L20.6011 16.5789H20.5563L20.3603 16.5792H20.3158L20.3155 16.5347V16.4878H20.185V16.5308V16.5756H20.1404L19.9444 16.5759H19.8999V16.5311L19.8996 16.4878H19.8364H19.7922L19.7261 16.0361Z" fill="white"/>
<path fill-rule="evenodd" clip-rule="evenodd" d="M27.1252 19.9022L26.224 19.904L26.2219 18.7301L27.1231 18.7283L27.1252 19.9022ZM27.0131 19.4452L26.7178 19.4458L26.7169 18.8272L27.0122 18.8266L27.0131 19.4449V19.4452ZM27.0131 19.8015L26.7205 19.8021L26.7199 19.5522L27.0128 19.5516L27.0131 19.8015ZM26.6297 19.4452L26.3344 19.4458L26.3332 18.8272L26.6285 18.8266L26.6294 19.4449L26.6297 19.4452ZM26.6297 19.8015L26.3371 19.8021L26.3365 19.5522L26.6294 19.5516L26.6297 19.8015Z" fill="white"/>
<path fill-rule="evenodd" clip-rule="evenodd" d="M28.5645 19.9022L27.6632 19.904L27.6611 18.7301L28.5624 18.7283L28.5645 19.9022ZM28.452 19.4452L28.1567 19.4458L28.1555 18.8272L28.4511 18.8266L28.452 19.4449V19.4452ZM28.452 19.8015L28.1594 19.8021L28.1591 19.5522L28.4517 19.5516L28.452 19.8015ZM28.0686 19.4452L27.7733 19.4458L27.7724 18.8272L28.0677 18.8266L28.0686 19.4449V19.4452ZM28.0686 19.8015L27.7757 19.8021L27.7754 19.5522L28.068 19.5516L28.0686 19.8015Z" fill="white"/>
<path fill-rule="evenodd" clip-rule="evenodd" d="M30.0391 19.9022L29.1378 19.904L29.1357 18.7301L30.037 18.7283L30.0391 19.9022ZM29.9269 19.4452L29.6316 19.4458L29.6307 18.8272L29.926 18.8266L29.9269 19.4449V19.4452ZM29.9269 19.8015L29.634 19.8021L29.6337 19.5522L29.9263 19.5516L29.9269 19.8015ZM29.5435 19.4452L29.2482 19.4458L29.2473 18.8272L29.5426 18.8266L29.5435 19.4449V19.4452ZM29.5435 19.8015L29.2506 19.8021L29.2503 19.5522L29.5429 19.5516L29.5435 19.8015Z" fill="white"/>
<path fill-rule="evenodd" clip-rule="evenodd" d="M25.6755 22.2919L24.7743 22.2937L24.7722 21.1197L25.6737 21.1179L25.6758 22.2919H25.6755ZM25.5634 21.8348L25.2681 21.8354L25.2672 21.2169L25.5625 21.2163L25.5634 21.8345V21.8348ZM25.5634 22.1911L25.2705 22.1917L25.2702 21.9419L25.5631 21.9413L25.5634 22.1911ZM25.18 21.8348L24.8847 21.8354L24.8838 21.2169L25.1791 21.2163L25.18 21.8345V21.8348ZM25.18 22.1911L24.8874 22.1917L24.8868 21.9419L25.1797 21.9413L25.18 22.1911Z" fill="white"/>
<path fill-rule="evenodd" clip-rule="evenodd" d="M27.1252 22.2919L26.224 22.2937L26.2219 21.1197L27.1231 21.1179L27.1252 22.2919ZM27.0131 21.8348L26.7178 21.8354L26.7169 21.2169L27.0122 21.2163L27.0131 21.8345V21.8348ZM27.0131 22.1911L26.7205 22.1917L26.7199 21.9419L27.0128 21.9413L27.0131 22.1911ZM26.6297 21.8348L26.3344 21.8354L26.3332 21.2169L26.6285 21.2163L26.6294 21.8345L26.6297 21.8348ZM26.6297 22.1911L26.3371 22.1917L26.3365 21.9419L26.6294 21.9413L26.6297 22.1911Z" fill="white"/>
<path fill-rule="evenodd" clip-rule="evenodd" d="M28.5645 22.2919L27.6632 22.2937L27.6611 21.1197L28.5624 21.1179L28.5645 22.2919ZM28.452 21.8348L28.1567 21.8354L28.1555 21.2169L28.4511 21.2163L28.452 21.8345V21.8348ZM28.452 22.1911L28.1594 22.1917L28.1591 21.9419L28.4517 21.9413L28.452 22.1911ZM28.0686 21.8348L27.7733 21.8354L27.7724 21.2169L28.0677 21.2163L28.0686 21.8345V21.8348ZM28.0686 22.1911L27.7757 22.1917L27.7754 21.9419L28.068 21.9413L28.0686 22.1911Z" fill="white"/>
<path fill-rule="evenodd" clip-rule="evenodd" d="M25.6755 24.6368L24.7743 24.6386L24.7722 23.4646L25.6737 23.4631L25.6758 24.6371L25.6755 24.6368ZM25.5634 24.1797L25.2681 24.1803L25.2672 23.5618L25.5625 23.5612L25.5634 24.1794V24.1797ZM25.5634 24.5361L25.2705 24.5367L25.2702 24.2868L25.5631 24.2862L25.5634 24.5361ZM25.18 24.1797L24.8847 24.1803L24.8838 23.5618L25.1791 23.5612L25.18 24.1794V24.1797ZM25.18 24.5361L24.8874 24.5367L24.8868 24.2868L25.1797 24.2862L25.18 24.5361Z" fill="white"/>
<path fill-rule="evenodd" clip-rule="evenodd" d="M26.9111 24.6371L26.224 24.6384L26.2219 23.4644L27.1231 23.4629L27.1249 24.4339C27.0546 24.5024 26.9833 24.5704 26.9111 24.6371ZM27.0131 24.1795L26.7178 24.1801L26.7169 23.5615L27.0122 23.5609L27.0131 24.1792V24.1795ZM27.0131 24.5358L26.7205 24.5364L26.7199 24.2865L27.0128 24.2859L27.0131 24.5358ZM26.6297 24.1795L26.3344 24.1801L26.3332 23.5615L26.6285 23.5609L26.6294 24.1792L26.6297 24.1795ZM26.6297 24.5358L26.3371 24.5364L26.3365 24.2865L26.6294 24.2859L26.6297 24.5358Z" fill="white"/>
<path d="M15.9874 6.01147H18.0972C18.5115 6.01147 18.8288 6.1092 19.0489 6.30587C19.2687 6.50253 19.3782 6.74941 19.3782 7.0459C19.3782 7.29399 19.3015 7.50358 19.1478 7.67709C18.9936 7.84939 18.7623 7.98651 18.4535 8.08635C18.8363 8.17295 19.1235 8.31007 19.3153 8.49561C19.5072 8.68205 19.6025 8.9169 19.6025 9.20137C19.6025 9.41818 19.5481 9.61063 19.4398 9.77812C19.3313 9.94652 19.1499 10.0876 18.8971 10.2045C18.6445 10.3203 18.3573 10.3789 18.0361 10.3789H15.9871V10.1552H16.3203C16.4204 10.1552 16.4944 10.1369 16.541 10.1017C16.587 10.0665 16.6102 10.0262 16.6102 9.9808V6.48629C16.6102 6.4036 16.5876 6.34105 16.5419 6.29865C16.4959 6.25625 16.4298 6.2352 16.3426 6.2352H15.9868V6.01147H15.9874ZM17.1945 8.01358H17.9607C18.1964 8.01358 18.3834 7.939 18.523 7.79075C18.6625 7.64251 18.7326 7.39954 18.7326 7.06184C18.7326 6.85225 18.6989 6.68897 18.6324 6.57199C18.566 6.45502 18.4697 6.36932 18.3426 6.31609C18.2163 6.26256 17.9964 6.2355 17.6846 6.2355C17.4639 6.2355 17.3262 6.25264 17.2738 6.28692C17.2203 6.3212 17.1942 6.38074 17.1942 6.46735V8.01388L17.1945 8.01358ZM17.1945 8.2373V9.91885C17.1945 9.99734 17.2161 10.056 17.2591 10.0954C17.3021 10.1348 17.3788 10.1549 17.4903 10.1549H17.9814C18.3062 10.1549 18.5464 10.0773 18.7019 9.92306C18.8571 9.7688 18.9349 9.52884 18.9349 9.20227C18.9349 8.90277 18.8544 8.66792 18.6935 8.49561C18.5326 8.32331 18.3107 8.2376 18.0274 8.2376H17.1948L17.1945 8.2373Z" fill="white"/>
<path d="M18.6357 10.3005V12.4355C18.6357 12.6935 18.6565 12.8881 18.6986 13.0192C18.7611 13.2137 18.8745 13.3692 19.039 13.485C19.2047 13.601 19.4197 13.6594 19.6864 13.6594C20.0551 13.6594 20.3359 13.5565 20.5293 13.3509C20.7229 13.1464 20.8195 12.8709 20.8195 12.5272V10.5239C20.8195 10.3474 20.808 10.2133 20.7849 10.1216C20.7623 10.0308 20.7295 9.95919 20.6865 9.90777C20.6444 9.85635 20.5903 9.81906 20.5248 9.7947C20.4583 9.76945 20.3498 9.75742 20.1964 9.75742V9.53369H21.7234V9.75742H21.6139C21.4425 9.75742 21.3153 9.80673 21.2311 9.90657C21.1478 10.0055 21.1057 10.1495 21.1057 10.3381V12.4815C21.1057 12.9494 20.9812 13.3082 20.7335 13.5583C20.4538 13.8395 20.0821 13.9796 19.6181 13.9796C19.2167 13.9796 18.9007 13.918 18.6712 13.795C18.4412 13.672 18.2737 13.4955 18.1696 13.2658C18.0912 13.0913 18.0518 12.8703 18.0518 12.6054V10.3784C18.2607 10.3772 18.4556 10.351 18.6357 10.2999V10.3005Z" fill="white"/>
<path fill-rule="evenodd" clip-rule="evenodd" d="M16.0168 31.8802H16.0171C17.4747 31.6658 18.3774 31.0298 18.8254 30.0483C19.2735 31.0298 20.1762 31.6658 21.6337 31.8802H21.634H21.6337C20.1762 32.0946 19.2735 32.7306 18.8254 33.7121C18.3774 32.7306 17.4747 32.0946 16.0171 31.8802H16.0168Z" fill="white"/>
<path fill-rule="evenodd" clip-rule="evenodd" d="M9.6272 32.4708C11.5821 33.4027 13.0676 33.1339 13.9727 31.3808C12.2232 30.9411 10.7714 31.2954 9.6272 32.4708Z" fill="white"/>
<path fill-rule="evenodd" clip-rule="evenodd" d="M6.96997 30.6209C8.61904 31.8647 10.023 31.8466 11.1242 30.2682C9.58732 29.5441 8.20106 29.6518 6.96997 30.6209Z" fill="white"/>
<path fill-rule="evenodd" clip-rule="evenodd" d="M4.56641 28.0956C5.90545 29.6683 7.27968 29.9561 8.69781 28.6549C7.35546 27.6139 5.97852 27.4175 4.56641 28.0956Z" fill="white"/>
<path fill-rule="evenodd" clip-rule="evenodd" d="M2.56104 25.3522C3.61742 27.1269 4.92399 27.6411 6.54028 26.5962C5.39128 25.3446 4.06697 24.9207 2.56104 25.3522Z" fill="white"/>
<path fill-rule="evenodd" clip-rule="evenodd" d="M0.986572 22.165C2.04295 23.9398 3.22864 25.2337 4.84464 24.1888C4.18007 23.0659 2.49251 21.7335 0.986572 22.165Z" fill="white"/>
<path fill-rule="evenodd" clip-rule="evenodd" d="M0.274902 18.8794C0.794523 20.4199 1.44014 22.2046 3.63349 21.4483C2.96893 20.3255 1.78084 18.4479 0.274902 18.8794Z" fill="white"/>
<path fill-rule="evenodd" clip-rule="evenodd" d="M0 15.5034C0.22974 17.1029 0.667568 18.742 2.83326 18.6088C2.56653 17.4033 1.55916 15.2854 0 15.5034Z" fill="white"/>
<path fill-rule="evenodd" clip-rule="evenodd" d="M0.387067 12.1204C0.327527 13.7352 0.465852 15.4263 2.62071 15.6816C2.5735 14.4478 1.96036 12.1844 0.387067 12.1204Z" fill="white"/>
<path fill-rule="evenodd" clip-rule="evenodd" d="M1.32299 8.85986C1.00996 10.4452 0.880052 12.137 2.96786 12.7285C3.1155 11.5025 2.86652 9.17079 1.32299 8.85986Z" fill="white"/>
<path fill-rule="evenodd" clip-rule="evenodd" d="M2.99292 5.74878C2.36113 7.23607 1.88662 8.865 3.80843 9.87267C4.20477 8.70322 4.43992 6.37004 2.99292 5.74878Z" fill="white"/>
<path fill-rule="evenodd" clip-rule="evenodd" d="M5.22199 3.11792C4.28018 4.4308 3.46106 5.9169 5.11584 7.32029C5.75815 6.26572 6.49789 4.04049 5.22199 3.11792Z" fill="white"/>
<path fill-rule="evenodd" clip-rule="evenodd" d="M9.88725 2.88458C9.2302 2.66086 6.48355 3.57019 6.71028 5.72836C7.92574 5.65198 9.25637 4.72852 9.88725 2.88458Z" fill="white"/>
<path fill-rule="evenodd" clip-rule="evenodd" d="M9.29412 6.8887C8.11505 7.81247 7.11911 8.39554 5.51123 7.46065C6.07686 6.40246 7.84592 5.70753 9.29412 6.8887Z" fill="white"/>
<path fill-rule="evenodd" clip-rule="evenodd" d="M7.84345 8.7197C6.8863 9.87201 6.0359 10.652 4.26685 10.078C4.59612 8.92418 6.17844 7.8711 7.84345 8.7197Z" fill="white"/>
<path fill-rule="evenodd" clip-rule="evenodd" d="M6.65263 10.8699C5.89335 12.1611 5.17977 13.0681 3.34155 12.7866C3.48078 11.5946 4.87275 10.3007 6.65263 10.8699Z" fill="white"/>
<path fill-rule="evenodd" clip-rule="evenodd" d="M5.94068 13.1947C5.42346 14.6257 4.88249 15.6617 3.02352 15.6896C2.94835 14.464 4.08772 12.9225 5.94068 13.1947Z" fill="white"/>
<path fill-rule="evenodd" clip-rule="evenodd" d="M5.68475 15.6616C5.39757 17.1558 5.025 18.2636 3.19279 18.5815C2.92697 17.3826 3.81195 15.6824 5.68475 15.6616Z" fill="white"/>
<path fill-rule="evenodd" clip-rule="evenodd" d="M5.81878 17.9988C5.79653 19.5204 5.62302 20.676 3.87441 21.3087C3.4035 20.1747 3.97815 18.3458 5.81878 17.9988Z" fill="white"/>
<path fill-rule="evenodd" clip-rule="evenodd" d="M6.29524 20.2458C6.64707 21.7262 6.76224 22.8891 5.22232 23.9313C4.48739 22.9474 4.59595 21.0337 6.29524 20.2458Z" fill="white"/>
<path fill-rule="evenodd" clip-rule="evenodd" d="M7.21875 22.4695C7.83039 23.863 8.15214 24.9864 6.82422 26.2879C5.92481 25.4516 5.68845 23.5493 7.21875 22.4695Z" fill="white"/>
<path fill-rule="evenodd" clip-rule="evenodd" d="M8.66963 24.45C9.51401 25.7159 10.0264 26.766 8.94507 28.2785C7.91425 27.6116 7.35043 25.7794 8.66963 24.45Z" fill="white"/>
<path fill-rule="evenodd" clip-rule="evenodd" d="M10.3791 26.1572C11.4367 27.2512 12.1292 28.1924 11.3363 29.8746C10.2023 29.4031 9.31942 27.7017 10.3791 26.1572Z" fill="white"/>
<path fill-rule="evenodd" clip-rule="evenodd" d="M12.4575 27.3684C13.6946 28.4624 14.5411 29.4039 14.0242 31.0857C12.7675 30.8193 11.6161 29.0713 12.4575 27.3684Z" fill="white"/>
<path fill-rule="evenodd" clip-rule="evenodd" d="M27.887 32.4708C25.9321 33.4027 24.4466 33.1339 23.5415 31.3808C25.291 30.9411 26.7428 31.2954 27.887 32.4708Z" fill="white"/>
<path fill-rule="evenodd" clip-rule="evenodd" d="M30.5442 30.6209C28.8951 31.8647 27.4911 31.8466 26.3899 30.2682C27.9268 29.5441 29.3131 29.6518 30.5442 30.6209Z" fill="white"/>
<path fill-rule="evenodd" clip-rule="evenodd" d="M32.9478 28.0956C31.6088 29.6683 30.2345 29.9561 28.8164 28.6549C30.1588 27.6139 31.5357 27.4175 32.9478 28.0956Z" fill="white"/>
<path fill-rule="evenodd" clip-rule="evenodd" d="M34.9531 25.3522C33.8967 27.1269 32.5899 27.6411 30.9739 26.5962C32.1229 25.3446 33.4472 24.9207 34.9531 25.3522Z" fill="white"/>
<path fill-rule="evenodd" clip-rule="evenodd" d="M36.5277 22.165C35.4714 23.9398 34.2857 25.2337 32.6697 24.1888C33.3339 23.0659 35.0218 21.7335 36.5277 22.165Z" fill="white"/>
<path fill-rule="evenodd" clip-rule="evenodd" d="M37.2392 18.8794C36.7196 20.4199 36.074 22.2046 33.8806 21.4483C34.5452 20.3255 35.7333 18.4479 37.2392 18.8794Z" fill="white"/>
<path fill-rule="evenodd" clip-rule="evenodd" d="M37.5142 15.5034C37.2844 17.1029 36.8466 18.742 34.6809 18.6088C34.9476 17.4033 35.955 15.2854 37.5142 15.5034Z" fill="white"/>
<path fill-rule="evenodd" clip-rule="evenodd" d="M37.1272 12.1204C37.1867 13.7352 37.0484 15.4263 34.8936 15.6816C34.9408 14.4478 35.5539 12.1844 37.1272 12.1204Z" fill="white"/>
<path fill-rule="evenodd" clip-rule="evenodd" d="M36.1914 8.85986C36.5044 10.4452 36.6343 12.137 34.5465 12.7285C34.3989 11.5025 34.6478 9.17079 36.1914 8.85986Z" fill="white"/>
<path fill-rule="evenodd" clip-rule="evenodd" d="M34.5212 5.74878C35.153 7.23607 35.6275 8.865 33.7057 9.87267C33.3093 8.70322 33.0745 6.37004 34.5212 5.74878Z" fill="white"/>
<path fill-rule="evenodd" clip-rule="evenodd" d="M32.2921 3.11792C33.2339 4.4308 34.053 5.9169 32.3982 7.32029C31.7559 6.26572 31.0162 4.04049 32.2921 3.11792Z" fill="white"/>
<path fill-rule="evenodd" clip-rule="evenodd" d="M27.627 2.88458C28.284 2.66086 31.0306 3.57019 30.8039 5.72836C29.5882 5.65198 28.2578 4.72852 27.627 2.88458Z" fill="white"/>
<path fill-rule="evenodd" clip-rule="evenodd" d="M28.22 6.8887C29.399 7.81247 30.395 8.39554 32.0029 7.46065C31.4372 6.40246 29.6682 5.70753 28.22 6.8887Z" fill="white"/>
<path fill-rule="evenodd" clip-rule="evenodd" d="M29.6709 8.7197C30.628 9.87201 31.4784 10.652 33.2475 10.078C32.9182 8.92418 31.3359 7.8711 29.6709 8.7197Z" fill="white"/>
<path fill-rule="evenodd" clip-rule="evenodd" d="M30.8616 10.8699C31.6209 12.1611 32.3344 13.0681 34.1727 12.7866C34.0334 11.5946 32.6415 10.3007 30.8616 10.8699Z" fill="white"/>
<path fill-rule="evenodd" clip-rule="evenodd" d="M31.5735 13.1947C32.0907 14.6257 32.6317 15.6617 34.4906 15.6896C34.5658 14.464 33.4264 12.9225 31.5735 13.1947Z" fill="white"/>
<path fill-rule="evenodd" clip-rule="evenodd" d="M31.8293 15.6616C32.1168 17.1558 32.4891 18.2636 34.3213 18.5815C34.5871 17.3826 33.7021 15.6824 31.8293 15.6616Z" fill="white"/>
<path fill-rule="evenodd" clip-rule="evenodd" d="M31.6956 17.9988C31.7178 19.5204 31.8913 20.676 33.6399 21.3087C34.1108 20.1747 33.5362 18.3458 31.6956 17.9988Z" fill="white"/>
<path fill-rule="evenodd" clip-rule="evenodd" d="M31.2189 20.2458C30.867 21.7262 30.7519 22.8891 32.2918 23.9313C33.0264 22.9474 32.9178 21.0337 31.2189 20.2458Z" fill="white"/>
<path fill-rule="evenodd" clip-rule="evenodd" d="M30.2955 22.4695C29.6838 23.863 29.3621 24.9864 30.69 26.2879C31.5894 25.4516 31.8258 23.5493 30.2955 22.4695Z" fill="white"/>
<path fill-rule="evenodd" clip-rule="evenodd" d="M28.8444 24.45C28 25.7159 27.4876 26.766 28.569 28.2785C29.6001 27.6116 30.1636 25.7794 28.8444 24.45Z" fill="white"/>
<path fill-rule="evenodd" clip-rule="evenodd" d="M27.1353 26.1572C26.0777 27.2512 25.3855 28.1924 26.1782 29.8746C27.3121 29.4031 28.195 27.7017 27.1353 26.1572Z" fill="white"/>
<path fill-rule="evenodd" clip-rule="evenodd" d="M25.0568 27.3684C23.8197 28.4624 22.9732 29.4039 23.4901 31.0857C24.7467 30.8193 25.8981 29.0713 25.0568 27.3684Z" fill="white"/>
<path fill-rule="evenodd" clip-rule="evenodd" d="M12.6413 1.41813L12.6638 1.27079L12.7573 1.22839L12.9973 1.74229L12.9041 1.78439C12.7964 1.64817 12.693 1.56307 12.5941 1.52969C12.4951 1.49601 12.4016 1.49962 12.3123 1.53992C12.2386 1.5733 12.1881 1.62231 12.1616 1.68696C12.1349 1.75101 12.1358 1.81476 12.164 1.87731C12.1821 1.9173 12.2064 1.94768 12.2368 1.96873C12.2675 1.99008 12.3045 2.0018 12.3487 2.00481C12.3929 2.00722 12.4714 1.99639 12.5844 1.97203C12.7486 1.93685 12.8692 1.92272 12.9462 1.92843C13.0232 1.93475 13.089 1.9567 13.1437 1.99519C13.1982 2.03338 13.2412 2.0872 13.2725 2.15637C13.3287 2.28056 13.3335 2.40264 13.2863 2.52233C13.2394 2.64201 13.1501 2.73192 13.0184 2.79176C12.8764 2.85581 12.7387 2.86513 12.6043 2.81942L12.5658 2.98511L12.4732 3.02691L12.226 2.48053L12.3258 2.43542C12.4187 2.57134 12.5246 2.65915 12.644 2.70004C12.7631 2.74094 12.8746 2.73763 12.9784 2.69072C13.0614 2.65313 13.1179 2.5984 13.148 2.52593C13.1777 2.45346 13.1771 2.3825 13.1453 2.31243C13.1278 2.27424 13.1029 2.24477 13.071 2.22433C13.0388 2.20358 12.997 2.19305 12.9447 2.19185C12.8924 2.19065 12.7934 2.20448 12.6476 2.23365C12.4831 2.26582 12.3628 2.27184 12.2873 2.25199C12.1797 2.22342 12.0991 2.15035 12.0459 2.03278C11.9911 1.91219 11.9851 1.79582 12.0278 1.68275C12.0705 1.57029 12.1526 1.48639 12.2738 1.43136C12.3315 1.4052 12.3914 1.39077 12.453 1.38776C12.515 1.38445 12.5778 1.39468 12.6416 1.41753L12.6413 1.41813ZM13.1425 1.09818L13.8128 0.863028L13.8501 0.969478L13.7226 1.01428C13.6799 1.02932 13.6556 1.04255 13.6492 1.05398C13.6435 1.0654 13.6465 1.08796 13.6583 1.12103L14.0215 2.15667C14.0344 2.19365 14.0456 2.2141 14.0549 2.21801C14.0699 2.22493 14.0943 2.22252 14.128 2.21079L14.2684 2.16148L14.3057 2.26793L13.6351 2.50308L13.5978 2.39693L13.737 2.34822C13.7734 2.33529 13.7945 2.32296 13.8005 2.31093C13.8062 2.2992 13.8026 2.27484 13.7897 2.23816L13.4261 1.20283C13.4144 1.16975 13.4045 1.15141 13.3963 1.1481C13.378 1.14208 13.3485 1.14599 13.307 1.16043L13.1798 1.20493L13.1425 1.09878V1.09818ZM14.1247 0.725605L14.4912 0.640805L15.5714 1.55826L15.3906 0.775221C15.3732 0.699744 15.3437 0.648323 15.3025 0.620658C15.2652 0.596 15.2096 0.591189 15.1356 0.607126L15.1104 0.497669L15.6411 0.374981L15.6664 0.484739C15.6062 0.498571 15.5665 0.513907 15.5479 0.531348C15.5293 0.548188 15.5154 0.575552 15.5064 0.613441C15.4971 0.651029 15.4974 0.690121 15.507 0.731017L15.7707 1.8728L15.6534 1.89986L14.5321 0.940008L14.7246 1.77357C14.7414 1.84634 14.7715 1.89625 14.8145 1.92212C14.8575 1.94828 14.9239 1.95189 15.0132 1.93264L15.0385 2.0418L14.4599 2.17531L14.435 2.06676C14.5084 2.04691 14.5589 2.01353 14.5859 1.96722C14.6133 1.92061 14.6205 1.86949 14.6076 1.81386L14.389 0.866636L14.3721 0.854908C14.3361 0.829048 14.312 0.814914 14.3006 0.812208C14.2825 0.808299 14.2609 0.809201 14.2344 0.815215L14.1505 0.834761L14.1253 0.725003L14.1247 0.725605ZM17.0448 0.272741L17.0893 0.128402L17.1831 0.117276L17.2839 0.73222L17.1825 0.744248C17.1182 0.579762 17.0586 0.464892 17.0045 0.399338C16.899 0.313637 16.794 0.276951 16.6891 0.28928C16.5754 0.302811 16.4885 0.365358 16.4281 0.477522C16.3676 0.589385 16.3529 0.771913 16.383 1.02541C16.4082 1.23861 16.4572 1.39317 16.5303 1.4897C16.6359 1.576 16.7516 1.61179 16.8785 1.59675C16.9898 1.58352 17.0785 1.53691 17.1459 1.45632C17.2129 1.37573 17.2496 1.25485 17.2556 1.09397L17.363 1.08104C17.3645 1.27319 17.3206 1.42324 17.231 1.5309C17.141 1.63855 17.0196 1.7014 16.8662 1.71974C16.742 1.73447 16.6247 1.71673 16.5138 1.66652C16.4031 1.6166 16.3096 1.53721 16.2344 1.42836C16.1589 1.3192 16.1129 1.19531 16.0964 1.05668C16.0789 0.910238 16.0943 0.769207 16.1424 0.632987C16.1905 0.497068 16.2606 0.390317 16.3529 0.313035C16.4449 0.235754 16.5492 0.190046 16.6653 0.176214C16.73 0.168696 16.794 0.172004 16.8572 0.186739C16.9206 0.201774 16.9835 0.230341 17.0457 0.272139L17.0448 0.272741ZM17.6309 0.0992331L18.8226 0.0589385L18.8686 0.586077L18.7649 0.589685C18.7321 0.429409 18.6882 0.321154 18.6331 0.264922C18.5775 0.208991 18.5078 0.182529 18.4233 0.185536L18.1385 0.195158C18.1216 0.19576 18.1093 0.20027 18.1018 0.208991C18.094 0.217411 18.0904 0.231845 18.0913 0.251691L18.1081 0.74936L18.2122 0.745752C18.2723 0.743647 18.3204 0.720192 18.3574 0.675387C18.3938 0.62998 18.4121 0.554202 18.4121 0.448053L18.5198 0.444444L18.5438 1.15441L18.4362 1.15802C18.4284 1.03924 18.4049 0.958051 18.3643 0.91535C18.3243 0.87265 18.2711 0.852202 18.2052 0.854608L18.1117 0.857615L18.1307 1.41302C18.131 1.42866 18.1364 1.44008 18.1463 1.4473C18.1562 1.45482 18.1749 1.45813 18.2025 1.45692L18.4272 1.44941C18.6584 1.44159 18.7874 1.28131 18.8142 0.969177L18.9227 0.965568L18.9164 1.54563L17.6817 1.58743L17.6778 1.47497L17.7975 1.47076C17.8309 1.46955 17.8531 1.46414 17.8645 1.45392C17.876 1.44339 17.8811 1.42866 17.8805 1.40791L17.8414 0.260111C17.8408 0.241167 17.8357 0.227334 17.8254 0.218614C17.8152 0.210495 17.7987 0.206585 17.7743 0.207487L17.6348 0.212299L17.6309 0.0995338V0.0992331ZM20.8145 0.0105247L20.6389 1.4897C20.6371 1.50474 20.6434 1.51917 20.6572 1.5324C20.668 1.54232 20.6873 1.54924 20.7149 1.55255L20.9666 1.58232L20.9507 1.71643L20.06 1.61058L20.0762 1.47647L20.2939 1.50233C20.3273 1.50624 20.3523 1.50173 20.3685 1.4888C20.3854 1.47647 20.395 1.45692 20.398 1.43046L20.5288 0.330176C20.5306 0.31514 20.5255 0.301308 20.5138 0.288377C20.502 0.275748 20.4852 0.267929 20.4638 0.265524L20.1791 0.231845L20.1938 0.107653C20.33 0.106751 20.4365 0.0974289 20.5132 0.08089C20.5901 0.0640505 20.6614 0.0369869 20.727 0L20.8139 0.010224L20.8145 0.0105247ZM22.3406 1.14268C22.3006 1.20824 22.2407 1.25274 22.1613 1.2762C22.0822 1.29965 21.9996 1.30146 21.913 1.28131C21.7921 1.25304 21.6928 1.18508 21.614 1.07803C21.5353 0.97038 21.5154 0.835062 21.5533 0.671778C21.59 0.514809 21.6754 0.393023 21.8092 0.307322C21.9427 0.22132 22.0856 0.196061 22.2362 0.231243C22.4022 0.270034 22.5237 0.37047 22.6013 0.53195C22.6788 0.69403 22.6894 0.895203 22.6328 1.13697C22.5859 1.33664 22.5168 1.49902 22.4239 1.62442C22.3312 1.74951 22.2266 1.83491 22.1105 1.88002C21.9944 1.92512 21.8736 1.93294 21.7476 1.90347C21.6252 1.8749 21.5344 1.82469 21.4763 1.75252C21.418 1.68035 21.3981 1.60487 21.4168 1.52548C21.4291 1.47316 21.4547 1.43377 21.4941 1.40761C21.5335 1.38145 21.5777 1.37423 21.6261 1.38566C21.67 1.39588 21.704 1.41933 21.728 1.45602C21.7518 1.49241 21.7587 1.5309 21.7494 1.57119C21.7421 1.60186 21.7211 1.63103 21.6859 1.6593C21.6712 1.67103 21.6631 1.68095 21.6613 1.68937C21.658 1.7032 21.6646 1.71854 21.6814 1.73508C21.6982 1.75162 21.7322 1.76575 21.7833 1.77778C21.8576 1.79522 21.9274 1.79011 21.9929 1.76244C22.0588 1.73447 22.121 1.67674 22.1803 1.58803C22.2392 1.49932 22.2864 1.37724 22.3231 1.22087L22.3412 1.14208L22.3406 1.14268ZM22.2097 0.359044C22.1322 0.341001 22.0603 0.359044 21.9941 0.413171C21.9283 0.467599 21.8787 0.563825 21.8462 0.70215C21.8167 0.829048 21.8203 0.928281 21.857 1.00015C21.8937 1.07112 21.9523 1.11652 22.0332 1.13547C22.1129 1.15411 22.1881 1.13757 22.2594 1.08555C22.33 1.03413 22.3793 0.947827 22.4079 0.827243C22.4368 0.703653 22.4305 0.599007 22.3893 0.514208C22.3478 0.429108 22.2882 0.377387 22.21 0.359044H22.2097ZM23.6658 1.47045C23.7605 1.51887 23.8291 1.58382 23.8712 1.66712C23.9262 1.77447 23.9349 1.88784 23.8967 2.00661C23.8534 2.14253 23.7701 2.23605 23.6471 2.28747C23.5094 2.34641 23.3542 2.34822 23.1819 2.29319C23.0782 2.26011 22.994 2.2144 22.9296 2.15576C22.8653 2.09743 22.8235 2.03187 22.8039 1.96C22.7847 1.88753 22.7871 1.81446 22.8112 1.73959C22.8307 1.67854 22.8623 1.63374 22.9059 1.60637C22.9495 1.57901 22.9961 1.5733 23.0451 1.58893C23.0902 1.60337 23.1215 1.62953 23.1395 1.66832C23.1576 1.70681 23.1588 1.74951 23.1434 1.79762C23.1332 1.8301 23.1173 1.85506 23.0956 1.8731C23.0743 1.89114 23.0439 1.90437 23.0045 1.91189C22.9765 1.917 22.9615 1.92272 22.9594 1.92903C22.9537 1.94677 22.957 1.97173 22.969 2.0024C22.9811 2.03278 23.0051 2.06285 23.0409 2.09111C23.0764 2.11908 23.1272 2.14404 23.1928 2.16509C23.3031 2.20027 23.3927 2.19937 23.4619 2.16238C23.5308 2.12569 23.5849 2.04601 23.624 1.92362C23.6649 1.79582 23.6718 1.69899 23.6441 1.63344C23.6168 1.56788 23.5593 1.52127 23.4721 1.49331C23.4493 1.48609 23.4177 1.47948 23.3774 1.47346C23.3455 1.46835 23.3218 1.46354 23.3058 1.45843C23.2782 1.44941 23.2577 1.43557 23.2442 1.41663C23.2312 1.39738 23.2285 1.37693 23.2358 1.35468C23.243 1.33243 23.2568 1.31739 23.2773 1.31048C23.2977 1.30266 23.3215 1.30326 23.3473 1.31168L23.4168 1.33694L23.4619 1.35378C23.5542 1.38295 23.6285 1.38265 23.6859 1.35258C23.743 1.32281 23.787 1.25996 23.8173 1.16403C23.8549 1.04646 23.8606 0.956848 23.8345 0.896105C23.8083 0.835062 23.7539 0.791459 23.6712 0.765298C23.5927 0.740339 23.5277 0.734024 23.476 0.746353C23.4237 0.758983 23.3954 0.773116 23.39 0.789354C23.3864 0.800781 23.3918 0.817922 23.4054 0.841377C23.4396 0.904224 23.4496 0.958351 23.4348 1.00436C23.4231 1.04135 23.3993 1.06811 23.3645 1.08495C23.329 1.10149 23.2911 1.10329 23.2502 1.09036C23.2051 1.07593 23.1744 1.04736 23.1576 1.00556C23.1404 0.963764 23.141 0.914448 23.1594 0.857916C23.1861 0.774018 23.2406 0.708765 23.3224 0.663058C23.436 0.599308 23.5719 0.592091 23.7286 0.642309C23.8751 0.688918 23.9797 0.766501 24.0426 0.874154C24.1057 0.981807 24.1186 1.09367 24.0813 1.21034C24.0543 1.29544 24.0065 1.361 23.9382 1.40761C23.8705 1.45422 23.7797 1.47497 23.6652 1.47076L23.6658 1.47045ZM25.16 2.1266C25.1083 2.18343 25.0415 2.21591 24.9588 2.22402C24.8767 2.23214 24.7952 2.21831 24.714 2.18193C24.6007 2.13141 24.5159 2.04601 24.4587 1.92602C24.4016 1.80544 24.4076 1.66892 24.4759 1.51586C24.5414 1.36852 24.6482 1.26477 24.7958 1.20613C24.9435 1.14659 25.0881 1.149 25.2294 1.21215C25.3849 1.28131 25.4856 1.4031 25.5311 1.576C25.5771 1.74981 25.5491 1.94948 25.4481 2.17621C25.3645 2.36355 25.2658 2.51 25.151 2.61524C25.0364 2.72049 24.9176 2.78454 24.7949 2.80709C24.6722 2.82965 24.5523 2.81461 24.4338 2.76169C24.3189 2.71057 24.2392 2.64411 24.1959 2.56232C24.1523 2.48053 24.1472 2.40234 24.1803 2.32807C24.2022 2.27905 24.2347 2.24538 24.2783 2.22673C24.3219 2.20869 24.3667 2.20959 24.4121 2.23004C24.4533 2.24838 24.4822 2.27785 24.4987 2.31845C24.5153 2.35874 24.515 2.39783 24.4978 2.43542C24.4849 2.46429 24.4587 2.48895 24.419 2.51C24.4025 2.51872 24.3926 2.52684 24.389 2.53465C24.3833 2.54759 24.3866 2.56412 24.4001 2.58367C24.4133 2.60292 24.4443 2.62336 24.4921 2.64471C24.5619 2.67569 24.6313 2.68411 24.7011 2.66937C24.7709 2.65434 24.843 2.60923 24.9179 2.53345C24.9925 2.45767 25.0622 2.34641 25.1275 2.19997L25.16 2.1263V2.1266ZM25.1795 1.33243C25.1071 1.29995 25.0328 1.30416 24.9579 1.34476C24.8827 1.38566 24.816 1.47106 24.7579 1.60066C24.705 1.71974 24.69 1.81777 24.7122 1.89505C24.7348 1.97203 24.7838 2.02736 24.8596 2.06104C24.9344 2.09442 25.0114 2.09262 25.0911 2.05503C25.1702 2.01774 25.2349 1.94256 25.2854 1.8292C25.3371 1.71343 25.3506 1.60938 25.3263 1.51857C25.3016 1.42715 25.2532 1.36521 25.1792 1.33243H25.1795Z" fill="white"/>
</g>
<defs>
<clipPath id="clip0">
<rect width="37.5142" height="33.7125" fill="white"/>
</clipPath>
</defs>
</svg>
