<svg width="50" height="31" viewBox="0 0 50 31" fill="none" xmlns="http://www.w3.org/2000/svg">
<path d="M49.6845 30.0505C49.5838 30.0246 39.5671 27.4186 35.6154 24.4651C32.5315 22.1603 33.6147 15.059 33.9892 13.0715C34.5909 12.2657 34.9765 11.6174 35.1377 11.3317C36.3333 9.21295 38.4433 1.81772 38.5325 1.50396C38.5963 1.28002 38.4672 1.04667 38.2444 0.982659C38.0219 0.918747 37.7894 1.04827 37.7256 1.27221C37.7098 1.32813 36.5375 5.43732 35.463 8.40779H31.6138C31.3821 8.40779 31.1943 8.59653 31.1943 8.82947C31.1943 9.06232 31.3821 9.25116 31.6138 9.25116H35.1481C34.8795 9.94519 34.6256 10.5298 34.4078 10.9157C33.024 13.3681 29.4985 17.5988 25.0492 17.9316C20.5999 17.5988 17.0745 13.3681 15.6906 10.9157C15.5049 10.5864 15.2926 10.112 15.0674 9.54881H22.6306C22.8624 9.54881 23.0503 9.35998 23.0503 9.12713C23.0503 8.89419 22.8624 8.70545 22.6306 8.70545H14.7442C14.5434 8.16165 14.3376 7.57153 14.1351 6.96912H18.4846C18.7163 6.96912 18.9041 6.78038 18.9041 6.54743C18.9041 6.31459 18.7163 6.12575 18.4846 6.12575H13.8562C13.0615 3.68648 12.3848 1.31462 12.3728 1.27221C12.309 1.04827 12.0767 0.918647 11.854 0.982659C11.6313 1.04667 11.5022 1.28002 11.5659 1.50396C11.6551 1.81772 13.7652 9.21295 14.9606 11.3317C15.1113 11.5985 15.4575 12.1816 15.9927 12.9139C16.3297 14.6477 17.5568 22.0939 14.3842 24.4651C10.4327 27.4186 0.41601 30.0246 0.315402 30.0505C0.0908991 30.1084 -0.0443398 30.3382 0.0132786 30.5638C0.0618412 30.7542 0.232407 30.8807 0.419294 30.8807C0.453925 30.8807 0.488953 30.8764 0.523883 30.8674C0.941641 30.7597 10.801 28.1942 14.8851 25.1419C18.0157 22.8023 17.443 16.8687 16.9902 14.1657C17.4278 14.6698 17.9317 15.1961 18.5007 15.709C20.5812 17.5844 22.7746 18.6159 25.0198 18.775C25.0297 18.7757 25.0394 18.7761 25.0493 18.7761C25.0592 18.7761 25.069 18.7758 25.0789 18.775C27.324 18.6159 29.5175 17.5843 31.598 15.709C32.1151 15.2428 32.5782 14.7657 32.9868 14.3041C32.5388 17.0666 32.0368 22.8416 35.1149 25.1419C37.3151 26.7863 41.1912 28.2891 44.3646 29.3427H37.5371C37.3053 29.3427 37.1174 29.5316 37.1174 29.7644C37.1174 29.9973 37.3053 30.1861 37.5371 30.1861H47.0495C48.4157 30.5919 49.3535 30.8358 49.4762 30.8673C49.5112 30.8763 49.5462 30.8806 49.5808 30.8806C49.7678 30.8806 49.9382 30.7541 49.9868 30.5637C50.0442 30.3382 49.909 30.1084 49.6845 30.0505Z" fill="#D34937"/>
<path d="M30.9532 16.8265C30.7216 16.8036 30.5178 16.9746 30.4959 17.2065C30.2799 19.4944 30.2901 22.6721 31.5654 24.817C31.6439 24.9491 31.7831 25.0224 31.9258 25.0224C31.9991 25.0224 32.0732 25.0031 32.1407 24.9626C32.3396 24.8432 32.4044 24.5842 32.2856 24.3844C31.1269 22.4356 31.1269 19.4487 31.3311 17.2861C31.3531 17.0544 31.1839 16.8485 30.9532 16.8265Z" fill="#D34937"/>
<path d="M17.9579 24.9625C18.0253 25.003 18.0995 25.0223 18.1726 25.0223C18.3155 25.0223 18.4546 24.949 18.5331 24.8169C19.8085 22.6721 19.8187 19.4945 19.6026 17.2064C19.5806 16.9746 19.3759 16.804 19.1454 16.8265C18.9147 16.8485 18.7453 17.0543 18.7673 17.286C18.9715 19.4487 18.9716 22.4355 17.8129 24.3843C17.694 24.5842 17.7589 24.8431 17.9579 24.9625Z" fill="#D34937"/>
<path d="M36.2031 27.4606C35.5224 27.5435 29.5145 28.3067 28.1704 29.5536C28.0001 29.7116 27.9895 29.9784 28.1467 30.1494C28.2294 30.2394 28.342 30.2852 28.4551 30.2852C28.5569 30.2852 28.6589 30.2481 28.7396 30.1733C29.6077 29.3679 33.739 28.6105 36.3041 28.2978C36.5341 28.2698 36.698 28.0597 36.6701 27.8285C36.6423 27.5973 36.4331 27.4326 36.2031 27.4606Z" fill="#D34937"/>
<path d="M13.7968 27.4606C13.5678 27.4329 13.3577 27.5972 13.3299 27.8284C13.302 28.0596 13.4658 28.2697 13.696 28.2977C15.4707 28.5139 20.2894 29.2724 21.2604 30.1732C21.3412 30.2481 21.4432 30.285 21.5449 30.285C21.6579 30.285 21.7706 30.2393 21.8533 30.1493C22.0105 29.9782 21.9999 29.7114 21.8296 29.5535C20.4854 28.3067 14.4775 27.5435 13.7968 27.4606Z" fill="#D34937"/>
</svg>
