<svg width="42" height="51" viewBox="0 0 42 51" fill="none" xmlns="http://www.w3.org/2000/svg">
<path d="M34.8076 34.1327C36.8771 30.6034 37.9158 28.832 39.9064 24.293C42.1643 19.1448 41.319 14.4651 40.5565 12.7099C39.1272 9.41957 38.6793 8.7334 36.199 6.03575C34.1068 3.7601 28.111 0.389072 20.9302 1.03071C13.7877 1.66871 11.5258 2.57316 8.90682 3.62037L8.65483 3.72108C5.68385 4.90656 5.5442 6.53651 5.31286 9.23687L5.30191 9.36536C5.11417 11.5507 5.54305 12.6811 5.79556 13.1402C5.3842 14.101 3.81386 17.9016 3.96114 19.5908C4.01944 20.2593 4.20958 20.7757 4.37729 21.2313C4.6808 22.0553 4.83318 22.469 4.08087 23.261C3.04007 24.3568 -0.267276 28.0766 0.86959 29.9326C1.34144 30.7027 2.06653 31.0188 2.59596 31.2497C3.28538 31.5502 3.27088 31.5962 3.19088 31.8517C2.50136 34.0528 2.51033 35.8844 3.21748 37.2953C3.57742 38.0135 3.89981 38.3046 4.1131 38.4972C4.25286 38.6234 4.25307 38.6254 4.25787 38.6804C4.27602 38.8894 4.16379 39.3752 4.05156 39.8228C3.7371 41.0775 4.15847 41.9636 4.56733 42.4861C5.24986 43.3582 6.30975 43.7553 7.00554 43.7553C7.14707 43.7553 7.34274 43.7485 7.59035 43.7396C8.95928 43.6911 13.1245 43.5432 13.5181 45.0018C14.0753 47.066 15.7494 50.4402 15.8204 50.5828C15.8979 50.7383 16.0548 50.8283 16.2178 50.8283C16.284 50.8283 16.3512 50.8135 16.4146 50.7821C16.6339 50.6735 16.7233 50.4082 16.6145 50.1895C16.5975 50.1554 14.9084 46.7512 14.3742 44.7719C13.7973 42.6346 9.58383 42.7843 7.55885 42.856C7.32 42.8644 7.13132 42.8712 7.00554 42.8712C6.5026 42.8712 5.74362 42.5521 5.26613 41.9419C4.8481 41.4078 4.72889 40.7671 4.91172 40.0374C5.2653 38.6267 5.23672 38.3188 4.70813 37.8417C4.57911 37.7253 4.42788 37.5882 4.25036 37.3198C6.10971 36.5632 13.6604 33.8562 17.5975 37.9769C21.3301 41.8834 23.679 50.416 23.7022 50.5017C23.7557 50.6988 23.9346 50.8284 24.1299 50.8284C24.1683 50.8284 24.2073 50.8234 24.2461 50.813C24.4823 50.7492 24.622 50.5063 24.558 50.2707C24.4606 49.9118 22.1277 41.4365 18.2393 37.3669C16.1876 35.2194 12.9666 34.4286 8.92455 35.0801C6.59981 35.4549 4.65452 36.1918 3.84995 36.5261C3.47218 35.5157 3.47353 34.2531 3.85475 32.7595C4.78708 32.3582 7.40709 31.3169 10.3071 30.9354C15.0943 30.3056 18.8671 31.3947 21.5208 34.172C26.7552 39.6503 29.1225 50.3718 29.1458 50.4794C29.1907 50.6866 29.3745 50.8283 29.5787 50.8283C29.6097 50.8283 29.6411 50.8251 29.6726 50.8182C29.9118 50.7667 30.064 50.5315 30.0124 50.2928C29.9153 49.8435 27.5707 39.222 22.1626 33.5617C19.3428 30.6105 15.2031 29.399 10.1913 30.0584C7.45434 30.4184 5.18457 31.2293 4.11341 31.6619C4.11383 30.9463 3.45434 30.6586 2.9511 30.4393C2.46016 30.2251 1.95253 30.0038 1.62618 29.4712C1.0542 28.5374 2.75189 25.9462 4.72461 23.869C5.85501 22.6787 5.52688 21.7877 5.2096 20.9261C5.05368 20.5027 4.89243 20.065 4.84445 19.5141C4.72325 18.1232 6.14381 14.5418 6.7014 13.2791C6.7692 13.1254 6.74938 12.9533 6.64164 12.8243C6.63496 12.8156 5.97193 11.9241 6.18533 9.44069L6.19638 9.31199C6.20191 9.24696 6.20744 9.1836 6.21286 9.12034H14.7574C15.0022 9.12034 15.2007 8.92234 15.2007 8.67815C15.2007 8.43386 15.0022 8.23596 14.7574 8.23596H6.29599C6.50396 6.31354 6.88017 5.38152 8.9841 4.54199L9.23661 4.44106C11.896 3.37773 13.9965 2.53779 21.0092 1.91144C24.8963 1.56435 28.1724 2.47744 30.2364 3.30459C32.8616 4.35668 34.7002 5.71394 35.5455 6.63337C37.9602 9.25986 38.3526 9.86071 39.743 13.0614C39.983 13.6141 40.2975 14.7348 40.4172 16.2223H32.4926C32.2478 16.2223 32.0493 16.4202 32.0493 16.6645C32.0493 16.9087 32.2478 17.1066 32.4926 17.1066H40.463C40.4811 17.9307 40.4347 18.8405 40.2894 19.8095H37.8867C37.6419 19.8095 37.4434 20.0075 37.4434 20.2517C37.4434 20.496 37.6419 20.6939 37.8867 20.6939H40.1316C39.9166 21.73 39.5842 22.8209 39.0941 23.9385C37.5647 27.4255 36.6017 29.2643 35.2874 31.5497H29.2233C28.9785 31.5497 28.7801 31.7476 28.7801 31.9919C28.7801 32.2361 28.9785 32.4341 29.2233 32.4341H34.775C34.5444 32.8297 34.3015 33.2439 34.0422 33.6862C33.8032 34.0936 33.5505 34.5248 33.2807 34.9867C31.8664 37.4078 31.7214 40.7785 32.8497 45.0053C33.6789 48.1117 34.8932 50.4882 34.9445 50.5879C35.0563 50.8052 35.3235 50.8909 35.5413 50.7793C35.7591 50.6678 35.845 50.4012 35.7332 50.184C35.685 50.0903 30.9431 40.7449 34.0468 35.4319C34.3164 34.9705 34.569 34.5396 34.8076 34.1327Z" fill="#D34937"/>
<path d="M33.4562 8.14185C35.5261 10.3932 35.8622 10.908 37.054 13.6514C37.1265 13.8182 37.2897 13.9179 37.4609 13.9179C37.5197 13.9179 37.5796 13.9061 37.637 13.8813C37.8616 13.7842 37.9648 13.5238 37.8675 13.2997C36.6349 10.4622 36.2484 9.87044 34.1097 7.54412C32.3028 5.57872 27.1266 2.66726 20.9303 3.22088C20.6864 3.24273 20.5064 3.45747 20.5283 3.70073C20.5501 3.94388 20.7662 4.12336 21.0093 4.10172C24.3392 3.80436 27.1459 4.58667 28.9142 5.29531C31.1615 6.19591 32.734 7.35632 33.4562 8.14185Z" fill="#D34937"/>
<path d="M10.3017 32.1978C7.15373 32.6118 4.73701 33.7368 4.63563 33.7845C4.4143 33.8886 4.31949 34.152 4.42379 34.3729C4.52809 34.5936 4.79208 34.6881 5.01361 34.5844C5.03739 34.5733 7.42481 33.4642 10.4402 33.0716C14.4159 32.5539 17.5484 33.4598 19.7504 35.7646C19.8376 35.8557 19.9543 35.9016 20.0713 35.9016C20.1813 35.9016 20.2913 35.8611 20.3772 35.7795C20.5544 35.611 20.5611 35.3311 20.3923 35.1543C18.0135 32.6647 14.5241 31.6423 10.3017 32.1978Z" fill="#D34937"/>
</svg>
