<svg width="50" height="51" viewBox="0 0 50 51" fill="none" xmlns="http://www.w3.org/2000/svg">
<g clip-path="url(#clip0)">
<path d="M49.614 32.9316C48.8895 28.9744 47.1333 24.7405 44.669 21.0097C42.3893 17.5583 39.7636 14.9213 37.465 13.7748C35.048 12.5692 33.2086 12.3917 31.9982 13.247C30.293 14.452 30.5473 17.2219 30.5847 17.5557V27.0262L27.8115 25.3239C27.7648 25.295 27.7003 25.18 27.7003 25.1253V1.94968C27.7003 1.7089 27.5045 1.51367 27.2632 1.51367C27.0218 1.51367 26.8261 1.7089 26.8261 1.94968V9.40137H24.9667C24.7254 9.40137 24.5296 9.59659 24.5296 9.83737C24.5296 10.0781 24.7254 10.2734 24.9667 10.2734H26.8261V16.7558H25.0427C24.8014 16.7558 24.6056 16.951 24.6056 17.1918C24.6056 17.4326 24.8014 17.6278 25.0427 17.6278H26.8261V25.1254C26.8261 25.4832 27.0478 25.8791 27.3534 26.0666L32.5861 29.2789C32.7259 29.3647 32.9022 29.3652 33.0424 29.2801L37.6159 26.5051C37.7928 26.3977 38.0242 26.454 38.1316 26.6302C38.239 26.8065 38.1827 27.0373 38.0059 27.1446L33.3013 29.999C33.1709 30.0781 33.0913 30.2193 33.0913 30.3715V31.9804C33.0913 32.0603 33.1133 32.1387 33.155 32.2069L35.9092 36.724C36.0166 36.9004 35.9603 37.1311 35.7837 37.2383C35.6067 37.3456 35.3755 37.2894 35.2679 37.1131L32.3317 32.2973C32.297 32.2403 32.2495 32.1919 32.1931 32.1561L31.2661 31.5672L31.266 31.567L25.2488 27.7443C25.1012 27.6505 24.9191 27.6573 24.7804 27.745L24.7798 27.7439L17.6646 32.2495C17.6079 32.2854 17.5603 32.3339 17.5254 32.391L14.6461 37.1133C14.5941 37.1987 14.5119 37.2587 14.4145 37.2824C14.3173 37.3061 14.2163 37.2905 14.1307 37.2386C13.9539 37.1313 13.8976 36.9006 14.0051 36.7243L16.8449 32.0667C16.8866 31.9984 16.9086 31.92 16.9086 31.84V30.4236C16.9086 30.2713 16.829 30.1302 16.6986 30.0511L11.9083 27.1447C11.8228 27.0927 11.7625 27.0106 11.7387 26.9135C11.7151 26.8163 11.7306 26.7158 11.7826 26.6304C11.8901 26.4541 12.1215 26.398 12.2982 26.5052L16.9151 29.3064C17.0553 29.3914 17.2315 29.391 17.3713 29.3052L22.6745 26.0496C22.98 25.862 23.2017 25.4663 23.2017 25.1083V14.6362H25.4431C25.6845 14.6362 25.8802 14.4411 25.8802 14.2002C25.8802 13.9594 25.6845 13.7642 25.4431 13.7642H23.2017V7.09464H25.1516C25.393 7.09464 25.5887 6.89941 25.5887 6.65864C25.5887 6.41786 25.393 6.22263 25.1516 6.22263H23.2017V1.94968C23.2017 1.7089 23.0059 1.51367 22.7646 1.51367C22.5232 1.51367 22.3275 1.7089 22.3275 1.94968V25.1081C22.3275 25.1629 22.2631 25.278 22.2163 25.3067L19.4147 27.0266V17.5557C19.4523 17.2217 19.7063 14.452 18.0012 13.2471C16.7906 12.3918 14.9513 12.5693 12.5344 13.7749C10.2358 14.9213 7.61006 17.5584 5.33027 21.0099C2.86598 24.7406 1.10986 28.9747 0.385343 32.9319C-0.707657 38.9039 0.533538 44.0249 3.97513 47.7411C3.98099 47.7474 3.98696 47.7535 3.99323 47.7595C4.10543 47.8671 6.63595 50.2661 9.09345 50.2658C9.2293 50.2657 9.36515 50.2584 9.50008 50.2429C10.5134 50.1269 11.3452 49.5801 11.9724 48.6175C13.4887 46.2904 14.8648 45.5308 16.1955 44.7963C16.9397 44.3855 17.7094 43.9606 18.4598 43.2806C19.5445 42.2978 19.4359 40.5593 19.4152 40.3202V32.1737L25.0138 28.6284L30.5849 32.1678V40.3201C30.5643 40.5591 30.4556 42.2977 31.5401 43.2805C32.2906 43.9605 33.0601 44.3853 33.8044 44.7961C35.1352 45.5306 36.5113 46.2902 38.0277 48.6173C38.6548 49.5798 39.4867 50.1267 40.5 50.2427C40.635 50.2582 40.7707 50.2656 40.9066 50.2655C43.364 50.2654 45.8947 47.8668 46.0069 47.7592C46.0131 47.7532 46.0191 47.747 46.025 47.7408C49.4664 44.0249 50.7076 38.9038 49.614 32.9316ZM18.5432 40.3845C18.5448 40.3996 18.6841 41.8994 17.872 42.6353C17.1969 43.2471 16.5049 43.629 15.7722 44.0335C14.414 44.7832 12.8745 45.633 11.2393 48.1425C10.7546 48.8864 10.1535 49.2901 9.40177 49.3766C7.29629 49.619 4.77174 47.2929 4.6073 47.1387C3.98716 46.4677 3.46154 45.7684 3.01778 45.0512H9.19876C9.44013 45.0512 9.63583 44.856 9.63583 44.6152C9.63583 44.3744 9.44013 44.1792 9.19876 44.1792H2.52249C2.2659 43.6857 2.04459 43.1859 1.85526 42.6828H5.45008C5.69145 42.6828 5.88716 42.4876 5.88716 42.2468C5.88716 42.006 5.69145 41.8108 5.45008 41.8108H1.55918C0.618999 38.7181 0.791053 35.572 1.24582 33.0883C2.75481 24.8467 8.61246 16.7059 12.9259 14.5546C15.0009 13.5198 16.5807 13.3132 17.4946 13.9574C18.0089 14.3198 18.2839 14.9126 18.4274 15.5091H16.4465C16.2051 15.5091 16.0094 15.7044 16.0094 15.9451C16.0094 16.1859 16.2051 16.3811 16.4465 16.3811H18.5577C18.6008 16.9923 18.5458 17.4649 18.5445 17.4756C18.5422 17.4936 18.5411 17.5119 18.5411 17.53V27.5631L17.1413 28.4224L12.7529 25.7597C12.1641 25.4027 11.3942 25.5899 11.0362 26.1769C10.8628 26.4614 10.8109 26.7961 10.8899 27.1196C10.9435 27.3389 11.054 27.5344 11.2079 27.692H6.29513C6.05376 27.692 5.85805 27.8873 5.85805 28.128C5.85805 28.3688 6.05376 28.564 6.29513 28.564H12.5663L16.0347 30.6685V31.7176L15.1228 33.2131H11.7712C11.5299 33.2131 11.3342 33.4083 11.3342 33.6491C11.3342 33.8899 11.5299 34.0851 11.7712 34.0851H14.5911L13.2584 36.2711C13.221 36.3324 13.191 36.3961 13.1653 36.4608H7.99366C7.75229 36.4608 7.55658 36.656 7.55658 36.8968C7.55658 37.1376 7.75229 37.3328 7.99366 37.3328H13.1484C13.2408 37.595 13.4207 37.8281 13.6768 37.9834C13.875 38.1036 14.0975 38.1653 14.3237 38.1653C14.4228 38.1653 14.5228 38.1534 14.6216 38.1294C14.9458 38.0506 15.2199 37.8505 15.3932 37.5662L18.2194 32.931L18.541 32.7273V40.3404C18.541 40.3548 18.5418 40.3701 18.5432 40.3845ZM45.3924 47.1389C45.2346 47.287 42.9527 49.3945 40.9148 49.3943C40.809 49.3943 40.7037 49.3887 40.5997 49.3768C39.8473 49.2906 39.2457 48.8868 38.7607 48.1424C37.1254 45.6328 35.5859 44.7831 34.2277 44.0334C33.5671 43.6687 32.9396 43.3206 32.3277 42.8076H35.3101C35.5515 42.8076 35.7472 42.6124 35.7472 42.3716C35.7472 42.1308 35.5515 41.9356 35.3101 41.9356H31.6648C31.3802 41.2121 31.4556 40.3959 31.4567 40.3855C31.4583 40.3706 31.4591 40.3555 31.4591 40.3405V32.7234L31.6381 32.8371L34.5214 37.5664C34.7564 37.9516 35.1688 38.1646 35.591 38.1646C35.8121 38.1646 36.0359 38.1062 36.2382 37.9835C36.2934 37.95 36.3439 37.9118 36.392 37.8715H42.3489C42.5903 37.8715 42.786 37.6763 42.786 37.4355C42.786 37.1947 42.5903 36.9995 42.3489 36.9995H36.8343C36.8508 36.7524 36.7948 36.4982 36.6564 36.2711L36.1994 35.5216H39.4379C39.6792 35.5216 39.8749 35.3263 39.8749 35.0856C39.8749 34.8448 39.6792 34.6496 39.4379 34.6496H35.6677L33.9658 31.8583V30.6167L37.4195 28.5212H43.6003C43.8416 28.5212 44.0373 28.3259 44.0373 28.0852C44.0373 27.8444 43.8416 27.6492 43.6003 27.6492H38.7484C39.1002 27.2507 39.1695 26.6541 38.8787 26.1771C38.5207 25.5901 37.7506 25.4031 37.162 25.7601L32.8167 28.3965L31.4591 27.5632V17.5303C31.4591 17.5125 31.458 17.494 31.4557 17.4763C31.4525 17.4507 31.1544 14.9098 32.5055 13.9576C33.4193 13.3134 34.9991 13.5199 37.0743 14.5547C41.3875 16.7061 47.2453 24.8466 48.7543 33.0882C49.4803 37.0543 49.4858 42.71 45.3924 47.1389Z" fill="#D34937"/>
</g>
<defs>
<clipPath id="clip0">
<rect y="0.950928" width="50" height="49.8775" fill="white"/>
</clipPath>
</defs>
</svg>
