<svg width="52" height="52" viewBox="0 0 52 52" fill="none" xmlns="http://www.w3.org/2000/svg">
<path d="M37.1719 40.2188C36.6113 40.2188 36.1562 40.6738 36.1562 41.2344C36.1562 41.795 36.6113 42.25 37.1719 42.25C37.7325 42.25 38.1875 41.795 38.1875 41.2344C38.1875 40.6738 37.7325 40.2188 37.1719 40.2188Z" fill="#009FE3"/>
<path d="M39.6725 36.9345L34.8453 35.3258L33.1123 31.8598C34.6735 30.2707 35.7575 28.1682 36.123 25.9751L36.3392 24.6797H38.1875C39.8675 24.6797 41.2344 23.3129 41.2344 21.6328V15.2344C41.2344 6.83414 34.4002 0 26 0C17.5782 0 10.7656 6.81454 10.7656 15.2344V21.6328C10.7656 22.9568 11.6148 24.0857 12.7969 24.505V25.6953C12.7969 27.3754 14.1637 28.7422 15.8438 28.7422H16.7357C17.1759 29.6986 17.7458 30.5844 18.4393 31.3802C18.5831 31.5455 18.7331 31.7058 18.8868 31.8617L17.1547 35.3258L12.3274 36.9346C6.7145 38.8062 2.64062 44.715 2.64062 50.9844C2.64062 51.5453 3.09532 52 3.65625 52H48.3438C48.9046 52 49.3594 51.5453 49.3594 50.9844C49.3594 44.715 45.2856 38.8062 39.6725 36.9345ZM39.2031 21.6328C39.2031 22.1928 38.7475 22.6484 38.1875 22.6484H36.6375C36.8956 20.6487 37.0677 18.5206 37.1368 16.4247C37.1389 16.3656 37.1405 16.3081 37.1423 16.25H39.2031V21.6328ZM13.8125 22.6484C13.2525 22.6484 12.7969 22.1928 12.7969 21.6328V16.25H14.8584C14.8617 16.3559 14.8653 16.4624 14.8693 16.5695C14.8694 16.5732 14.8696 16.5767 14.8697 16.5804C14.8697 16.5807 14.8697 16.581 14.8697 16.5813C14.9408 18.6199 15.1106 20.6926 15.3629 22.6483H13.8125V22.6484ZM15.8438 26.7109C15.2837 26.7109 14.8281 26.2553 14.8281 25.6953V24.6797H15.6607L15.8769 25.9755C15.9181 26.2218 15.9688 26.4672 16.0274 26.7109H15.8438ZM14.8299 14.2188H12.8355C13.3499 7.41193 19.0305 2.03125 26 2.03125C32.9385 2.03125 38.6441 7.41122 39.1644 14.2188H37.1703C37.0971 8.60976 32.5296 4.0625 26.9091 4.0625H25.0911C19.4707 4.0625 14.9029 8.60976 14.8299 14.2188ZM25.091 6.09375H26.909C31.4599 6.09375 35.1433 9.81612 35.1406 14.362C35.1406 14.6816 35.1381 14.9599 35.1327 15.213C35.1327 15.2163 35.1326 15.2196 35.1326 15.223L33.8623 15.0415C30.4112 14.5487 27.1526 12.9195 24.6869 10.4537C24.4964 10.2633 24.2381 10.1562 23.9688 10.1562C21.2412 10.1562 18.6302 11.399 16.9043 13.4985C17.3296 9.36295 20.8257 6.09375 25.091 6.09375ZM18.133 26.7109C17.6245 25.0196 17.0428 20.0431 16.9142 16.854L18.2811 15.0314C19.5366 13.358 21.4897 12.3183 23.5674 12.199C26.3011 14.8006 29.8377 16.5186 33.575 17.0522L35.0702 17.2659C34.9703 19.3871 34.7661 21.5156 34.4735 23.4732C34.4734 23.4738 34.4733 23.4745 34.4732 23.4753C34.3801 24.1046 34.3068 24.5097 34.1195 25.641C33.5816 28.8671 31.1744 31.7845 27.9966 32.579C26.6888 32.9055 25.311 32.9054 24.0039 32.579C22.0197 32.083 20.2003 30.7101 19.0261 28.7422H21.0966C21.5158 29.9243 22.6447 30.7734 23.9688 30.7734H26C27.6834 30.7734 29.0469 29.4101 29.0469 27.7266C29.0469 26.0465 27.68 24.6797 26 24.6797H23.9688C22.6152 24.6797 21.503 25.5539 21.0948 26.7109H18.133ZM23.8833 34.6344C24.58 34.7812 25.2902 34.8563 26 34.8563C26.5556 34.8563 27.1114 34.8097 27.6609 34.7195L25.8662 36.6174L23.8833 34.6344ZM24.47 38.094L21.2486 41.5006C20.3618 39.8031 19.5997 38.0364 18.9747 36.2278L20.1844 33.8083L24.47 38.094ZM31.6434 33.4642L33.0251 36.2276C32.399 38.0393 31.6368 39.8066 30.7509 41.5021L27.303 38.0542L31.6434 33.4642ZM22.9531 27.7266C22.9531 27.1658 23.4079 26.7109 23.9688 26.7109H26C26.56 26.7109 27.0156 27.1665 27.0156 27.7266C27.0156 28.2874 26.5607 28.7422 26 28.7422H23.9688C23.4087 28.7422 22.9531 28.2866 22.9531 27.7266ZM4.7125 49.9688C5.11499 44.9374 8.46341 40.3643 12.9697 38.8616L17.2449 37.4369C18.0282 39.6027 18.9985 41.7078 20.1357 43.7073C20.1376 43.7108 20.1394 43.7142 20.1414 43.7176C20.1414 43.7177 20.1415 43.7177 20.1415 43.7178C20.9724 45.1792 21.9075 46.6072 22.9214 47.963L24.1709 49.9688H4.7125ZM26 49.0634L24.6226 46.8521C24.6072 46.8273 24.5907 46.8032 24.5732 46.7799C23.7508 45.6828 22.9836 44.5355 22.2848 43.3611L25.9069 39.5308L29.7234 43.3473C29.02 44.5302 28.2501 45.6823 27.427 46.7797C27.3772 46.846 27.4478 46.7415 26 49.0634ZM27.8291 49.9688L29.0785 47.9631C30.0968 46.6022 31.0387 45.1626 31.8779 43.6841C31.883 43.6751 31.8878 43.666 31.8929 43.657C31.8935 43.6559 31.8941 43.6549 31.8947 43.6538C33.0175 41.6733 33.9776 39.5865 34.7551 37.4369L39.0302 38.8616C43.5366 40.3643 46.885 44.9374 47.2875 49.9688H27.8291Z" fill="#009FE3"/>
<path d="M44.2352 45.8584C43.5564 44.4998 42.5622 43.2928 41.36 42.368C40.9154 42.0259 40.2778 42.109 39.9358 42.5537C39.5938 42.9983 39.6769 43.6359 40.1215 43.978C41.0816 44.7167 41.8757 45.6808 42.4179 46.7662C42.6691 47.2688 43.2795 47.4711 43.7804 47.2209C44.2821 46.9702 44.4857 46.3602 44.2352 45.8584Z" fill="#009FE3"/>
</svg>
